<svg width="620" height="1144" viewBox="0 0 620 1144" fill="none" xmlns="http://www.w3.org/2000/svg">
<path d="M0 0H620V1128C620 1136.84 612.837 1144 604 1144H16C7.16343 1144 0 1136.84 0 1128V0Z" fill="white"/>
<path d="M32 40C32 35.5817 35.5817 32 40 32H580C584.418 32 588 35.5817 588 40V68H32V40Z" fill="white"/>
<path d="M42.767 47.1818V53H41.8864V48.0625H41.8523L40.4602 48.9716V48.1307L41.9119 47.1818H42.767Z" fill="#637792"/>
<path d="M32 40C32 35.5817 35.5817 32 40 32H580C584.418 32 588 35.5817 588 40V68H32V40Z" stroke="#F3F4F7"/>
<rect x="32" y="68" width="556" height="36" fill="white"/>
<path d="M40.5597 89V88.3636L42.5284 86.3239C42.7386 86.1023 42.9119 85.9081 43.0483 85.7415C43.1866 85.5729 43.2898 85.4129 43.358 85.2614C43.4261 85.1098 43.4602 84.9489 43.4602 84.7784C43.4602 84.5852 43.4148 84.4186 43.3239 84.2784C43.233 84.1364 43.1089 84.0275 42.9517 83.9517C42.7945 83.8741 42.6174 83.8352 42.4205 83.8352C42.2121 83.8352 42.0303 83.8778 41.875 83.9631C41.7197 84.0483 41.6004 84.1686 41.517 84.3239C41.4337 84.4792 41.392 84.661 41.392 84.8693H40.554C40.554 84.5152 40.6354 84.2055 40.7983 83.9403C40.9612 83.6752 41.1847 83.4697 41.4688 83.3239C41.7528 83.1761 42.0758 83.1023 42.4375 83.1023C42.803 83.1023 43.125 83.1752 43.4034 83.321C43.6837 83.465 43.9025 83.6619 44.0597 83.9119C44.2169 84.16 44.2955 84.4403 44.2955 84.7528C44.2955 84.9688 44.2547 85.1799 44.1733 85.3864C44.0938 85.5928 43.9545 85.8229 43.7557 86.0767C43.5568 86.3286 43.2803 86.6345 42.9261 86.9943L41.7699 88.2045V88.2472H44.3892V89H40.5597Z" fill="#637792"/>
<rect x="32" y="68" width="556" height="36" stroke="#F3F4F7"/>
<rect x="32" y="104" width="556" height="36" fill="white"/>
<path d="M42.5852 125.08C42.1951 125.08 41.8466 125.012 41.5398 124.878C41.2348 124.743 40.9934 124.557 40.8153 124.318C40.6392 124.078 40.5445 123.799 40.5312 123.483H41.4233C41.4347 123.655 41.4924 123.805 41.5966 123.932C41.7027 124.057 41.8409 124.153 42.0114 124.222C42.1818 124.29 42.3712 124.324 42.5795 124.324C42.8087 124.324 43.0114 124.284 43.1875 124.205C43.3655 124.125 43.5047 124.014 43.6051 123.872C43.7055 123.728 43.7557 123.562 43.7557 123.375C43.7557 123.18 43.7055 123.009 43.6051 122.861C43.5066 122.711 43.3617 122.594 43.1705 122.509C42.9811 122.423 42.7519 122.381 42.483 122.381H41.9915V121.665H42.483C42.6989 121.665 42.8883 121.626 43.0511 121.548C43.2159 121.471 43.3447 121.363 43.4375 121.224C43.5303 121.084 43.5767 120.92 43.5767 120.733C43.5767 120.553 43.536 120.397 43.4545 120.264C43.375 120.13 43.2614 120.025 43.1136 119.949C42.9678 119.873 42.7955 119.835 42.5966 119.835C42.4072 119.835 42.2301 119.87 42.0653 119.94C41.9025 120.009 41.7699 120.107 41.6676 120.236C41.5653 120.363 41.5104 120.515 41.5028 120.693H40.6534C40.6629 120.379 40.7557 120.102 40.9318 119.864C41.1098 119.625 41.3447 119.438 41.6364 119.304C41.928 119.17 42.2519 119.102 42.608 119.102C42.9811 119.102 43.303 119.175 43.5739 119.321C43.8466 119.465 44.0568 119.657 44.2045 119.898C44.3542 120.138 44.428 120.402 44.4261 120.688C44.428 121.013 44.3371 121.29 44.1534 121.517C43.9716 121.744 43.7292 121.897 43.4261 121.974V122.02C43.8125 122.079 44.1117 122.232 44.3239 122.48C44.5379 122.728 44.6439 123.036 44.642 123.403C44.6439 123.723 44.5549 124.01 44.375 124.264C44.197 124.518 43.9536 124.718 43.6449 124.864C43.3362 125.008 42.983 125.08 42.5852 125.08Z" fill="#637792"/>
<rect x="32" y="104" width="556" height="36" stroke="#F3F4F7"/>
<rect x="32" y="140" width="556" height="36" fill="white"/>
<path d="M40.4375 159.864V159.153L42.9517 155.182H43.5114V156.227H43.1562L41.358 159.074V159.119H44.804V159.864H40.4375ZM43.196 161V159.648L43.2017 159.324V155.182H44.0341V161H43.196Z" fill="#637792"/>
<rect x="32" y="140" width="556" height="36" stroke="#F3F4F7"/>
<rect x="32" y="176" width="556" height="36" fill="white"/>
<path d="M42.4801 197.08C42.1241 197.08 41.804 197.011 41.5199 196.875C41.2377 196.737 41.0123 196.547 40.8438 196.307C40.6752 196.066 40.5852 195.792 40.5739 195.483H41.4261C41.447 195.733 41.5578 195.938 41.7585 196.099C41.9593 196.26 42.1998 196.341 42.4801 196.341C42.7036 196.341 42.9015 196.29 43.0739 196.188C43.2481 196.083 43.3845 195.94 43.483 195.759C43.5833 195.577 43.6335 195.369 43.6335 195.136C43.6335 194.9 43.5824 194.688 43.4801 194.503C43.3778 194.317 43.2367 194.171 43.0568 194.065C42.8788 193.959 42.6742 193.905 42.4432 193.903C42.267 193.903 42.09 193.934 41.9119 193.994C41.7339 194.055 41.59 194.134 41.4801 194.233L40.6761 194.114L41.0028 191.182H44.2017V191.935H41.733L41.5483 193.562H41.5824C41.696 193.453 41.8466 193.361 42.0341 193.287C42.2235 193.213 42.4261 193.176 42.642 193.176C42.9962 193.176 43.3116 193.26 43.5881 193.429C43.8665 193.598 44.0852 193.828 44.2443 194.119C44.4053 194.409 44.4848 194.742 44.483 195.119C44.4848 195.496 44.3996 195.832 44.2273 196.128C44.0568 196.423 43.8201 196.656 43.517 196.827C43.2159 196.995 42.8703 197.08 42.4801 197.08Z" fill="#637792"/>
<rect x="32" y="176" width="556" height="36" stroke="#F3F4F7"/>
<rect x="32" y="212" width="556" height="36" fill="white"/>
<path d="M42.5909 233.08C42.3314 233.076 42.0758 233.028 41.8239 232.938C41.5739 232.847 41.3466 232.695 41.142 232.483C40.9375 232.271 40.7737 231.986 40.6506 231.628C40.5294 231.27 40.4688 230.823 40.4688 230.287C40.4688 229.779 40.5189 229.329 40.6193 228.935C40.7216 228.541 40.8684 228.208 41.0597 227.938C41.2509 227.665 41.482 227.457 41.7528 227.315C42.0237 227.173 42.3277 227.102 42.6648 227.102C43.0114 227.102 43.3191 227.17 43.5881 227.307C43.857 227.443 44.0748 227.632 44.2415 227.872C44.41 228.113 44.517 228.386 44.5625 228.693H43.696C43.6373 228.451 43.5208 228.253 43.3466 228.099C43.1723 227.946 42.9451 227.869 42.6648 227.869C42.2386 227.869 41.9063 228.055 41.6676 228.426C41.4309 228.797 41.3116 229.313 41.3097 229.974H41.3523C41.4527 229.81 41.5758 229.67 41.7216 229.554C41.8693 229.437 42.0341 229.347 42.2159 229.284C42.3996 229.22 42.5928 229.188 42.7955 229.188C43.1326 229.188 43.4375 229.27 43.7102 229.435C43.9848 229.598 44.2036 229.823 44.3665 230.111C44.5294 230.399 44.6108 230.728 44.6108 231.099C44.6108 231.471 44.5265 231.807 44.358 232.108C44.1913 232.409 43.9564 232.648 43.6534 232.824C43.3504 232.998 42.9962 233.083 42.5909 233.08ZM42.5881 232.341C42.8116 232.341 43.0114 232.286 43.1875 232.176C43.3636 232.066 43.5028 231.919 43.6051 231.733C43.7074 231.547 43.7585 231.34 43.7585 231.111C43.7585 230.887 43.7083 230.684 43.608 230.5C43.5095 230.316 43.3731 230.17 43.1989 230.062C43.0265 229.955 42.8295 229.901 42.608 229.901C42.4394 229.901 42.2831 229.933 42.1392 229.997C41.9972 230.062 41.8722 230.151 41.7642 230.264C41.6563 230.378 41.571 230.509 41.5085 230.656C41.4479 230.802 41.4176 230.956 41.4176 231.119C41.4176 231.337 41.4678 231.539 41.5682 231.724C41.6705 231.91 41.8097 232.06 41.9858 232.173C42.1638 232.285 42.3646 232.341 42.5881 232.341Z" fill="#637792"/>
<rect x="32" y="212" width="556" height="36" stroke="#F3F4F7"/>
<rect x="32" y="248" width="556" height="36" fill="white"/>
<path d="M40.7557 269L43.2955 263.977V263.935H40.358V263.182H44.2045V263.96L41.6733 269H40.7557Z" fill="#637792"/>
<rect x="32" y="248" width="556" height="36" stroke="#F3F4F7"/>
<rect x="32" y="284" width="556" height="36" fill="white"/>
<path d="M42.5256 305.08C42.1184 305.08 41.7585 305.009 41.446 304.869C41.1354 304.729 40.892 304.536 40.7159 304.29C40.5398 304.044 40.4527 303.763 40.4545 303.449C40.4527 303.203 40.5028 302.976 40.6051 302.77C40.7093 302.562 40.8504 302.388 41.0284 302.25C41.2064 302.11 41.4053 302.021 41.625 301.983V301.949C41.3352 301.879 41.1032 301.723 40.929 301.483C40.7547 301.242 40.6686 300.966 40.6705 300.653C40.6686 300.356 40.7472 300.091 40.9062 299.858C41.0672 299.623 41.2879 299.438 41.5682 299.304C41.8485 299.17 42.1676 299.102 42.5256 299.102C42.8797 299.102 43.196 299.17 43.4744 299.307C43.7547 299.441 43.9754 299.626 44.1364 299.861C44.2973 300.094 44.3788 300.358 44.3807 300.653C44.3788 300.966 44.2898 301.242 44.1136 301.483C43.9375 301.723 43.7083 301.879 43.4261 301.949V301.983C43.6439 302.021 43.84 302.11 44.0142 302.25C44.1903 302.388 44.3305 302.562 44.4347 302.77C44.5407 302.976 44.5947 303.203 44.5966 303.449C44.5947 303.763 44.5057 304.044 44.3295 304.29C44.1534 304.536 43.9091 304.729 43.5966 304.869C43.286 305.009 42.929 305.08 42.5256 305.08ZM42.5256 304.361C42.7661 304.361 42.9744 304.321 43.1506 304.241C43.3267 304.16 43.4631 304.047 43.5597 303.903C43.6563 303.758 43.7055 303.587 43.7074 303.392C43.7055 303.189 43.6525 303.01 43.5483 302.855C43.446 302.7 43.3068 302.578 43.1307 302.489C42.9545 302.4 42.7528 302.355 42.5256 302.355C42.2964 302.355 42.0928 302.4 41.9148 302.489C41.7367 302.578 41.5966 302.7 41.4943 302.855C41.392 303.01 41.3419 303.189 41.3438 303.392C41.3419 303.587 41.3883 303.758 41.483 303.903C41.5795 304.047 41.7169 304.16 41.8949 304.241C42.0729 304.321 42.2831 304.361 42.5256 304.361ZM42.5256 301.653C42.7188 301.653 42.8902 301.615 43.0398 301.537C43.1894 301.459 43.3068 301.351 43.392 301.213C43.4792 301.075 43.5237 300.913 43.5256 300.727C43.5237 300.545 43.4801 300.386 43.3949 300.25C43.3116 300.114 43.1951 300.009 43.0455 299.935C42.8958 299.859 42.7225 299.821 42.5256 299.821C42.3248 299.821 42.1487 299.859 41.9972 299.935C41.8475 300.009 41.7311 300.114 41.6477 300.25C41.5644 300.386 41.5237 300.545 41.5256 300.727C41.5237 300.913 41.5653 301.075 41.6506 301.213C41.7358 301.351 41.8532 301.459 42.0028 301.537C42.1544 301.615 42.3286 301.653 42.5256 301.653Z" fill="#637792"/>
<rect x="32" y="284" width="556" height="36" stroke="#F3F4F7"/>
<rect x="32" y="320" width="556" height="36" fill="white"/>
<path d="M42.4943 335.102C42.7538 335.104 43.0095 335.152 43.2614 335.244C43.5133 335.337 43.7405 335.489 43.9432 335.699C44.1477 335.909 44.3106 336.193 44.4318 336.551C44.5549 336.907 44.6174 337.35 44.6193 337.881C44.6193 338.39 44.5682 338.844 44.4659 339.241C44.3636 339.637 44.2169 339.972 44.0256 340.244C43.8362 340.517 43.6061 340.724 43.3352 340.866C43.0644 341.009 42.7595 341.08 42.4205 341.08C42.0739 341.08 41.7661 341.011 41.4972 340.875C41.2282 340.739 41.0095 340.55 40.8409 340.31C40.6723 340.067 40.5672 339.789 40.5256 339.474H41.392C41.4489 339.724 41.5644 339.927 41.7386 340.082C41.9148 340.236 42.142 340.312 42.4205 340.312C42.8466 340.312 43.179 340.127 43.4176 339.756C43.6563 339.383 43.7765 338.862 43.7784 338.193H43.733C43.6345 338.356 43.5114 338.496 43.3636 338.614C43.2178 338.731 43.054 338.822 42.8722 338.886C42.6903 338.951 42.4962 338.983 42.2898 338.983C41.9545 338.983 41.6496 338.901 41.375 338.736C41.1004 338.571 40.8816 338.345 40.7188 338.057C40.5559 337.769 40.4744 337.44 40.4744 337.071C40.4744 336.704 40.5578 336.37 40.7244 336.071C40.893 335.772 41.1278 335.535 41.429 335.361C41.732 335.185 42.0871 335.098 42.4943 335.102ZM42.4972 335.841C42.2756 335.841 42.0758 335.896 41.8977 336.006C41.7216 336.114 41.5824 336.26 41.4801 336.446C41.3778 336.63 41.3267 336.834 41.3267 337.06C41.3267 337.285 41.3759 337.49 41.4744 337.673C41.5748 337.855 41.7112 338 41.8835 338.108C42.0578 338.214 42.2566 338.267 42.4801 338.267C42.6468 338.267 42.8021 338.235 42.946 338.17C43.09 338.106 43.2159 338.017 43.3239 337.903C43.4318 337.788 43.5161 337.657 43.5767 337.511C43.6373 337.366 43.6676 337.212 43.6676 337.051C43.6676 336.837 43.6165 336.638 43.5142 336.455C43.4138 336.271 43.2756 336.123 43.0994 336.011C42.9233 335.898 42.7225 335.841 42.4972 335.841Z" fill="#637792"/>
<rect x="32" y="320" width="556" height="36" stroke="#F3F4F7"/>
<rect x="32" y="356" width="556" height="36" fill="white"/>
<path d="M42.767 371.182V377H41.8864V372.062H41.8523L40.4602 372.972V372.131L41.9119 371.182H42.767ZM46.3665 377.097C45.9176 377.095 45.5341 376.976 45.2159 376.741C44.8977 376.507 44.6544 376.165 44.4858 375.716C44.3172 375.267 44.233 374.726 44.233 374.094C44.233 373.463 44.3172 372.924 44.4858 372.477C44.6563 372.03 44.9006 371.689 45.2188 371.455C45.5388 371.22 45.9214 371.102 46.3665 371.102C46.8116 371.102 47.1932 371.221 47.5114 371.457C47.8295 371.692 48.0729 372.033 48.2415 372.48C48.4119 372.925 48.4972 373.463 48.4972 374.094C48.4972 374.728 48.4129 375.27 48.2443 375.719C48.0758 376.166 47.8324 376.508 47.5142 376.744C47.196 376.979 46.8134 377.097 46.3665 377.097ZM46.3665 376.338C46.7604 376.338 47.0682 376.146 47.2898 375.761C47.5133 375.377 47.625 374.821 47.625 374.094C47.625 373.611 47.5739 373.203 47.4716 372.869C47.3712 372.534 47.2263 372.28 47.0369 372.108C46.8494 371.934 46.6259 371.847 46.3665 371.847C45.9744 371.847 45.6667 372.04 45.4432 372.426C45.2197 372.812 45.107 373.368 45.1051 374.094C45.1051 374.579 45.1553 374.989 45.2557 375.324C45.358 375.657 45.5028 375.91 45.6903 376.082C45.8778 376.253 46.1032 376.338 46.3665 376.338Z" fill="#637792"/>
<rect x="32" y="356" width="556" height="36" stroke="#F3F4F7"/>
<rect x="32" y="392" width="556" height="36" fill="white"/>
<path d="M42.767 407.182V413H41.8864V408.062H41.8523L40.4602 408.972V408.131L41.9119 407.182H42.767ZM46.5483 407.182V413H45.6676V408.062H45.6335L44.2415 408.972V408.131L45.6932 407.182H46.5483Z" fill="#637792"/>
<rect x="32" y="392" width="556" height="36" stroke="#F3F4F7"/>
<rect x="32" y="428" width="556" height="36" fill="white"/>
<path d="M42.767 443.182V449H41.8864V444.062H41.8523L40.4602 444.972V444.131L41.9119 443.182H42.767ZM44.3409 449V448.364L46.3097 446.324C46.5199 446.102 46.6932 445.908 46.8295 445.741C46.9678 445.573 47.071 445.413 47.1392 445.261C47.2074 445.11 47.2415 444.949 47.2415 444.778C47.2415 444.585 47.196 444.419 47.1051 444.278C47.0142 444.136 46.8902 444.027 46.733 443.952C46.5758 443.874 46.3987 443.835 46.2017 443.835C45.9934 443.835 45.8116 443.878 45.6562 443.963C45.5009 444.048 45.3816 444.169 45.2983 444.324C45.215 444.479 45.1733 444.661 45.1733 444.869H44.3352C44.3352 444.515 44.4167 444.205 44.5795 443.94C44.7424 443.675 44.9659 443.47 45.25 443.324C45.5341 443.176 45.857 443.102 46.2188 443.102C46.5843 443.102 46.9063 443.175 47.1847 443.321C47.465 443.465 47.6837 443.662 47.8409 443.912C47.9981 444.16 48.0767 444.44 48.0767 444.753C48.0767 444.969 48.036 445.18 47.9545 445.386C47.875 445.593 47.7358 445.823 47.5369 446.077C47.3381 446.329 47.0616 446.634 46.7074 446.994L45.5511 448.205V448.247H48.1705V449H44.3409Z" fill="#637792"/>
<rect x="32" y="428" width="556" height="36" stroke="#F3F4F7"/>
<rect x="32" y="464" width="556" height="36" fill="white"/>
<path d="M42.767 479.182V485H41.8864V480.062H41.8523L40.4602 480.972V480.131L41.9119 479.182H42.767ZM46.3665 485.08C45.9763 485.08 45.6278 485.012 45.321 484.878C45.0161 484.743 44.7746 484.557 44.5966 484.318C44.4205 484.078 44.3258 483.799 44.3125 483.483H45.2045C45.2159 483.655 45.2737 483.805 45.3778 483.932C45.4839 484.057 45.6222 484.153 45.7926 484.222C45.9631 484.29 46.1525 484.324 46.3608 484.324C46.59 484.324 46.7926 484.284 46.9688 484.205C47.1468 484.125 47.286 484.014 47.3864 483.872C47.4867 483.728 47.5369 483.562 47.5369 483.375C47.5369 483.18 47.4867 483.009 47.3864 482.861C47.2879 482.711 47.143 482.594 46.9517 482.509C46.7623 482.423 46.5331 482.381 46.2642 482.381H45.7727V481.665H46.2642C46.4801 481.665 46.6695 481.626 46.8324 481.548C46.9972 481.471 47.1259 481.363 47.2188 481.224C47.3116 481.084 47.358 480.92 47.358 480.733C47.358 480.553 47.3172 480.397 47.2358 480.264C47.1563 480.13 47.0426 480.025 46.8949 479.949C46.7491 479.873 46.5767 479.835 46.3778 479.835C46.1884 479.835 46.0114 479.87 45.8466 479.94C45.6837 480.009 45.5511 480.107 45.4489 480.236C45.3466 480.363 45.2917 480.515 45.2841 480.693H44.4347C44.4441 480.379 44.5369 480.102 44.7131 479.864C44.8911 479.625 45.1259 479.438 45.4176 479.304C45.7093 479.17 46.0331 479.102 46.3892 479.102C46.7623 479.102 47.0843 479.175 47.3551 479.321C47.6278 479.465 47.8381 479.657 47.9858 479.898C48.1354 480.138 48.2093 480.402 48.2074 480.688C48.2093 481.013 48.1184 481.29 47.9347 481.517C47.7528 481.744 47.5104 481.897 47.2074 481.974V482.02C47.5938 482.079 47.893 482.232 48.1051 482.48C48.3191 482.728 48.4252 483.036 48.4233 483.403C48.4252 483.723 48.3362 484.01 48.1562 484.264C47.9782 484.518 47.7348 484.718 47.4261 484.864C47.1174 485.008 46.7642 485.08 46.3665 485.08Z" fill="#637792"/>
<rect x="32" y="464" width="556" height="36" stroke="#F3F4F7"/>
<rect x="32" y="500" width="556" height="36" fill="white"/>
<path d="M42.767 515.182V521H41.8864V516.062H41.8523L40.4602 516.972V516.131L41.9119 515.182H42.767ZM44.2188 519.864V519.153L46.733 515.182H47.2926V516.227H46.9375L45.1392 519.074V519.119H48.5852V519.864H44.2188ZM46.9773 521V519.648L46.983 519.324V515.182H47.8153V521H46.9773Z" fill="#637792"/>
<rect x="32" y="500" width="556" height="36" stroke="#F3F4F7"/>
<rect x="32" y="536" width="556" height="36" fill="white"/>
<path d="M42.767 551.182V557H41.8864V552.062H41.8523L40.4602 552.972V552.131L41.9119 551.182H42.767ZM46.2614 557.08C45.9053 557.08 45.5852 557.011 45.3011 556.875C45.0189 556.737 44.7936 556.547 44.625 556.307C44.4564 556.066 44.3665 555.792 44.3551 555.483H45.2074C45.2282 555.733 45.339 555.938 45.5398 556.099C45.7405 556.26 45.9811 556.341 46.2614 556.341C46.4848 556.341 46.6828 556.29 46.8551 556.188C47.0294 556.083 47.1657 555.94 47.2642 555.759C47.3646 555.577 47.4148 555.369 47.4148 555.136C47.4148 554.9 47.3636 554.688 47.2614 554.503C47.1591 554.317 47.018 554.171 46.8381 554.065C46.66 553.959 46.4555 553.905 46.2244 553.903C46.0483 553.903 45.8712 553.934 45.6932 553.994C45.5152 554.055 45.3712 554.134 45.2614 554.233L44.4574 554.114L44.7841 551.182H47.983V551.935H45.5142L45.3295 553.562H45.3636C45.4773 553.453 45.6278 553.361 45.8153 553.287C46.0047 553.213 46.2074 553.176 46.4233 553.176C46.7775 553.176 47.0928 553.26 47.3693 553.429C47.6477 553.598 47.8665 553.828 48.0256 554.119C48.1866 554.409 48.2661 554.742 48.2642 555.119C48.2661 555.496 48.1809 555.832 48.0085 556.128C47.8381 556.423 47.6013 556.656 47.2983 556.827C46.9972 556.995 46.6515 557.08 46.2614 557.08Z" fill="#637792"/>
<rect x="32" y="536" width="556" height="36" stroke="#F3F4F7"/>
<rect x="32" y="572" width="556" height="36" fill="white"/>
<path d="M42.767 587.182V593H41.8864V588.062H41.8523L40.4602 588.972V588.131L41.9119 587.182H42.767ZM46.3722 593.08C46.1127 593.076 45.857 593.028 45.6051 592.938C45.3551 592.847 45.1278 592.695 44.9233 592.483C44.7188 592.271 44.5549 591.986 44.4318 591.628C44.3106 591.27 44.25 590.823 44.25 590.287C44.25 589.779 44.3002 589.329 44.4006 588.935C44.5028 588.541 44.6496 588.208 44.8409 587.938C45.0322 587.665 45.2633 587.457 45.5341 587.315C45.8049 587.173 46.1089 587.102 46.446 587.102C46.7926 587.102 47.1004 587.17 47.3693 587.307C47.6383 587.443 47.8561 587.632 48.0227 587.872C48.1913 588.113 48.2983 588.386 48.3438 588.693H47.4773C47.4186 588.451 47.3021 588.253 47.1278 588.099C46.9536 587.946 46.7263 587.869 46.446 587.869C46.0199 587.869 45.6875 588.055 45.4489 588.426C45.2121 588.797 45.0928 589.313 45.0909 589.974H45.1335C45.2339 589.81 45.357 589.67 45.5028 589.554C45.6506 589.437 45.8153 589.347 45.9972 589.284C46.1809 589.22 46.3741 589.188 46.5767 589.188C46.9138 589.188 47.2188 589.27 47.4915 589.435C47.7661 589.598 47.9848 589.823 48.1477 590.111C48.3106 590.399 48.392 590.728 48.392 591.099C48.392 591.471 48.3078 591.807 48.1392 592.108C47.9725 592.409 47.7377 592.648 47.4347 592.824C47.1316 592.998 46.7775 593.083 46.3722 593.08ZM46.3693 592.341C46.5928 592.341 46.7926 592.286 46.9688 592.176C47.1449 592.066 47.2841 591.919 47.3864 591.733C47.4886 591.547 47.5398 591.34 47.5398 591.111C47.5398 590.887 47.4896 590.684 47.3892 590.5C47.2907 590.316 47.1544 590.17 46.9801 590.062C46.8078 589.955 46.6108 589.901 46.3892 589.901C46.2206 589.901 46.0644 589.933 45.9205 589.997C45.7784 590.062 45.6534 590.151 45.5455 590.264C45.4375 590.378 45.3523 590.509 45.2898 590.656C45.2292 590.802 45.1989 590.956 45.1989 591.119C45.1989 591.337 45.2491 591.539 45.3494 591.724C45.4517 591.91 45.5909 592.06 45.767 592.173C45.9451 592.285 46.1458 592.341 46.3693 592.341Z" fill="#637792"/>
<rect x="32" y="572" width="556" height="36" stroke="#F3F4F7"/>
<rect x="32" y="608" width="556" height="36" fill="white"/>
<path d="M42.767 623.182V629H41.8864V624.062H41.8523L40.4602 624.972V624.131L41.9119 623.182H42.767ZM44.5369 629L47.0767 623.977V623.935H44.1392V623.182H47.9858V623.96L45.4545 629H44.5369Z" fill="#637792"/>
<rect x="32" y="608" width="556" height="36" stroke="#F3F4F7"/>
<rect x="32" y="644" width="556" height="36" fill="white"/>
<path d="M42.767 659.182V665H41.8864V660.062H41.8523L40.4602 660.972V660.131L41.9119 659.182H42.767ZM46.3068 665.08C45.8996 665.08 45.5398 665.009 45.2273 664.869C44.9167 664.729 44.6733 664.536 44.4972 664.29C44.321 664.044 44.2339 663.763 44.2358 663.449C44.2339 663.203 44.2841 662.976 44.3864 662.77C44.4905 662.562 44.6316 662.388 44.8097 662.25C44.9877 662.11 45.1866 662.021 45.4062 661.983V661.949C45.1165 661.879 44.8845 661.723 44.7102 661.483C44.536 661.242 44.4498 660.966 44.4517 660.653C44.4498 660.356 44.5284 660.091 44.6875 659.858C44.8485 659.623 45.0691 659.438 45.3494 659.304C45.6297 659.17 45.9489 659.102 46.3068 659.102C46.661 659.102 46.9773 659.17 47.2557 659.307C47.536 659.441 47.7566 659.626 47.9176 659.861C48.0786 660.094 48.16 660.358 48.1619 660.653C48.16 660.966 48.071 661.242 47.8949 661.483C47.7188 661.723 47.4896 661.879 47.2074 661.949V661.983C47.4252 662.021 47.6212 662.11 47.7955 662.25C47.9716 662.388 48.1117 662.562 48.2159 662.77C48.322 662.976 48.3759 663.203 48.3778 663.449C48.3759 663.763 48.2869 664.044 48.1108 664.29C47.9347 664.536 47.6903 664.729 47.3778 664.869C47.0672 665.009 46.7102 665.08 46.3068 665.08ZM46.3068 664.361C46.5473 664.361 46.7557 664.321 46.9318 664.241C47.108 664.16 47.2443 664.047 47.3409 663.903C47.4375 663.758 47.4867 663.587 47.4886 663.392C47.4867 663.189 47.4337 663.01 47.3295 662.855C47.2273 662.7 47.0881 662.578 46.9119 662.489C46.7358 662.4 46.5341 662.355 46.3068 662.355C46.0777 662.355 45.8741 662.4 45.696 662.489C45.518 662.578 45.3778 662.7 45.2756 662.855C45.1733 663.01 45.1231 663.189 45.125 663.392C45.1231 663.587 45.1695 663.758 45.2642 663.903C45.3608 664.047 45.4981 664.16 45.6761 664.241C45.8542 664.321 46.0644 664.361 46.3068 664.361ZM46.3068 661.653C46.5 661.653 46.6714 661.615 46.821 661.537C46.9706 661.459 47.0881 661.351 47.1733 661.213C47.2604 661.075 47.3049 660.913 47.3068 660.727C47.3049 660.545 47.2614 660.386 47.1761 660.25C47.0928 660.114 46.9763 660.009 46.8267 659.935C46.6771 659.859 46.5038 659.821 46.3068 659.821C46.1061 659.821 45.9299 659.859 45.7784 659.935C45.6288 660.009 45.5123 660.114 45.429 660.25C45.3456 660.386 45.3049 660.545 45.3068 660.727C45.3049 660.913 45.3466 661.075 45.4318 661.213C45.517 661.351 45.6345 661.459 45.7841 661.537C45.9356 661.615 46.1098 661.653 46.3068 661.653Z" fill="#637792"/>
<rect x="32" y="644" width="556" height="36" stroke="#F3F4F7"/>
<rect x="32" y="680" width="556" height="36" fill="white"/>
<path d="M42.767 695.182V701H41.8864V696.062H41.8523L40.4602 696.972V696.131L41.9119 695.182H42.767ZM46.2756 695.102C46.535 695.104 46.7907 695.152 47.0426 695.244C47.2945 695.337 47.5218 695.489 47.7244 695.699C47.929 695.909 48.0919 696.193 48.2131 696.551C48.3362 696.907 48.3987 697.35 48.4006 697.881C48.4006 698.39 48.3494 698.844 48.2472 699.241C48.1449 699.637 47.9981 699.972 47.8068 700.244C47.6174 700.517 47.3873 700.724 47.1165 700.866C46.8456 701.009 46.5407 701.08 46.2017 701.08C45.8551 701.08 45.5473 701.011 45.2784 700.875C45.0095 700.739 44.7907 700.55 44.6222 700.31C44.4536 700.067 44.3485 699.789 44.3068 699.474H45.1733C45.2301 699.724 45.3456 699.927 45.5199 700.082C45.696 700.236 45.9233 700.312 46.2017 700.312C46.6278 700.312 46.9602 700.127 47.1989 699.756C47.4375 699.383 47.5578 698.862 47.5597 698.193H47.5142C47.4157 698.356 47.2926 698.496 47.1449 698.614C46.9991 698.731 46.8352 698.822 46.6534 698.886C46.4716 698.951 46.2775 698.983 46.071 698.983C45.7358 698.983 45.4309 698.901 45.1562 698.736C44.8816 698.571 44.6629 698.345 44.5 698.057C44.3371 697.769 44.2557 697.44 44.2557 697.071C44.2557 696.704 44.339 696.37 44.5057 696.071C44.6742 695.772 44.9091 695.535 45.2102 695.361C45.5133 695.185 45.8684 695.098 46.2756 695.102ZM46.2784 695.841C46.0568 695.841 45.857 695.896 45.679 696.006C45.5028 696.114 45.3636 696.26 45.2614 696.446C45.1591 696.63 45.108 696.834 45.108 697.06C45.108 697.285 45.1572 697.49 45.2557 697.673C45.3561 697.855 45.4924 698 45.6648 698.108C45.839 698.214 46.0379 698.267 46.2614 698.267C46.428 698.267 46.5833 698.235 46.7273 698.17C46.8712 698.106 46.9972 698.017 47.1051 697.903C47.2131 697.788 47.2973 697.657 47.358 697.511C47.4186 697.366 47.4489 697.212 47.4489 697.051C47.4489 696.837 47.3977 696.638 47.2955 696.455C47.1951 696.271 47.0568 696.123 46.8807 696.011C46.7045 695.898 46.5038 695.841 46.2784 695.841Z" fill="#637792"/>
<rect x="32" y="680" width="556" height="36" stroke="#F3F4F7"/>
<rect x="32" y="716" width="556" height="36" fill="white"/>
<path d="M40.5597 737V736.364L42.5284 734.324C42.7386 734.102 42.9119 733.908 43.0483 733.741C43.1866 733.573 43.2898 733.413 43.358 733.261C43.4261 733.11 43.4602 732.949 43.4602 732.778C43.4602 732.585 43.4148 732.419 43.3239 732.278C43.233 732.136 43.1089 732.027 42.9517 731.952C42.7945 731.874 42.6174 731.835 42.4205 731.835C42.2121 731.835 42.0303 731.878 41.875 731.963C41.7197 732.048 41.6004 732.169 41.517 732.324C41.4337 732.479 41.392 732.661 41.392 732.869H40.554C40.554 732.515 40.6354 732.205 40.7983 731.94C40.9612 731.675 41.1847 731.47 41.4688 731.324C41.7528 731.176 42.0758 731.102 42.4375 731.102C42.803 731.102 43.125 731.175 43.4034 731.321C43.6837 731.465 43.9025 731.662 44.0597 731.912C44.2169 732.16 44.2955 732.44 44.2955 732.753C44.2955 732.969 44.2547 733.18 44.1733 733.386C44.0938 733.593 43.9545 733.823 43.7557 734.077C43.5568 734.329 43.2803 734.634 42.9261 734.994L41.7699 736.205V736.247H44.3892V737H40.5597ZM47.4915 737.097C47.0426 737.095 46.6591 736.976 46.3409 736.741C46.0227 736.507 45.7794 736.165 45.6108 735.716C45.4422 735.267 45.358 734.726 45.358 734.094C45.358 733.463 45.4422 732.924 45.6108 732.477C45.7813 732.03 46.0256 731.689 46.3438 731.455C46.6638 731.22 47.0464 731.102 47.4915 731.102C47.9366 731.102 48.3182 731.221 48.6364 731.457C48.9545 731.692 49.1979 732.033 49.3665 732.48C49.5369 732.925 49.6222 733.463 49.6222 734.094C49.6222 734.728 49.5379 735.27 49.3693 735.719C49.2008 736.166 48.9574 736.508 48.6392 736.744C48.321 736.979 47.9384 737.097 47.4915 737.097ZM47.4915 736.338C47.8854 736.338 48.1932 736.146 48.4148 735.761C48.6383 735.377 48.75 734.821 48.75 734.094C48.75 733.611 48.6989 733.203 48.5966 732.869C48.4962 732.534 48.3513 732.28 48.1619 732.108C47.9744 731.934 47.7509 731.847 47.4915 731.847C47.0994 731.847 46.7917 732.04 46.5682 732.426C46.3447 732.812 46.232 733.368 46.2301 734.094C46.2301 734.579 46.2803 734.989 46.3807 735.324C46.483 735.657 46.6278 735.91 46.8153 736.082C47.0028 736.253 47.2282 736.338 47.4915 736.338Z" fill="#637792"/>
<rect x="32" y="716" width="556" height="36" stroke="#F3F4F7"/>
<rect x="32" y="752" width="556" height="36" fill="white"/>
<path d="M40.5597 773V772.364L42.5284 770.324C42.7386 770.102 42.9119 769.908 43.0483 769.741C43.1866 769.573 43.2898 769.413 43.358 769.261C43.4261 769.11 43.4602 768.949 43.4602 768.778C43.4602 768.585 43.4148 768.419 43.3239 768.278C43.233 768.136 43.1089 768.027 42.9517 767.952C42.7945 767.874 42.6174 767.835 42.4205 767.835C42.2121 767.835 42.0303 767.878 41.875 767.963C41.7197 768.048 41.6004 768.169 41.517 768.324C41.4337 768.479 41.392 768.661 41.392 768.869H40.554C40.554 768.515 40.6354 768.205 40.7983 767.94C40.9612 767.675 41.1847 767.47 41.4688 767.324C41.7528 767.176 42.0758 767.102 42.4375 767.102C42.803 767.102 43.125 767.175 43.4034 767.321C43.6837 767.465 43.9025 767.662 44.0597 767.912C44.2169 768.16 44.2955 768.44 44.2955 768.753C44.2955 768.969 44.2547 769.18 44.1733 769.386C44.0938 769.593 43.9545 769.823 43.7557 770.077C43.5568 770.329 43.2803 770.634 42.9261 770.994L41.7699 772.205V772.247H44.3892V773H40.5597ZM47.6733 767.182V773H46.7926V768.062H46.7585L45.3665 768.972V768.131L46.8182 767.182H47.6733Z" fill="#637792"/>
<rect x="32" y="752" width="556" height="36" stroke="#F3F4F7"/>
<rect x="32" y="788" width="556" height="36" fill="white"/>
<path d="M40.5597 809V808.364L42.5284 806.324C42.7386 806.102 42.9119 805.908 43.0483 805.741C43.1866 805.573 43.2898 805.413 43.358 805.261C43.4261 805.11 43.4602 804.949 43.4602 804.778C43.4602 804.585 43.4148 804.419 43.3239 804.278C43.233 804.136 43.1089 804.027 42.9517 803.952C42.7945 803.874 42.6174 803.835 42.4205 803.835C42.2121 803.835 42.0303 803.878 41.875 803.963C41.7197 804.048 41.6004 804.169 41.517 804.324C41.4337 804.479 41.392 804.661 41.392 804.869H40.554C40.554 804.515 40.6354 804.205 40.7983 803.94C40.9612 803.675 41.1847 803.47 41.4688 803.324C41.7528 803.176 42.0758 803.102 42.4375 803.102C42.803 803.102 43.125 803.175 43.4034 803.321C43.6837 803.465 43.9025 803.662 44.0597 803.912C44.2169 804.16 44.2955 804.44 44.2955 804.753C44.2955 804.969 44.2547 805.18 44.1733 805.386C44.0938 805.593 43.9545 805.823 43.7557 806.077C43.5568 806.329 43.2803 806.634 42.9261 806.994L41.7699 808.205V808.247H44.3892V809H40.5597ZM45.4659 809V808.364L47.4347 806.324C47.6449 806.102 47.8182 805.908 47.9545 805.741C48.0928 805.573 48.196 805.413 48.2642 805.261C48.3324 805.11 48.3665 804.949 48.3665 804.778C48.3665 804.585 48.321 804.419 48.2301 804.278C48.1392 804.136 48.0152 804.027 47.858 803.952C47.7008 803.874 47.5237 803.835 47.3267 803.835C47.1184 803.835 46.9366 803.878 46.7812 803.963C46.6259 804.048 46.5066 804.169 46.4233 804.324C46.34 804.479 46.2983 804.661 46.2983 804.869H45.4602C45.4602 804.515 45.5417 804.205 45.7045 803.94C45.8674 803.675 46.0909 803.47 46.375 803.324C46.6591 803.176 46.982 803.102 47.3438 803.102C47.7093 803.102 48.0313 803.175 48.3097 803.321C48.59 803.465 48.8087 803.662 48.9659 803.912C49.1231 804.16 49.2017 804.44 49.2017 804.753C49.2017 804.969 49.161 805.18 49.0795 805.386C49 805.593 48.8608 805.823 48.6619 806.077C48.4631 806.329 48.1866 806.634 47.8324 806.994L46.6761 808.205V808.247H49.2955V809H45.4659Z" fill="#637792"/>
<rect x="32" y="788" width="556" height="36" stroke="#F3F4F7"/>
<rect x="32" y="824" width="556" height="36" fill="white"/>
<path d="M40.5597 845V844.364L42.5284 842.324C42.7386 842.102 42.9119 841.908 43.0483 841.741C43.1866 841.573 43.2898 841.413 43.358 841.261C43.4261 841.11 43.4602 840.949 43.4602 840.778C43.4602 840.585 43.4148 840.419 43.3239 840.278C43.233 840.136 43.1089 840.027 42.9517 839.952C42.7945 839.874 42.6174 839.835 42.4205 839.835C42.2121 839.835 42.0303 839.878 41.875 839.963C41.7197 840.048 41.6004 840.169 41.517 840.324C41.4337 840.479 41.392 840.661 41.392 840.869H40.554C40.554 840.515 40.6354 840.205 40.7983 839.94C40.9612 839.675 41.1847 839.47 41.4688 839.324C41.7528 839.176 42.0758 839.102 42.4375 839.102C42.803 839.102 43.125 839.175 43.4034 839.321C43.6837 839.465 43.9025 839.662 44.0597 839.912C44.2169 840.16 44.2955 840.44 44.2955 840.753C44.2955 840.969 44.2547 841.18 44.1733 841.386C44.0938 841.593 43.9545 841.823 43.7557 842.077C43.5568 842.329 43.2803 842.634 42.9261 842.994L41.7699 844.205V844.247H44.3892V845H40.5597ZM47.4915 845.08C47.1013 845.08 46.7528 845.012 46.446 844.878C46.1411 844.743 45.8996 844.557 45.7216 844.318C45.5455 844.078 45.4508 843.799 45.4375 843.483H46.3295C46.3409 843.655 46.3987 843.805 46.5028 843.932C46.6089 844.057 46.7472 844.153 46.9176 844.222C47.0881 844.29 47.2775 844.324 47.4858 844.324C47.715 844.324 47.9176 844.284 48.0938 844.205C48.2718 844.125 48.411 844.014 48.5114 843.872C48.6117 843.728 48.6619 843.562 48.6619 843.375C48.6619 843.18 48.6117 843.009 48.5114 842.861C48.4129 842.711 48.268 842.594 48.0767 842.509C47.8873 842.423 47.6581 842.381 47.3892 842.381H46.8977V841.665H47.3892C47.6051 841.665 47.7945 841.626 47.9574 841.548C48.1222 841.471 48.2509 841.363 48.3438 841.224C48.4366 841.084 48.483 840.92 48.483 840.733C48.483 840.553 48.4422 840.397 48.3608 840.264C48.2813 840.13 48.1676 840.025 48.0199 839.949C47.8741 839.873 47.7017 839.835 47.5028 839.835C47.3134 839.835 47.1364 839.87 46.9716 839.94C46.8087 840.009 46.6761 840.107 46.5739 840.236C46.4716 840.363 46.4167 840.515 46.4091 840.693H45.5597C45.5691 840.379 45.6619 840.102 45.8381 839.864C46.0161 839.625 46.2509 839.438 46.5426 839.304C46.8343 839.17 47.1581 839.102 47.5142 839.102C47.8873 839.102 48.2093 839.175 48.4801 839.321C48.7528 839.465 48.9631 839.657 49.1108 839.898C49.2604 840.138 49.3343 840.402 49.3324 840.688C49.3343 841.013 49.2434 841.29 49.0597 841.517C48.8778 841.744 48.6354 841.897 48.3324 841.974V842.02C48.7188 842.079 49.018 842.232 49.2301 842.48C49.4441 842.728 49.5502 843.036 49.5483 843.403C49.5502 843.723 49.4612 844.01 49.2812 844.264C49.1032 844.518 48.8598 844.718 48.5511 844.864C48.2424 845.008 47.8892 845.08 47.4915 845.08Z" fill="#637792"/>
<rect x="32" y="824" width="556" height="36" stroke="#F3F4F7"/>
<rect x="32" y="860" width="556" height="36" fill="white"/>
<path d="M40.5597 881V880.364L42.5284 878.324C42.7386 878.102 42.9119 877.908 43.0483 877.741C43.1866 877.573 43.2898 877.413 43.358 877.261C43.4261 877.11 43.4602 876.949 43.4602 876.778C43.4602 876.585 43.4148 876.419 43.3239 876.278C43.233 876.136 43.1089 876.027 42.9517 875.952C42.7945 875.874 42.6174 875.835 42.4205 875.835C42.2121 875.835 42.0303 875.878 41.875 875.963C41.7197 876.048 41.6004 876.169 41.517 876.324C41.4337 876.479 41.392 876.661 41.392 876.869H40.554C40.554 876.515 40.6354 876.205 40.7983 875.94C40.9612 875.675 41.1847 875.47 41.4688 875.324C41.7528 875.176 42.0758 875.102 42.4375 875.102C42.803 875.102 43.125 875.175 43.4034 875.321C43.6837 875.465 43.9025 875.662 44.0597 875.912C44.2169 876.16 44.2955 876.44 44.2955 876.753C44.2955 876.969 44.2547 877.18 44.1733 877.386C44.0938 877.593 43.9545 877.823 43.7557 878.077C43.5568 878.329 43.2803 878.634 42.9261 878.994L41.7699 880.205V880.247H44.3892V881H40.5597ZM45.2188 879.864V879.153L47.733 875.182H48.2926V876.227H47.9375L46.1392 879.074V879.119H49.5852V879.864H45.2188ZM47.9773 881V879.648L47.983 879.324V875.182H48.8153V881H47.9773Z" fill="#637792"/>
<rect x="32" y="860" width="556" height="36" stroke="#F3F4F7"/>
<rect x="32" y="896" width="556" height="36" fill="white"/>
<path d="M40.5597 917V916.364L42.5284 914.324C42.7386 914.102 42.9119 913.908 43.0483 913.741C43.1866 913.573 43.2898 913.413 43.358 913.261C43.4261 913.11 43.4602 912.949 43.4602 912.778C43.4602 912.585 43.4148 912.419 43.3239 912.278C43.233 912.136 43.1089 912.027 42.9517 911.952C42.7945 911.874 42.6174 911.835 42.4205 911.835C42.2121 911.835 42.0303 911.878 41.875 911.963C41.7197 912.048 41.6004 912.169 41.517 912.324C41.4337 912.479 41.392 912.661 41.392 912.869H40.554C40.554 912.515 40.6354 912.205 40.7983 911.94C40.9612 911.675 41.1847 911.47 41.4688 911.324C41.7528 911.176 42.0758 911.102 42.4375 911.102C42.803 911.102 43.125 911.175 43.4034 911.321C43.6837 911.465 43.9025 911.662 44.0597 911.912C44.2169 912.16 44.2955 912.44 44.2955 912.753C44.2955 912.969 44.2547 913.18 44.1733 913.386C44.0938 913.593 43.9545 913.823 43.7557 914.077C43.5568 914.329 43.2803 914.634 42.9261 914.994L41.7699 916.205V916.247H44.3892V917H40.5597ZM47.3864 917.08C47.0303 917.08 46.7102 917.011 46.4261 916.875C46.1439 916.737 45.9186 916.547 45.75 916.307C45.5814 916.066 45.4915 915.792 45.4801 915.483H46.3324C46.3532 915.733 46.464 915.938 46.6648 916.099C46.8655 916.26 47.1061 916.341 47.3864 916.341C47.6098 916.341 47.8078 916.29 47.9801 916.188C48.1544 916.083 48.2907 915.94 48.3892 915.759C48.4896 915.577 48.5398 915.369 48.5398 915.136C48.5398 914.9 48.4886 914.688 48.3864 914.503C48.2841 914.317 48.143 914.171 47.9631 914.065C47.785 913.959 47.5805 913.905 47.3494 913.903C47.1733 913.903 46.9962 913.934 46.8182 913.994C46.6402 914.055 46.4962 914.134 46.3864 914.233L45.5824 914.114L45.9091 911.182H49.108V911.935H46.6392L46.4545 913.562H46.4886C46.6023 913.453 46.7528 913.361 46.9403 913.287C47.1297 913.213 47.3324 913.176 47.5483 913.176C47.9025 913.176 48.2178 913.26 48.4943 913.429C48.7727 913.598 48.9915 913.828 49.1506 914.119C49.3116 914.409 49.3911 914.742 49.3892 915.119C49.3911 915.496 49.3059 915.832 49.1335 916.128C48.9631 916.423 48.7263 916.656 48.4233 916.827C48.1222 916.995 47.7765 917.08 47.3864 917.08Z" fill="#637792"/>
<rect x="32" y="896" width="556" height="36" stroke="#F3F4F7"/>
<rect x="32" y="932" width="556" height="36" fill="white"/>
<path d="M40.5597 953V952.364L42.5284 950.324C42.7386 950.102 42.9119 949.908 43.0483 949.741C43.1866 949.573 43.2898 949.413 43.358 949.261C43.4261 949.11 43.4602 948.949 43.4602 948.778C43.4602 948.585 43.4148 948.419 43.3239 948.278C43.233 948.136 43.1089 948.027 42.9517 947.952C42.7945 947.874 42.6174 947.835 42.4205 947.835C42.2121 947.835 42.0303 947.878 41.875 947.963C41.7197 948.048 41.6004 948.169 41.517 948.324C41.4337 948.479 41.392 948.661 41.392 948.869H40.554C40.554 948.515 40.6354 948.205 40.7983 947.94C40.9612 947.675 41.1847 947.47 41.4688 947.324C41.7528 947.176 42.0758 947.102 42.4375 947.102C42.803 947.102 43.125 947.175 43.4034 947.321C43.6837 947.465 43.9025 947.662 44.0597 947.912C44.2169 948.16 44.2955 948.44 44.2955 948.753C44.2955 948.969 44.2547 949.18 44.1733 949.386C44.0938 949.593 43.9545 949.823 43.7557 950.077C43.5568 950.329 43.2803 950.634 42.9261 950.994L41.7699 952.205V952.247H44.3892V953H40.5597ZM47.4972 953.08C47.2377 953.076 46.982 953.028 46.7301 952.938C46.4801 952.847 46.2528 952.695 46.0483 952.483C45.8438 952.271 45.6799 951.986 45.5568 951.628C45.4356 951.27 45.375 950.823 45.375 950.287C45.375 949.779 45.4252 949.329 45.5256 948.935C45.6278 948.541 45.7746 948.208 45.9659 947.938C46.1572 947.665 46.3883 947.457 46.6591 947.315C46.9299 947.173 47.2339 947.102 47.571 947.102C47.9176 947.102 48.2254 947.17 48.4943 947.307C48.7633 947.443 48.9811 947.632 49.1477 947.872C49.3163 948.113 49.4233 948.386 49.4688 948.693H48.6023C48.5436 948.451 48.4271 948.253 48.2528 948.099C48.0786 947.946 47.8513 947.869 47.571 947.869C47.1449 947.869 46.8125 948.055 46.5739 948.426C46.3371 948.797 46.2178 949.313 46.2159 949.974H46.2585C46.3589 949.81 46.482 949.67 46.6278 949.554C46.7756 949.437 46.9403 949.347 47.1222 949.284C47.3059 949.22 47.4991 949.188 47.7017 949.188C48.0388 949.188 48.3438 949.27 48.6165 949.435C48.8911 949.598 49.1098 949.823 49.2727 950.111C49.4356 950.399 49.517 950.728 49.517 951.099C49.517 951.471 49.4328 951.807 49.2642 952.108C49.0975 952.409 48.8627 952.648 48.5597 952.824C48.2566 952.998 47.9025 953.083 47.4972 953.08ZM47.4943 952.341C47.7178 952.341 47.9176 952.286 48.0938 952.176C48.2699 952.066 48.4091 951.919 48.5114 951.733C48.6136 951.547 48.6648 951.34 48.6648 951.111C48.6648 950.887 48.6146 950.684 48.5142 950.5C48.4157 950.316 48.2794 950.17 48.1051 950.062C47.9328 949.955 47.7358 949.901 47.5142 949.901C47.3456 949.901 47.1894 949.933 47.0455 949.997C46.9034 950.062 46.7784 950.151 46.6705 950.264C46.5625 950.378 46.4773 950.509 46.4148 950.656C46.3542 950.802 46.3239 950.956 46.3239 951.119C46.3239 951.337 46.3741 951.539 46.4744 951.724C46.5767 951.91 46.7159 952.06 46.892 952.173C47.0701 952.285 47.2708 952.341 47.4943 952.341Z" fill="#637792"/>
<rect x="32" y="932" width="556" height="36" stroke="#F3F4F7"/>
<rect x="32" y="968" width="556" height="36" fill="white"/>
<path d="M40.5597 989V988.364L42.5284 986.324C42.7386 986.102 42.9119 985.908 43.0483 985.741C43.1866 985.573 43.2898 985.413 43.358 985.261C43.4261 985.11 43.4602 984.949 43.4602 984.778C43.4602 984.585 43.4148 984.419 43.3239 984.278C43.233 984.136 43.1089 984.027 42.9517 983.952C42.7945 983.874 42.6174 983.835 42.4205 983.835C42.2121 983.835 42.0303 983.878 41.875 983.963C41.7197 984.048 41.6004 984.169 41.517 984.324C41.4337 984.479 41.392 984.661 41.392 984.869H40.554C40.554 984.515 40.6354 984.205 40.7983 983.94C40.9612 983.675 41.1847 983.47 41.4688 983.324C41.7528 983.176 42.0758 983.102 42.4375 983.102C42.803 983.102 43.125 983.175 43.4034 983.321C43.6837 983.465 43.9025 983.662 44.0597 983.912C44.2169 984.16 44.2955 984.44 44.2955 984.753C44.2955 984.969 44.2547 985.18 44.1733 985.386C44.0938 985.593 43.9545 985.823 43.7557 986.077C43.5568 986.329 43.2803 986.634 42.9261 986.994L41.7699 988.205V988.247H44.3892V989H40.5597ZM45.6619 989L48.2017 983.977V983.935H45.2642V983.182H49.1108V983.96L46.5795 989H45.6619Z" fill="#637792"/>
<rect x="32" y="968" width="556" height="36" stroke="#F3F4F7"/>
<rect x="32" y="1004" width="556" height="36" fill="white"/>
<path d="M40.5597 1025V1024.36L42.5284 1022.32C42.7386 1022.1 42.9119 1021.91 43.0483 1021.74C43.1866 1021.57 43.2898 1021.41 43.358 1021.26C43.4261 1021.11 43.4602 1020.95 43.4602 1020.78C43.4602 1020.59 43.4148 1020.42 43.3239 1020.28C43.233 1020.14 43.1089 1020.03 42.9517 1019.95C42.7945 1019.87 42.6174 1019.84 42.4205 1019.84C42.2121 1019.84 42.0303 1019.88 41.875 1019.96C41.7197 1020.05 41.6004 1020.17 41.517 1020.32C41.4337 1020.48 41.392 1020.66 41.392 1020.87H40.554C40.554 1020.52 40.6354 1020.21 40.7983 1019.94C40.9612 1019.68 41.1847 1019.47 41.4688 1019.32C41.7528 1019.18 42.0758 1019.1 42.4375 1019.1C42.803 1019.1 43.125 1019.18 43.4034 1019.32C43.6837 1019.46 43.9025 1019.66 44.0597 1019.91C44.2169 1020.16 44.2955 1020.44 44.2955 1020.75C44.2955 1020.97 44.2547 1021.18 44.1733 1021.39C44.0938 1021.59 43.9545 1021.82 43.7557 1022.08C43.5568 1022.33 43.2803 1022.63 42.9261 1022.99L41.7699 1024.2V1024.25H44.3892V1025H40.5597ZM47.4318 1025.08C47.0246 1025.08 46.6648 1025.01 46.3523 1024.87C46.0417 1024.73 45.7983 1024.54 45.6222 1024.29C45.446 1024.04 45.3589 1023.76 45.3608 1023.45C45.3589 1023.2 45.4091 1022.98 45.5114 1022.77C45.6155 1022.56 45.7566 1022.39 45.9347 1022.25C46.1127 1022.11 46.3116 1022.02 46.5312 1021.98V1021.95C46.2415 1021.88 46.0095 1021.72 45.8352 1021.48C45.661 1021.24 45.5748 1020.97 45.5767 1020.65C45.5748 1020.36 45.6534 1020.09 45.8125 1019.86C45.9735 1019.62 46.1941 1019.44 46.4744 1019.3C46.7547 1019.17 47.0739 1019.1 47.4318 1019.1C47.786 1019.1 48.1023 1019.17 48.3807 1019.31C48.661 1019.44 48.8816 1019.63 49.0426 1019.86C49.2036 1020.09 49.285 1020.36 49.2869 1020.65C49.285 1020.97 49.196 1021.24 49.0199 1021.48C48.8438 1021.72 48.6146 1021.88 48.3324 1021.95V1021.98C48.5502 1022.02 48.7462 1022.11 48.9205 1022.25C49.0966 1022.39 49.2367 1022.56 49.3409 1022.77C49.447 1022.98 49.5009 1023.2 49.5028 1023.45C49.5009 1023.76 49.4119 1024.04 49.2358 1024.29C49.0597 1024.54 48.8153 1024.73 48.5028 1024.87C48.1922 1025.01 47.8352 1025.08 47.4318 1025.08ZM47.4318 1024.36C47.6723 1024.36 47.8807 1024.32 48.0568 1024.24C48.233 1024.16 48.3693 1024.05 48.4659 1023.9C48.5625 1023.76 48.6117 1023.59 48.6136 1023.39C48.6117 1023.19 48.5587 1023.01 48.4545 1022.86C48.3523 1022.7 48.2131 1022.58 48.0369 1022.49C47.8608 1022.4 47.6591 1022.36 47.4318 1022.36C47.2027 1022.36 46.9991 1022.4 46.821 1022.49C46.643 1022.58 46.5028 1022.7 46.4006 1022.86C46.2983 1023.01 46.2481 1023.19 46.25 1023.39C46.2481 1023.59 46.2945 1023.76 46.3892 1023.9C46.4858 1024.05 46.6231 1024.16 46.8011 1024.24C46.9792 1024.32 47.1894 1024.36 47.4318 1024.36ZM47.4318 1021.65C47.625 1021.65 47.7964 1021.61 47.946 1021.54C48.0956 1021.46 48.2131 1021.35 48.2983 1021.21C48.3854 1021.07 48.4299 1020.91 48.4318 1020.73C48.4299 1020.55 48.3864 1020.39 48.3011 1020.25C48.2178 1020.11 48.1013 1020.01 47.9517 1019.93C47.8021 1019.86 47.6288 1019.82 47.4318 1019.82C47.2311 1019.82 47.0549 1019.86 46.9034 1019.93C46.7538 1020.01 46.6373 1020.11 46.554 1020.25C46.4706 1020.39 46.4299 1020.55 46.4318 1020.73C46.4299 1020.91 46.4716 1021.07 46.5568 1021.21C46.642 1021.35 46.7595 1021.46 46.9091 1021.54C47.0606 1021.61 47.2348 1021.65 47.4318 1021.65Z" fill="#637792"/>
<rect x="32" y="1004" width="556" height="36" stroke="#F3F4F7"/>
<rect x="32" y="1040" width="556" height="36" fill="white"/>
<path d="M40.5597 1061V1060.36L42.5284 1058.32C42.7386 1058.1 42.9119 1057.91 43.0483 1057.74C43.1866 1057.57 43.2898 1057.41 43.358 1057.26C43.4261 1057.11 43.4602 1056.95 43.4602 1056.78C43.4602 1056.59 43.4148 1056.42 43.3239 1056.28C43.233 1056.14 43.1089 1056.03 42.9517 1055.95C42.7945 1055.87 42.6174 1055.84 42.4205 1055.84C42.2121 1055.84 42.0303 1055.88 41.875 1055.96C41.7197 1056.05 41.6004 1056.17 41.517 1056.32C41.4337 1056.48 41.392 1056.66 41.392 1056.87H40.554C40.554 1056.52 40.6354 1056.21 40.7983 1055.94C40.9612 1055.68 41.1847 1055.47 41.4688 1055.32C41.7528 1055.18 42.0758 1055.1 42.4375 1055.1C42.803 1055.1 43.125 1055.18 43.4034 1055.32C43.6837 1055.46 43.9025 1055.66 44.0597 1055.91C44.2169 1056.16 44.2955 1056.44 44.2955 1056.75C44.2955 1056.97 44.2547 1057.18 44.1733 1057.39C44.0938 1057.59 43.9545 1057.82 43.7557 1058.08C43.5568 1058.33 43.2803 1058.63 42.9261 1058.99L41.7699 1060.2V1060.25H44.3892V1061H40.5597ZM47.4006 1055.1C47.66 1055.1 47.9157 1055.15 48.1676 1055.24C48.4195 1055.34 48.6468 1055.49 48.8494 1055.7C49.054 1055.91 49.2169 1056.19 49.3381 1056.55C49.4612 1056.91 49.5237 1057.35 49.5256 1057.88C49.5256 1058.39 49.4744 1058.84 49.3722 1059.24C49.2699 1059.64 49.1231 1059.97 48.9318 1060.24C48.7424 1060.52 48.5123 1060.72 48.2415 1060.87C47.9706 1061.01 47.6657 1061.08 47.3267 1061.08C46.9801 1061.08 46.6723 1061.01 46.4034 1060.88C46.1345 1060.74 45.9157 1060.55 45.7472 1060.31C45.5786 1060.07 45.4735 1059.79 45.4318 1059.47H46.2983C46.3551 1059.72 46.4706 1059.93 46.6449 1060.08C46.821 1060.24 47.0483 1060.31 47.3267 1060.31C47.7528 1060.31 48.0852 1060.13 48.3239 1059.76C48.5625 1059.38 48.6828 1058.86 48.6847 1058.19H48.6392C48.5407 1058.36 48.4176 1058.5 48.2699 1058.61C48.1241 1058.73 47.9602 1058.82 47.7784 1058.89C47.5966 1058.95 47.4025 1058.98 47.196 1058.98C46.8608 1058.98 46.5559 1058.9 46.2812 1058.74C46.0066 1058.57 45.7879 1058.34 45.625 1058.06C45.4621 1057.77 45.3807 1057.44 45.3807 1057.07C45.3807 1056.7 45.464 1056.37 45.6307 1056.07C45.7992 1055.77 46.0341 1055.54 46.3352 1055.36C46.6383 1055.18 46.9934 1055.1 47.4006 1055.1ZM47.4034 1055.84C47.1818 1055.84 46.982 1055.9 46.804 1056.01C46.6278 1056.11 46.4886 1056.26 46.3864 1056.45C46.2841 1056.63 46.233 1056.83 46.233 1057.06C46.233 1057.29 46.2822 1057.49 46.3807 1057.67C46.4811 1057.86 46.6174 1058 46.7898 1058.11C46.964 1058.21 47.1629 1058.27 47.3864 1058.27C47.553 1058.27 47.7083 1058.23 47.8523 1058.17C47.9962 1058.11 48.1222 1058.02 48.2301 1057.9C48.3381 1057.79 48.4223 1057.66 48.483 1057.51C48.5436 1057.37 48.5739 1057.21 48.5739 1057.05C48.5739 1056.84 48.5227 1056.64 48.4205 1056.45C48.3201 1056.27 48.1818 1056.12 48.0057 1056.01C47.8295 1055.9 47.6288 1055.84 47.4034 1055.84Z" fill="#637792"/>
<rect x="32" y="1040" width="556" height="36" stroke="#F3F4F7"/>
<path d="M32 1076H588V1104C588 1108.42 584.418 1112 580 1112H40C35.5817 1112 32 1108.42 32 1104V1076Z" fill="white"/>
<path d="M42.5852 1097.08C42.1951 1097.08 41.8466 1097.01 41.5398 1096.88C41.2348 1096.74 40.9934 1096.56 40.8153 1096.32C40.6392 1096.08 40.5445 1095.8 40.5312 1095.48H41.4233C41.4347 1095.66 41.4924 1095.8 41.5966 1095.93C41.7027 1096.06 41.8409 1096.15 42.0114 1096.22C42.1818 1096.29 42.3712 1096.32 42.5795 1096.32C42.8087 1096.32 43.0114 1096.28 43.1875 1096.2C43.3655 1096.12 43.5047 1096.01 43.6051 1095.87C43.7055 1095.73 43.7557 1095.56 43.7557 1095.38C43.7557 1095.18 43.7055 1095.01 43.6051 1094.86C43.5066 1094.71 43.3617 1094.59 43.1705 1094.51C42.9811 1094.42 42.7519 1094.38 42.483 1094.38H41.9915V1093.66H42.483C42.6989 1093.66 42.8883 1093.63 43.0511 1093.55C43.2159 1093.47 43.3447 1093.36 43.4375 1093.22C43.5303 1093.08 43.5767 1092.92 43.5767 1092.73C43.5767 1092.55 43.536 1092.4 43.4545 1092.26C43.375 1092.13 43.2614 1092.02 43.1136 1091.95C42.9678 1091.87 42.7955 1091.84 42.5966 1091.84C42.4072 1091.84 42.2301 1091.87 42.0653 1091.94C41.9025 1092.01 41.7699 1092.11 41.6676 1092.24C41.5653 1092.36 41.5104 1092.52 41.5028 1092.69H40.6534C40.6629 1092.38 40.7557 1092.1 40.9318 1091.86C41.1098 1091.62 41.3447 1091.44 41.6364 1091.3C41.928 1091.17 42.2519 1091.1 42.608 1091.1C42.9811 1091.1 43.303 1091.18 43.5739 1091.32C43.8466 1091.46 44.0568 1091.66 44.2045 1091.9C44.3542 1092.14 44.428 1092.4 44.4261 1092.69C44.428 1093.01 44.3371 1093.29 44.1534 1093.52C43.9716 1093.74 43.7292 1093.9 43.4261 1093.97V1094.02C43.8125 1094.08 44.1117 1094.23 44.3239 1094.48C44.5379 1094.73 44.6439 1095.04 44.642 1095.4C44.6439 1095.72 44.5549 1096.01 44.375 1096.26C44.197 1096.52 43.9536 1096.72 43.6449 1096.86C43.3362 1097.01 42.983 1097.08 42.5852 1097.08ZM47.7415 1097.1C47.2926 1097.09 46.9091 1096.98 46.5909 1096.74C46.2727 1096.51 46.0294 1096.16 45.8608 1095.72C45.6922 1095.27 45.608 1094.73 45.608 1094.09C45.608 1093.46 45.6922 1092.92 45.8608 1092.48C46.0313 1092.03 46.2756 1091.69 46.5938 1091.45C46.9138 1091.22 47.2964 1091.1 47.7415 1091.1C48.1866 1091.1 48.5682 1091.22 48.8864 1091.46C49.2045 1091.69 49.4479 1092.03 49.6165 1092.48C49.7869 1092.93 49.8722 1093.46 49.8722 1094.09C49.8722 1094.73 49.7879 1095.27 49.6193 1095.72C49.4508 1096.17 49.2074 1096.51 48.8892 1096.74C48.571 1096.98 48.1884 1097.1 47.7415 1097.1ZM47.7415 1096.34C48.1354 1096.34 48.4432 1096.15 48.6648 1095.76C48.8883 1095.38 49 1094.82 49 1094.09C49 1093.61 48.9489 1093.2 48.8466 1092.87C48.7462 1092.53 48.6013 1092.28 48.4119 1092.11C48.2244 1091.93 48.0009 1091.85 47.7415 1091.85C47.3494 1091.85 47.0417 1092.04 46.8182 1092.43C46.5947 1092.81 46.482 1093.37 46.4801 1094.09C46.4801 1094.58 46.5303 1094.99 46.6307 1095.32C46.733 1095.66 46.8778 1095.91 47.0653 1096.08C47.2528 1096.25 47.4782 1096.34 47.7415 1096.34Z" fill="#637792"/>
<path d="M32 1076H588V1104C588 1108.42 584.418 1112 580 1112H40C35.5817 1112 32 1108.42 32 1104V1076Z" stroke="#F3F4F7"/>
</svg>
