<svg width="206" height="144" viewBox="0 0 206 144" fill="none" xmlns="http://www.w3.org/2000/svg">
<rect width="206" height="144" fill="#F3F4F7"/>
<g clip-path="url(#clip0_411_195)">
<path d="M31.1628 52.1579C29.8548 52.1579 28.7483 51.8175 27.8434 51.1366C26.9386 50.4557 26.2487 49.5374 25.7739 48.3817C25.2991 47.2259 25.0616 45.9224 25.0616 44.471C25.0616 43.0107 25.2991 41.7072 25.7739 40.5604C26.2487 39.4047 26.952 38.4953 27.8838 37.8324C28.8155 37.1694 29.9578 36.8379 31.3106 36.8379C32.6276 36.8379 33.7519 37.1739 34.6837 37.8458C35.6154 38.5177 36.3232 39.4315 36.807 40.5873C37.2997 41.743 37.5461 43.0376 37.5461 44.471C37.5461 45.9224 37.2953 47.2304 36.7935 48.3951C36.3008 49.5508 35.5796 50.4691 34.6299 51.15C33.6892 51.8219 32.5335 52.1579 31.1628 52.1579ZM24.8063 58.2053V37.2411H26.2174V48.422H26.3518V58.2053H24.8063ZM31.0687 50.6797C32.1348 50.6797 33.0218 50.4064 33.7295 49.8599C34.4463 49.3134 34.9838 48.5743 35.3422 47.6425C35.7095 46.7018 35.8932 45.6447 35.8932 44.471C35.8932 43.3063 35.714 42.2626 35.3556 41.3398C35.0062 40.4081 34.4732 39.6734 33.7564 39.1359C33.0487 38.5894 32.1438 38.3161 31.0418 38.3161C29.9757 38.3161 29.0843 38.5804 28.3675 39.109C27.6508 39.6286 27.1133 40.3543 26.7549 41.2861C26.3966 42.2178 26.2174 43.2795 26.2174 44.471C26.2174 45.6536 26.3921 46.7153 26.7415 47.656C27.0998 48.5877 27.6374 49.3268 28.3541 49.8733C29.0798 50.4109 29.9847 50.6797 31.0687 50.6797ZM46.4555 52.1579C45.013 52.1579 43.7901 51.8309 42.7867 51.1769C41.7833 50.5229 41.0173 49.618 40.4887 48.4623C39.9601 47.3066 39.6958 45.9761 39.6958 44.471C39.6958 42.9569 39.9646 41.6265 40.5022 40.4798C41.0397 39.324 41.8102 38.4281 42.8136 37.792C43.826 37.1559 45.0399 36.8379 46.4555 36.8379C47.8979 36.8379 49.1208 37.1649 50.1242 37.8189C51.1366 38.464 51.9026 39.3599 52.4222 40.5066C52.9508 41.6534 53.2151 42.9749 53.2151 44.471C53.2151 46.003 52.9508 47.3469 52.4222 48.5026C51.8936 49.6494 51.1231 50.5453 50.1108 51.1903C49.0984 51.8354 47.8799 52.1579 46.4555 52.1579ZM46.4555 50.6528C48.1666 50.6528 49.4433 50.0794 50.2855 48.9326C51.1366 47.7859 51.5621 46.2987 51.5621 44.471C51.5621 42.6075 51.1366 41.1203 50.2855 40.0094C49.4343 38.8985 48.1577 38.343 46.4555 38.343C45.2997 38.343 44.3456 38.6073 43.593 39.1359C42.8405 39.6555 42.2761 40.3767 41.8998 41.2995C41.5324 42.2133 41.3488 43.2705 41.3488 44.471C41.3488 46.3345 41.7788 47.8307 42.6389 48.9595C43.5079 50.0884 44.7801 50.6528 46.4555 50.6528ZM56.1718 51.7547V37.2411H57.5828V40.7217L57.2334 40.2647C57.3947 39.8526 57.5963 39.4719 57.8382 39.1225C58.089 38.7641 58.3444 38.4729 58.6042 38.249C58.9894 37.8906 59.4419 37.6218 59.9615 37.4426C60.4811 37.2545 61.0052 37.147 61.5338 37.1201C62.0624 37.0843 62.5417 37.1246 62.9717 37.2411V38.7059C62.3983 38.5715 61.7891 38.5446 61.1441 38.6252C60.499 38.7059 59.8943 38.9836 59.3299 39.4584C58.8371 39.8885 58.4788 40.3902 58.2548 40.9635C58.0308 41.528 57.8875 42.1237 57.8247 42.7509C57.762 43.3691 57.7307 43.9738 57.7307 44.5651V51.7547H56.1718ZM73.2162 51.7547C72.4457 51.925 71.6842 51.9877 70.9316 51.9429C70.1791 51.907 69.5071 51.7413 68.9158 51.4457C68.3335 51.1411 67.8945 50.6752 67.5989 50.048C67.357 49.5374 67.2226 49.0222 67.1957 48.5026C67.1688 47.983 67.1554 47.3872 67.1554 46.7153V33.2095H68.7143V46.6884C68.7143 47.2976 68.7187 47.8038 68.7277 48.207C68.7456 48.6012 68.8397 48.964 69.0099 49.2955C69.3324 49.9137 69.8431 50.2899 70.5419 50.4243C71.2407 50.5498 72.1321 50.5274 73.2162 50.3571V51.7547ZM63.9032 38.6521V37.2411H73.2162V38.6521H63.9032ZM80.1813 52.1579C79.0614 52.1579 78.1297 51.9608 77.3861 51.5666C76.6514 51.1724 76.1005 50.6528 75.7331 50.0077C75.3658 49.3537 75.1822 48.6459 75.1822 47.8844C75.1822 47.0602 75.3524 46.3703 75.6928 45.8149C76.0422 45.2594 76.5036 44.8115 77.077 44.471C77.6593 44.1306 78.2999 43.8752 78.9987 43.705C79.7961 43.5258 80.6561 43.3735 81.5789 43.2481C82.5017 43.1137 83.3797 42.9973 84.2129 42.8987C85.055 42.8002 85.7404 42.715 86.269 42.6434L85.7046 42.9793C85.7404 41.4115 85.4448 40.2468 84.8176 39.4853C84.1995 38.7148 83.1064 38.3296 81.5386 38.3296C80.4366 38.3296 79.5273 38.5804 78.8106 39.0821C78.1028 39.5749 77.6056 40.3409 77.3189 41.3801L75.7331 40.9367C76.0646 39.6197 76.7321 38.6073 77.7355 37.8995C78.7389 37.1918 80.0245 36.8379 81.5924 36.8379C82.9273 36.8379 84.0471 37.0977 84.952 37.6173C85.8658 38.137 86.5019 38.8671 86.8603 39.8078C87.0126 40.1931 87.1156 40.6455 87.1694 41.1651C87.2231 41.6758 87.25 42.1909 87.25 42.7106V51.7547H85.839V47.9382L86.3631 48.0726C85.9241 49.3806 85.1581 50.3885 84.0651 51.0963C82.9721 51.804 81.6775 52.1579 80.1813 52.1579ZM80.2619 50.7334C81.2474 50.7334 82.112 50.5587 82.8556 50.2093C83.5992 49.8509 84.1995 49.3537 84.6564 48.7176C85.1222 48.0726 85.4179 47.3155 85.5433 46.4465C85.6329 45.9627 85.6822 45.4386 85.6911 44.8742C85.7001 44.3098 85.7046 43.8932 85.7046 43.6244L86.3765 44.0544C85.7942 44.1261 85.0954 44.2023 84.2801 44.2829C83.4738 44.3635 82.6495 44.4621 81.8074 44.5785C80.9652 44.695 80.2037 44.8428 79.5228 45.022C79.1017 45.1385 78.6762 45.3087 78.2462 45.5327C77.8251 45.7477 77.4712 46.0478 77.1845 46.4331C76.9068 46.8183 76.7679 47.3066 76.7679 47.8979C76.7679 48.3369 76.8754 48.7759 77.0904 49.2149C77.3144 49.6538 77.6817 50.0167 78.1924 50.3034C78.7031 50.5901 79.3929 50.7334 80.2619 50.7334ZM91.0082 51.7547V32H92.5537V51.7547H91.0082ZM30.5043 79.0351C29.1515 79.0351 27.9913 78.6991 27.0237 78.0272C26.0561 77.3463 25.308 76.428 24.7794 75.2723C24.2598 74.1166 24 72.813 24 71.3617C24 69.9103 24.2598 68.6068 24.7794 67.451C25.308 66.2953 26.0561 65.386 27.0237 64.723C27.9913 64.0511 29.147 63.7151 30.4908 63.7151C31.8616 63.7151 33.0128 64.0466 33.9446 64.7096C34.8763 65.3725 35.5796 66.2819 36.0544 67.4376C36.5382 68.5933 36.7801 69.9013 36.7801 71.3617C36.7801 72.8041 36.5382 74.1076 36.0544 75.2723C35.5796 76.428 34.8763 77.3463 33.9446 78.0272C33.0128 78.6991 31.8661 79.0351 30.5043 79.0351ZM30.7999 76.8446C31.7765 76.8446 32.5783 76.6117 33.2054 76.1458C33.8326 75.671 34.294 75.0214 34.5896 74.1972C34.8942 73.364 35.0465 72.4188 35.0465 71.3617C35.0465 70.2866 34.8942 69.3414 34.5896 68.5261C34.294 67.7019 33.8371 67.0613 33.2189 66.6044C32.6007 66.1385 31.8168 65.9056 30.8671 65.9056C29.8816 65.9056 29.0664 66.1475 28.4213 66.6313C27.7852 67.1151 27.3104 67.7691 26.9968 68.5933C26.6922 69.4175 26.5399 70.3403 26.5399 71.3617C26.5399 72.392 26.6967 73.3237 27.0102 74.1569C27.3238 74.9811 27.7942 75.6351 28.4213 76.1189C29.0574 76.6027 29.8503 76.8446 30.7999 76.8446ZM35.0465 78.632V67.9483H34.7778V59.2804H37.1833V78.632H35.0465ZM45.0741 79.0351C43.99 79.0351 43.0807 78.838 42.346 78.4438C41.6204 78.0407 41.0694 77.5121 40.6931 76.8581C40.3258 76.204 40.1421 75.4873 40.1421 74.7079C40.1421 73.9464 40.2855 73.2879 40.5721 72.7324C40.8678 72.168 41.2799 71.7021 41.8085 71.3348C42.3371 70.9585 42.9687 70.6629 43.7033 70.4478C44.3932 70.2597 45.1637 70.0984 46.0148 69.9641C46.8749 69.8207 47.7439 69.6908 48.6219 69.5743C49.4999 69.4579 50.3196 69.3459 51.0811 69.2384L50.2211 69.7356C50.2479 68.4455 49.9881 67.4913 49.4416 66.8732C48.9041 66.255 47.9723 65.9459 46.6464 65.9459C45.7684 65.9459 44.9979 66.1475 44.335 66.5506C43.6809 66.9448 43.2196 67.5899 42.9508 68.4858L40.6797 67.8004C41.0291 66.5282 41.7055 65.5293 42.7089 64.8036C43.7123 64.0779 45.0338 63.7151 46.6733 63.7151C47.9903 63.7151 49.1191 63.9525 50.0598 64.4273C51.0095 64.8932 51.6904 65.601 52.1025 66.5506C52.3085 66.9986 52.4384 67.4869 52.4922 68.0155C52.5459 68.5351 52.5728 69.0816 52.5728 69.655V78.632H50.4495V75.1513L50.9468 75.4739C50.4002 76.6475 49.6342 77.5345 48.6488 78.1347C47.6722 78.735 46.4807 79.0351 45.0741 79.0351ZM45.4369 77.0328C46.297 77.0328 47.0406 76.8805 47.6677 76.5758C48.3038 76.2623 48.8145 75.8546 49.1997 75.3529C49.585 74.8423 49.8358 74.2868 49.9523 73.6865C50.0867 73.2386 50.1584 72.7414 50.1673 72.1949C50.1852 71.6394 50.1942 71.2138 50.1942 70.9182L51.0274 71.281C50.2479 71.3885 49.4819 71.4916 48.7294 71.5901C47.9768 71.6887 47.2646 71.7962 46.5926 71.9126C45.9207 72.0202 45.316 72.1501 44.7784 72.3024C44.3842 72.4278 44.0124 72.5891 43.663 72.7862C43.3226 72.9833 43.0449 73.2386 42.8298 73.5522C42.6238 73.8568 42.5207 74.2375 42.5207 74.6944C42.5207 75.0886 42.6193 75.4649 42.8164 75.8233C43.0225 76.1816 43.336 76.4728 43.7571 76.6968C44.1871 76.9208 44.7471 77.0328 45.4369 77.0328ZM61.5498 79.0217C59.8207 79.0217 58.4007 78.6454 57.2898 77.8928C56.1878 77.1313 55.5114 76.0697 55.2605 74.7079L57.7064 74.3182C57.9035 75.1066 58.3559 75.7337 59.0637 76.1996C59.7714 76.6565 60.6494 76.8849 61.6976 76.8849C62.6921 76.8849 63.4715 76.6789 64.0359 76.2668C64.6004 75.8546 64.8826 75.2947 64.8826 74.5869C64.8826 74.1748 64.7885 73.8433 64.6004 73.5925C64.4122 73.3327 64.0225 73.0908 63.4312 72.8668C62.8489 72.6428 61.9664 72.374 60.7838 72.0605C59.5027 71.72 58.4948 71.3661 57.7601 70.9988C57.0255 70.6315 56.5014 70.2059 56.1878 69.7222C55.8742 69.2384 55.7175 68.6515 55.7175 67.9617C55.7175 67.1106 55.9504 66.367 56.4163 65.7309C56.8821 65.0858 57.5317 64.5886 58.3649 64.2392C59.207 63.8898 60.1836 63.7151 61.2945 63.7151C62.3964 63.7151 63.3819 63.8898 64.251 64.2392C65.12 64.5886 65.8188 65.0858 66.3474 65.7309C66.8849 66.367 67.203 67.1106 67.3015 67.9617L64.8557 68.4052C64.7392 67.6257 64.363 67.012 63.7269 66.5641C63.0997 66.1161 62.2889 65.8787 61.2945 65.8518C60.3538 65.816 59.5878 65.9817 58.9965 66.3491C58.4141 66.7164 58.123 67.2136 58.123 67.8408C58.123 68.1902 58.2305 68.4903 58.4455 68.7411C58.6695 68.992 59.0771 69.2294 59.6684 69.4534C60.2687 69.6774 61.1377 69.9327 62.2755 70.2194C63.5566 70.5419 64.5645 70.8958 65.2992 71.281C66.0428 71.6573 66.5714 72.1053 66.8849 72.6249C67.1985 73.1356 67.3553 73.7672 67.3553 74.5197C67.3553 75.9174 66.8401 77.0193 65.8098 77.8256C64.7796 78.623 63.3595 79.0217 61.5498 79.0217Z" fill="#1C1F24"/>
<path d="M24.8064 105.509V90.9955H27.6688V94.5298L27.3194 94.0729C27.4986 93.5891 27.736 93.1501 28.0317 92.7559C28.3363 92.3528 28.6991 92.0213 29.1202 91.7615C29.4786 91.5196 29.8727 91.3314 30.3028 91.197C30.7418 91.0537 31.1897 90.9686 31.6466 90.9417C32.1036 90.9059 32.547 90.9238 32.9771 90.9955V94.0191C32.547 93.8937 32.0498 93.8534 31.4854 93.8982C30.9299 93.943 30.4282 94.0998 29.9803 94.3685C29.5323 94.6104 29.165 94.9195 28.8783 95.2958C28.6006 95.6721 28.3945 96.1021 28.2601 96.5859C28.1257 97.0608 28.0585 97.5759 28.0585 98.1314V105.509H24.8064ZM41.8775 105.912C40.4082 105.912 39.1181 105.594 38.0071 104.958C36.8962 104.322 36.0272 103.44 35.4 102.311C34.7819 101.182 34.4728 99.8829 34.4728 98.4136C34.4728 96.8278 34.7774 95.4526 35.3866 94.2879C35.9958 93.1143 36.8425 92.2049 37.9265 91.5599C39.0106 90.9148 40.2648 90.5923 41.6893 90.5923C43.1944 90.5923 44.4711 90.9462 45.5193 91.654C46.5765 92.3528 47.3604 93.3427 47.8711 94.6239C48.3817 95.905 48.5744 97.4146 48.4489 99.1527H45.2371V97.9701C45.2281 96.3933 44.9504 95.2421 44.4039 94.5164C43.8574 93.7907 42.9973 93.4278 41.8237 93.4278C40.4978 93.4278 39.5123 93.84 38.8672 94.6642C38.2222 95.4795 37.8996 96.6755 37.8996 98.2523C37.8996 99.7216 38.2222 100.859 38.8672 101.666C39.5123 102.472 40.453 102.875 41.6893 102.875C42.4867 102.875 43.172 102.7 43.7454 102.351C44.3278 101.993 44.7757 101.478 45.0893 100.806L48.2877 101.773C47.7322 103.081 46.8721 104.098 45.7075 104.824C44.5517 105.549 43.2751 105.912 41.8775 105.912ZM36.8783 99.1527V96.7069H46.8632V99.1527H36.8783ZM57.2663 105.912C55.9314 105.912 54.7668 105.576 53.7723 104.904C52.7778 104.232 52.0074 103.319 51.4609 102.163C50.9144 101.007 50.6411 99.7037 50.6411 98.2523C50.6411 96.783 50.9144 95.475 51.4609 94.3282C52.0163 93.1725 52.8002 92.2632 53.8126 91.6002C54.825 90.9283 56.0165 90.5923 57.3873 90.5923C58.767 90.5923 59.9227 90.9283 60.8544 91.6002C61.7951 92.2632 62.5074 93.1725 62.9912 94.3282C63.475 95.484 63.7169 96.792 63.7169 98.2523C63.7169 99.6947 63.475 100.998 62.9912 102.163C62.5074 103.319 61.7862 104.232 60.8276 104.904C59.8689 105.576 58.6819 105.912 57.2663 105.912ZM57.7636 103.01C58.6326 103.01 59.3314 102.812 59.86 102.418C60.3975 102.015 60.7872 101.455 61.0291 100.738C61.28 100.022 61.4054 99.193 61.4054 98.2523C61.4054 97.3026 61.28 96.4739 61.0291 95.7662C60.7872 95.0494 60.4065 94.494 59.8869 94.0998C59.3672 93.6966 58.6953 93.495 57.8711 93.495C57.002 93.495 56.2853 93.7101 55.7209 94.1401C55.1565 94.5612 54.7399 95.1345 54.4711 95.8602C54.2023 96.577 54.0679 97.3743 54.0679 98.2523C54.0679 99.1393 54.1979 99.9456 54.4577 100.671C54.7264 101.388 55.1341 101.957 55.6806 102.378C56.2271 102.799 56.9214 103.01 57.7636 103.01ZM61.4054 105.509V95.3227H61.0023V86.1576H64.2678V105.509H61.4054ZM72.0942 105.912C71.0459 105.912 70.159 105.715 69.4333 105.321C68.7076 104.918 68.1566 104.385 67.7804 103.722C67.413 103.059 67.2294 102.329 67.2294 101.531C67.2294 100.833 67.3458 100.205 67.5788 99.6499C67.8117 99.0855 68.1701 98.6017 68.6539 98.1986C69.1377 97.7864 69.7648 97.4505 70.5353 97.1907C71.1176 97.0025 71.7985 96.8323 72.5779 96.68C73.3663 96.5277 74.2174 96.3888 75.1313 96.2634C76.0541 96.129 77.0172 95.9857 78.0206 95.8334L76.8649 96.4919C76.8738 95.4884 76.6498 94.7493 76.1929 94.2745C75.736 93.7996 74.9655 93.5622 73.8815 93.5622C73.2275 93.5622 72.5959 93.7145 71.9866 94.0191C71.3774 94.3238 70.9519 94.8479 70.71 95.5915L67.7535 94.6642C68.1118 93.4368 68.7927 92.4513 69.7962 91.7077C70.8085 90.9641 72.1703 90.5923 73.8815 90.5923C75.1716 90.5923 76.3049 90.8028 77.2815 91.2239C78.2669 91.645 78.9971 92.3348 79.4719 93.2935C79.7318 93.8041 79.8885 94.3282 79.9423 94.8658C79.996 95.3944 80.0229 95.9722 80.0229 96.5994V105.509H77.1874V102.365L77.6577 102.875C77.0037 103.923 76.2377 104.694 75.3597 105.187C74.4907 105.67 73.4022 105.912 72.0942 105.912ZM72.7392 103.332C73.4739 103.332 74.101 103.202 74.6206 102.942C75.1402 102.683 75.5523 102.365 75.857 101.988C76.1705 101.612 76.3811 101.258 76.4886 100.927C76.6588 100.514 76.7529 100.044 76.7708 99.5155C76.7977 98.978 76.8111 98.5435 76.8111 98.212L77.8056 98.5076C76.829 98.6599 75.9913 98.7943 75.2925 98.9108C74.5937 99.0273 73.9935 99.1393 73.4918 99.2468C72.9901 99.3453 72.5466 99.4573 72.1613 99.5827C71.7851 99.7171 71.467 99.8739 71.2072 100.053C70.9474 100.232 70.7458 100.438 70.6025 100.671C70.4681 100.904 70.4009 101.177 70.4009 101.491C70.4009 101.849 70.4905 102.167 70.6697 102.445C70.8488 102.714 71.1087 102.929 71.4491 103.09C71.7985 103.251 72.2285 103.332 72.7392 103.332ZM89.3539 112C88.9955 112 88.6596 111.951 88.346 111.852C88.0414 111.763 87.7592 111.651 87.4994 111.516L88.2116 109.594C88.5789 109.72 88.8656 109.783 89.0717 109.783C89.3405 109.783 89.5465 109.702 89.6899 109.541C89.8422 109.388 89.9183 109.227 89.9183 109.057C89.9183 108.708 89.7392 108.452 89.3808 108.291C89.0314 108.13 88.6237 107.982 88.1579 107.847L89.112 105.093L91.0741 105.079L90.5365 106.638C91.0561 106.889 91.4593 107.22 91.746 107.632C92.0327 108.045 92.176 108.542 92.176 109.124C92.176 109.975 91.8938 110.665 91.3294 111.194C90.7739 111.731 90.1154 112 89.3539 112ZM89.8243 105.912C88.3281 105.912 87.0514 105.581 85.9943 104.918C84.9371 104.246 84.1263 103.332 83.5619 102.176C83.0064 101.021 82.7242 99.7126 82.7152 98.2523C82.7242 96.7651 83.0154 95.4481 83.5887 94.3014C84.1711 93.1456 84.9953 92.2408 86.0615 91.5868C87.1276 90.9238 88.3953 90.5923 89.8646 90.5923C91.513 90.5923 92.9062 91.0089 94.044 91.8421C95.1907 92.6663 95.9388 93.7952 96.2882 95.2286L93.063 96.1021C92.8121 95.3227 92.3955 94.718 91.8132 94.2879C91.2308 93.8489 90.5679 93.6294 89.8243 93.6294C88.9821 93.6294 88.2878 93.831 87.7413 94.2342C87.1948 94.6284 86.7916 95.1749 86.5318 95.8737C86.272 96.5725 86.1421 97.3654 86.1421 98.2523C86.1421 99.632 86.4512 100.747 87.0693 101.599C87.6875 102.45 88.6058 102.875 89.8243 102.875C90.6843 102.875 91.3607 102.678 91.8535 102.284C92.3552 101.89 92.7315 101.321 92.9823 100.577L96.2882 101.316C95.8403 102.795 95.0564 103.932 93.9365 104.73C92.8166 105.518 91.4459 105.912 89.8243 105.912ZM107.269 88.8453C106.839 88.8453 106.431 88.7512 106.046 88.5631C105.661 88.3749 105.289 88.1599 104.93 87.918C104.572 87.6672 104.236 87.4477 103.923 87.2595C103.618 87.0714 103.336 86.9773 103.076 86.9773C102.78 86.9773 102.583 87.1251 102.485 87.4208C102.386 87.7075 102.391 88.0614 102.498 88.4824H100.455C100.205 87.4074 100.267 86.498 100.644 85.7544C101.029 85.0018 101.741 84.6256 102.78 84.6256C103.21 84.6256 103.618 84.7196 104.003 84.9078C104.397 85.0959 104.769 85.3154 105.119 85.5663C105.477 85.8082 105.808 86.0232 106.113 86.2113C106.427 86.3995 106.718 86.4935 106.987 86.4935C107.264 86.4935 107.457 86.3502 107.564 86.0635C107.681 85.7678 107.676 85.405 107.551 84.975H109.594C109.862 86.0411 109.804 86.9549 109.419 87.7164C109.034 88.469 108.317 88.8453 107.269 88.8453ZM104.998 105.912C103.546 105.912 102.279 105.585 101.195 104.931C100.111 104.277 99.2684 103.377 98.6681 102.23C98.0768 101.074 97.7811 99.7485 97.7811 98.2523C97.7811 96.7293 98.0857 95.3944 98.695 94.2476C99.3042 93.1008 100.151 92.2049 101.235 91.5599C102.319 90.9148 103.573 90.5923 104.998 90.5923C106.458 90.5923 107.73 90.9193 108.814 91.5733C109.898 92.2273 110.74 93.1322 111.341 94.2879C111.941 95.4347 112.241 96.7561 112.241 98.2523C112.241 99.7574 111.936 101.088 111.327 102.244C110.727 103.39 109.885 104.291 108.801 104.945C107.717 105.59 106.449 105.912 104.998 105.912ZM104.998 102.875C106.288 102.875 107.246 102.445 107.874 101.585C108.501 100.725 108.814 99.6141 108.814 98.2523C108.814 96.8457 108.496 95.7258 107.86 94.8927C107.224 94.0505 106.27 93.6294 104.998 93.6294C104.129 93.6294 103.412 93.8265 102.847 94.2207C102.292 94.606 101.88 95.148 101.611 95.8468C101.342 96.5366 101.208 97.3385 101.208 98.2523C101.208 99.6589 101.526 100.783 102.162 101.625C102.807 102.459 103.752 102.875 104.998 102.875ZM121.8 105.912C120.331 105.912 119.041 105.594 117.93 104.958C116.819 104.322 115.95 103.44 115.323 102.311C114.705 101.182 114.396 99.8829 114.396 98.4136C114.396 96.8278 114.7 95.4526 115.31 94.2879C115.919 93.1143 116.765 92.2049 117.849 91.5599C118.934 90.9148 120.188 90.5923 121.612 90.5923C123.117 90.5923 124.394 90.9462 125.442 91.654C126.499 92.3528 127.283 93.3427 127.794 94.6239C128.305 95.905 128.497 97.4146 128.372 99.1527H125.16V97.9701C125.151 96.3933 124.873 95.2421 124.327 94.5164C123.78 93.7907 122.92 93.4278 121.747 93.4278C120.421 93.4278 119.435 93.84 118.79 94.6642C118.145 95.4795 117.823 96.6755 117.823 98.2523C117.823 99.7216 118.145 100.859 118.79 101.666C119.435 102.472 120.376 102.875 121.612 102.875C122.41 102.875 123.095 102.7 123.668 102.351C124.251 101.993 124.699 101.478 125.012 100.806L128.211 101.773C127.655 103.081 126.795 104.098 125.63 104.824C124.475 105.549 123.198 105.912 121.8 105.912ZM116.801 99.1527V96.7069H126.786V99.1527H116.801ZM136.974 105.912C135.182 105.912 133.727 105.509 132.607 104.703C131.487 103.897 130.806 102.763 130.564 101.303L133.87 100.792C134.04 101.509 134.416 102.073 134.998 102.485C135.581 102.898 136.315 103.104 137.202 103.104C137.982 103.104 138.582 102.951 139.003 102.647C139.433 102.333 139.648 101.908 139.648 101.37C139.648 101.039 139.568 100.774 139.406 100.577C139.254 100.371 138.914 100.174 138.385 99.9859C137.856 99.7977 137.046 99.5603 135.953 99.2736C134.735 98.9511 133.767 98.6062 133.05 98.2389C132.333 97.8626 131.818 97.4191 131.505 96.9084C131.191 96.3978 131.034 95.7796 131.034 95.0539C131.034 94.1491 131.272 93.3607 131.747 92.6887C132.221 92.0168 132.884 91.5016 133.736 91.1433C134.587 90.776 135.59 90.5923 136.745 90.5923C137.874 90.5923 138.873 90.767 139.742 91.1164C140.62 91.4658 141.328 91.963 141.866 92.6081C142.403 93.2531 142.735 94.0102 142.86 94.8792L139.554 95.4705C139.474 94.8523 139.191 94.3641 138.708 94.0057C138.233 93.6473 137.597 93.4458 136.799 93.401C136.038 93.3562 135.424 93.4726 134.958 93.7504C134.493 94.0191 134.26 94.3999 134.26 94.8927C134.26 95.1704 134.354 95.4078 134.542 95.6049C134.73 95.802 135.106 95.9991 135.67 96.1962C136.244 96.3933 137.095 96.6352 138.224 96.9219C139.379 97.2175 140.302 97.558 140.992 97.9432C141.691 98.3195 142.193 98.7719 142.497 99.3005C142.811 99.8291 142.968 100.47 142.968 101.222C142.968 102.683 142.434 103.829 141.368 104.663C140.311 105.496 138.846 105.912 136.974 105.912Z" fill="#4B1DF2"/>
</g>
<defs>
<clipPath id="clip0_411_195">
<rect width="118.967" height="80" fill="white" transform="translate(24 32)"/>
</clipPath>
</defs>
</svg>
