<svg width="207" height="81" viewBox="0 0 207 81" fill="none" xmlns="http://www.w3.org/2000/svg">
<mask id="path-1-outside-1_12_134" maskUnits="userSpaceOnUse" x="0" y="0" width="207" height="81" fill="black">
<rect fill="white" width="207" height="81"/>
<path d="M0 0H206V80H0V0Z"/>
</mask>
<path d="M0 0H206V80H0V0Z" fill="white"/>
<g clip-path="url(#clip0_12_134)">
<path d="M28.2351 46.2094C27.3636 46.2094 26.6264 45.9826 26.0235 45.5289C25.4206 45.0753 24.961 44.4634 24.6447 43.6934C24.3283 42.9234 24.1701 42.0549 24.1701 41.0879C24.1701 40.115 24.3283 39.2465 24.6447 38.4824C24.961 37.7124 25.4296 37.1065 26.0504 36.6648C26.6712 36.2231 27.4322 36.0023 28.3336 36.0023C29.211 36.0023 29.9601 36.2261 30.5809 36.6738C31.2017 37.1215 31.6732 37.7303 31.9956 38.5003C32.3239 39.2703 32.488 40.1329 32.488 41.0879C32.488 42.0549 32.3209 42.9264 31.9866 43.7024C31.6583 44.4724 31.1778 45.0842 30.5451 45.5379C29.9183 45.9855 29.1483 46.2094 28.2351 46.2094ZM24 50.2385V36.2709H24.9401V43.7203H25.0297V50.2385H24ZM28.1724 45.2245C28.8827 45.2245 29.4736 45.0424 29.9452 44.6783C30.4227 44.3142 30.7809 43.8218 31.0196 43.201C31.2644 42.5742 31.3867 41.8699 31.3867 41.0879C31.3867 40.3119 31.2674 39.6165 31.0286 39.0017C30.7958 38.3809 30.4406 37.8915 29.9631 37.5333C29.4916 37.1692 28.8887 36.9872 28.1545 36.9872C27.4442 36.9872 26.8502 37.1632 26.3727 37.5154C25.8952 37.8616 25.537 38.3451 25.2983 38.9659C25.0595 39.5867 24.9401 40.294 24.9401 41.0879C24.9401 41.8758 25.0565 42.5832 25.2893 43.2099C25.5281 43.8307 25.8862 44.3232 26.3638 44.6873C26.8472 45.0454 27.4501 45.2245 28.1724 45.2245ZM38.424 46.2094C37.463 46.2094 36.6482 45.9915 35.9796 45.5558C35.3111 45.12 34.8007 44.5172 34.4486 43.7471C34.0964 42.9771 33.9203 42.0907 33.9203 41.0879C33.9203 40.0791 34.0994 39.1927 34.4575 38.4287C34.8157 37.6587 35.329 37.0618 35.9975 36.638C36.6721 36.2142 37.4809 36.0023 38.424 36.0023C39.385 36.0023 40.1998 36.2201 40.8683 36.6559C41.5428 37.0857 42.0532 37.6826 42.3994 38.4466C42.7516 39.2106 42.9276 40.0911 42.9276 41.0879C42.9276 42.1086 42.7516 43.004 42.3994 43.774C42.0472 44.538 41.5339 45.135 40.8594 45.5647C40.1849 45.9945 39.3731 46.2094 38.424 46.2094ZM38.424 45.2066C39.5641 45.2066 40.4147 44.8246 40.9758 44.0605C41.5428 43.2965 41.8264 42.3056 41.8264 41.0879C41.8264 39.8464 41.5428 38.8555 40.9758 38.1153C40.4087 37.3752 39.5581 37.0051 38.424 37.0051C37.654 37.0051 37.0183 37.1812 36.5169 37.5333C36.0155 37.8795 35.6394 38.36 35.3887 38.9749C35.144 39.5837 35.0216 40.2881 35.0216 41.0879C35.0216 42.3295 35.3081 43.3263 35.8812 44.0784C36.4602 44.8305 37.3078 45.2066 38.424 45.2066ZM44.8976 45.9408V36.2709H45.8377V38.5899L45.6049 38.2854C45.7124 38.0109 45.8467 37.7572 46.0078 37.5244C46.175 37.2856 46.3451 37.0916 46.5182 36.9424C46.7749 36.7036 47.0763 36.5246 47.4225 36.4052C47.7687 36.2798 48.1179 36.2082 48.4701 36.1903C48.8223 36.1664 49.1416 36.1933 49.4281 36.2709V37.2468C49.0461 37.1573 48.6402 37.1394 48.2104 37.1931C47.7807 37.2468 47.3777 37.4319 47.0017 37.7482C46.6734 38.0347 46.4346 38.369 46.2854 38.751C46.1362 39.1271 46.0407 39.524 45.9989 39.9419C45.9571 40.3537 45.9362 40.7566 45.9362 41.1506V45.9408H44.8976ZM56.2536 45.9408C55.7403 46.0542 55.2329 46.096 54.7315 46.0661C54.2301 46.0423 53.7824 45.9318 53.3885 45.7348C53.0005 45.5319 52.708 45.2215 52.511 44.8037C52.3498 44.4634 52.2603 44.1202 52.2424 43.774C52.2245 43.4278 52.2155 43.0309 52.2155 42.5832V33.5848H53.2542V42.5653C53.2542 42.9712 53.2571 43.3084 53.2631 43.577C53.275 43.8397 53.3377 44.0814 53.4511 44.3023C53.666 44.7141 54.0063 44.9648 54.4718 45.0544C54.9374 45.1379 55.5314 45.123 56.2536 45.0096V45.9408ZM50.0488 37.211V36.2709H56.2536V37.211H50.0488ZM60.8942 46.2094C60.1481 46.2094 59.5273 46.0781 59.0318 45.8154C58.5424 45.5528 58.1753 45.2066 57.9305 44.7768C57.6858 44.3411 57.5635 43.8695 57.5635 43.3621C57.5635 42.813 57.6769 42.3534 57.9037 41.9833C58.1365 41.6132 58.4439 41.3147 58.8259 41.0879C59.2139 40.8611 59.6407 40.691 60.1063 40.5776C60.6375 40.4582 61.2106 40.3567 61.8254 40.2731C62.4402 40.1836 63.0252 40.106 63.5803 40.0403C64.1414 39.9747 64.598 39.918 64.9502 39.8702L64.5741 40.0941C64.598 39.0495 64.401 38.2735 63.9832 37.7661C63.5713 37.2528 62.8431 36.9961 61.7985 36.9961C61.0643 36.9961 60.4585 37.1632 59.9809 37.4975C59.5094 37.8258 59.1781 38.3362 58.9871 39.0286L57.9305 38.7331C58.1514 37.8557 58.5961 37.1812 59.2646 36.7096C59.9332 36.238 60.7897 36.0023 61.8343 36.0023C62.7237 36.0023 63.4699 36.1754 64.0727 36.5216C64.6816 36.8678 65.1054 37.3543 65.3441 37.981C65.4456 38.2377 65.5143 38.5391 65.5501 38.8853C65.5859 39.2256 65.6038 39.5688 65.6038 39.915V45.9408H64.6637V43.398L65.0129 43.4875C64.7204 44.359 64.21 45.0305 63.4818 45.5021C62.7536 45.9736 61.891 46.2094 60.8942 46.2094ZM60.9479 45.2603C61.6045 45.2603 62.1805 45.1439 62.676 44.9111C63.1714 44.6723 63.5713 44.3411 63.8758 43.9173C64.1861 43.4875 64.3831 42.9831 64.4667 42.4041C64.5264 42.0818 64.5592 41.7326 64.5652 41.3565C64.5711 40.9805 64.5741 40.7029 64.5741 40.5238L65.0218 40.8104C64.6338 40.8581 64.1682 40.9088 63.625 40.9626C63.0878 41.0163 62.5387 41.0819 61.9776 41.1595C61.4165 41.2371 60.9091 41.3356 60.4555 41.455C60.1749 41.5326 59.8914 41.646 59.6049 41.7953C59.3243 41.9385 59.0886 42.1385 58.8975 42.3951C58.7125 42.6518 58.62 42.9771 58.62 43.3711C58.62 43.6636 58.6916 43.9561 58.8349 44.2485C58.9841 44.541 59.2288 44.7828 59.5691 44.9738C59.9093 45.1648 60.3689 45.2603 60.9479 45.2603ZM68.1077 45.9408V32.779H69.1374V45.9408H68.1077ZM76.116 46.2094C75.2147 46.2094 74.4417 45.9855 73.797 45.5379C73.1524 45.0842 72.654 44.4724 72.3018 43.7024C71.9556 42.9324 71.7825 42.0639 71.7825 41.0969C71.7825 40.1299 71.9556 39.2614 72.3018 38.4914C72.654 37.7214 73.1524 37.1155 73.797 36.6738C74.4417 36.2261 75.2117 36.0023 76.1071 36.0023C77.0203 36.0023 77.7874 36.2231 78.4081 36.6648C79.0289 37.1065 79.4975 37.7124 79.8139 38.4824C80.1362 39.2524 80.2974 40.1239 80.2974 41.0969C80.2974 42.0579 80.1362 42.9264 79.8139 43.7024C79.4975 44.4724 79.0289 45.0842 78.4081 45.5379C77.7874 45.9855 77.0233 46.2094 76.116 46.2094ZM76.313 44.7499C76.9636 44.7499 77.4979 44.5947 77.9157 44.2844C78.3335 43.968 78.6409 43.5352 78.8379 42.9861C79.0409 42.431 79.1423 41.8012 79.1423 41.0969C79.1423 40.3806 79.0409 39.7508 78.8379 39.2077C78.6409 38.6585 78.3365 38.2317 77.9247 37.9273C77.5128 37.6169 76.9905 37.4617 76.3578 37.4617C75.7012 37.4617 75.158 37.6229 74.7282 37.9452C74.3044 38.2675 73.988 38.7033 73.7791 39.2524C73.5762 39.8016 73.4747 40.4164 73.4747 41.0969C73.4747 41.7833 73.5792 42.4041 73.7881 42.9592C73.997 43.5084 74.3104 43.9441 74.7282 44.2665C75.152 44.5888 75.6803 44.7499 76.313 44.7499ZM79.1423 45.9408V38.8227H78.9633V33.0476H80.566V45.9408H79.1423ZM85.8233 46.2094C85.1011 46.2094 84.4952 46.0781 84.0057 45.8154C83.5222 45.5468 83.1551 45.1946 82.9044 44.7589C82.6597 44.3232 82.5373 43.8456 82.5373 43.3263C82.5373 42.8189 82.6328 42.3802 82.8238 42.0101C83.0208 41.6341 83.2954 41.3237 83.6476 41.079C83.9998 40.8283 84.4206 40.6313 84.91 40.488C85.3697 40.3627 85.883 40.2552 86.4501 40.1657C87.0231 40.0702 87.6021 39.9836 88.1871 39.906C88.772 39.8284 89.3182 39.7538 89.8256 39.6822L89.2525 40.0135C89.2705 39.1539 89.0974 38.5182 88.7332 38.1064C88.3751 37.6945 87.7543 37.4886 86.8709 37.4886C86.2859 37.4886 85.7726 37.6229 85.3309 37.8915C84.8951 38.1541 84.5877 38.5839 84.4086 39.1808L82.8955 38.7242C83.1283 37.8766 83.5789 37.211 84.2475 36.7275C84.916 36.244 85.7965 36.0023 86.8888 36.0023C87.7662 36.0023 88.5183 36.1604 89.1451 36.4768C89.7778 36.7872 90.2315 37.2588 90.5061 37.8915C90.6433 38.1899 90.7299 38.5152 90.7657 38.8674C90.8015 39.2136 90.8194 39.5777 90.8194 39.9598V45.9408H89.4048V43.6218L89.736 43.8367C89.3719 44.6186 88.8616 45.2096 88.205 45.6095C87.5543 46.0094 86.7605 46.2094 85.8233 46.2094ZM86.0651 44.8753C86.6381 44.8753 87.1335 44.7738 87.5514 44.5709C87.9752 44.362 88.3154 44.0904 88.5721 43.7561C88.8287 43.4159 88.9959 43.0458 89.0735 42.6458C89.163 42.3474 89.2108 42.0161 89.2167 41.652C89.2287 41.2819 89.2346 40.9984 89.2346 40.8014L89.7898 41.0431C89.2705 41.1148 88.7601 41.1834 88.2587 41.2491C87.7573 41.3147 87.2828 41.3864 86.8351 41.464C86.3874 41.5356 85.9845 41.6221 85.6263 41.7236C85.3637 41.8072 85.116 41.9146 84.8832 42.046C84.6564 42.1773 84.4713 42.3474 84.3281 42.5563C84.1908 42.7593 84.1221 43.0129 84.1221 43.3174C84.1221 43.58 84.1878 43.8307 84.3191 44.0695C84.4564 44.3082 84.6653 44.5022 84.9459 44.6515C85.2324 44.8007 85.6054 44.8753 86.0651 44.8753ZM96.8004 46.2004C95.6484 46.2004 94.7023 45.9497 93.9622 45.4483C93.228 44.941 92.7773 44.2336 92.6102 43.3263L94.2397 43.0667C94.371 43.5919 94.6725 44.0098 95.144 44.3202C95.6156 44.6246 96.2006 44.7768 96.8989 44.7768C97.5615 44.7768 98.0808 44.6395 98.4569 44.3649C98.8329 44.0904 99.0209 43.7173 99.0209 43.2457C99.0209 42.9712 98.9583 42.7503 98.8329 42.5832C98.7076 42.4101 98.4479 42.2489 98.0539 42.0997C97.666 41.9504 97.078 41.7714 96.2901 41.5625C95.4365 41.3356 94.765 41.0999 94.2755 40.8551C93.7861 40.6104 93.4369 40.3269 93.228 40.0045C93.019 39.6822 92.9146 39.2912 92.9146 38.8316C92.9146 38.2645 93.0698 37.7691 93.3802 37.3453C93.6906 36.9155 94.1233 36.5842 94.6784 36.3515C95.2395 36.1187 95.8902 36.0023 96.6303 36.0023C97.3645 36.0023 98.0211 36.1187 98.6001 36.3515C99.1791 36.5842 99.6447 36.9155 99.9969 37.3453C100.355 37.7691 100.567 38.2645 100.633 38.8316L99.003 39.1271C98.9254 38.6078 98.6747 38.1989 98.2509 37.9004C97.8331 37.602 97.2929 37.4438 96.6303 37.4259C96.0036 37.402 95.4932 37.5124 95.0993 37.7572C94.7113 38.0019 94.5173 38.3332 94.5173 38.751C94.5173 38.9838 94.5889 39.1838 94.7322 39.3509C94.8814 39.518 95.153 39.6762 95.5469 39.8255C95.9469 39.9747 96.5259 40.1448 97.2839 40.3358C98.1375 40.5507 98.809 40.7865 99.2985 41.0431C99.7939 41.2939 100.146 41.5923 100.355 41.9385C100.564 42.2787 100.668 42.6996 100.668 43.201C100.668 44.1321 100.325 44.8663 99.6387 45.4036C98.9523 45.9348 98.0062 46.2004 96.8004 46.2004Z" fill="#1C1F24"/>
<path d="M103.274 45.9139V36.244H105.181V38.5988L104.948 38.2944C105.068 37.9721 105.226 37.6796 105.423 37.4169C105.626 37.1483 105.867 36.9275 106.148 36.7544C106.387 36.5932 106.649 36.4679 106.936 36.3783C107.228 36.2828 107.527 36.2261 107.831 36.2082C108.136 36.1843 108.431 36.1963 108.718 36.244V38.2586C108.431 38.175 108.1 38.1481 107.724 38.178C107.354 38.2078 107.019 38.3123 106.721 38.4914C106.422 38.6525 106.178 38.8585 105.987 39.1092C105.802 39.3599 105.664 39.6464 105.575 39.9687C105.485 40.2851 105.441 40.6283 105.441 40.9984V45.9139H103.274ZM114.648 46.1825C113.669 46.1825 112.809 45.9706 112.069 45.5468C111.329 45.123 110.75 44.5351 110.332 43.783C109.92 43.0309 109.714 42.1653 109.714 41.1864C109.714 40.1299 109.917 39.2136 110.323 38.4376C110.729 37.6557 111.293 37.0498 112.015 36.6201C112.737 36.1903 113.573 35.9754 114.522 35.9754C115.525 35.9754 116.376 36.2112 117.074 36.6827C117.778 37.1483 118.301 37.8079 118.641 38.6615C118.981 39.5151 119.109 40.5209 119.026 41.6789H116.886V40.8909C116.88 39.8404 116.695 39.0734 116.331 38.5899C115.967 38.1064 115.394 37.8646 114.612 37.8646C113.728 37.8646 113.072 38.1392 112.642 38.6884C112.212 39.2315 111.997 40.0284 111.997 41.079C111.997 42.0579 112.212 42.816 112.642 43.3532C113.072 43.8904 113.698 44.159 114.522 44.159C115.053 44.159 115.51 44.0426 115.892 43.8098C116.28 43.5711 116.579 43.2278 116.787 42.7802L118.918 43.4248C118.548 44.2963 117.975 44.9738 117.199 45.4573C116.429 45.9408 115.579 46.1825 114.648 46.1825ZM111.317 41.6789V40.0493H117.969V41.6789H111.317ZM124.901 46.1825C124.011 46.1825 123.235 45.9587 122.573 45.511C121.91 45.0633 121.397 44.4545 121.033 43.6845C120.669 42.9145 120.486 42.046 120.486 41.079C120.486 40.1 120.669 39.2286 121.033 38.4645C121.403 37.6945 121.925 37.0886 122.6 36.6469C123.274 36.1992 124.068 35.9754 124.981 35.9754C125.9 35.9754 126.67 36.1992 127.291 36.6469C127.918 37.0886 128.393 37.6945 128.715 38.4645C129.037 39.2345 129.198 40.106 129.198 41.079C129.198 42.04 129.037 42.9085 128.715 43.6845C128.393 44.4545 127.912 45.0633 127.273 45.511C126.635 45.9587 125.844 46.1825 124.901 46.1825ZM125.232 44.2485C125.811 44.2485 126.276 44.1172 126.629 43.8546C126.987 43.586 127.246 43.2129 127.408 42.7354C127.575 42.2579 127.658 41.7057 127.658 41.079C127.658 40.4462 127.575 39.8941 127.408 39.4225C127.246 38.945 126.993 38.5749 126.647 38.3123C126.3 38.0437 125.853 37.9094 125.304 37.9094C124.725 37.9094 124.247 38.0526 123.871 38.3392C123.495 38.6197 123.217 39.0017 123.038 39.4852C122.859 39.9627 122.77 40.494 122.77 41.079C122.77 41.6699 122.856 42.2071 123.029 42.6906C123.208 43.1681 123.48 43.5472 123.844 43.8277C124.208 44.1083 124.671 44.2485 125.232 44.2485ZM127.658 45.9139V39.1271H127.39V33.0207H129.565V45.9139H127.658ZM134.78 46.1825C134.081 46.1825 133.49 46.0512 133.007 45.7886C132.523 45.52 132.156 45.1648 131.906 44.7231C131.661 44.2814 131.539 43.7949 131.539 43.2637C131.539 42.7981 131.616 42.3802 131.771 42.0101C131.927 41.6341 132.165 41.3118 132.488 41.0432C132.81 40.7686 133.228 40.5447 133.741 40.3716C134.129 40.2463 134.583 40.1329 135.102 40.0314C135.627 39.9299 136.194 39.8374 136.803 39.7538C137.418 39.6643 138.06 39.5688 138.728 39.4673L137.958 39.906C137.964 39.2375 137.815 38.7451 137.511 38.4287C137.206 38.1123 136.693 37.9542 135.971 37.9542C135.535 37.9542 135.114 38.0556 134.708 38.2586C134.302 38.4615 134.019 38.8107 133.858 39.3062L131.888 38.6884C132.127 37.8706 132.58 37.214 133.249 36.7186C133.923 36.2231 134.831 35.9754 135.971 35.9754C136.83 35.9754 137.585 36.1157 138.236 36.3962C138.892 36.6768 139.379 37.1364 139.695 37.7751C139.868 38.1153 139.973 38.4645 140.009 38.8227C140.045 39.1748 140.062 39.5598 140.062 39.9777V45.9139H138.173V43.8188L138.487 44.159C138.051 44.8574 137.54 45.3707 136.956 45.699C136.377 46.0214 135.651 46.1825 134.78 46.1825ZM135.21 44.4634C135.699 44.4634 136.117 44.3769 136.463 44.2038C136.809 44.0307 137.084 43.8188 137.287 43.5681C137.496 43.3174 137.636 43.0816 137.708 42.8607C137.821 42.5862 137.884 42.2728 137.896 41.9206C137.914 41.5625 137.923 41.273 137.923 41.0521L138.585 41.2491C137.934 41.3506 137.376 41.4401 136.911 41.5177C136.445 41.5953 136.045 41.6699 135.711 41.7415C135.377 41.8072 135.081 41.8818 134.825 41.9654C134.574 42.0549 134.362 42.1594 134.189 42.2788C134.016 42.3981 133.881 42.5354 133.786 42.6906C133.696 42.8458 133.652 43.0279 133.652 43.2368C133.652 43.4756 133.711 43.6875 133.831 43.8725C133.95 44.0516 134.123 44.1948 134.35 44.3023C134.583 44.4097 134.869 44.4634 135.21 44.4634ZM146.279 50.2385C146.041 50.2385 145.817 50.2057 145.608 50.14C145.405 50.0803 145.217 50.0057 145.044 49.9162L145.518 48.6358C145.763 48.7194 145.954 48.7612 146.091 48.7612C146.27 48.7612 146.408 48.7074 146.503 48.6C146.605 48.4985 146.655 48.3911 146.655 48.2777C146.655 48.0449 146.536 47.8748 146.297 47.7673C146.064 47.6599 145.793 47.5614 145.482 47.4718L146.118 45.6364L147.425 45.6274L147.067 46.666C147.413 46.8332 147.682 47.054 147.873 47.3286C148.064 47.6032 148.16 47.9345 148.16 48.3224C148.16 48.8895 147.972 49.3491 147.595 49.7013C147.225 50.0594 146.787 50.2385 146.279 50.2385ZM146.593 46.1825C145.596 46.1825 144.745 45.9617 144.041 45.52C143.337 45.0723 142.796 44.4634 142.42 43.6934C142.05 42.9234 141.862 42.0519 141.856 41.079C141.862 40.0881 142.056 39.2106 142.438 38.4466C142.826 37.6766 143.375 37.0737 144.086 36.638C144.796 36.1963 145.641 35.9754 146.62 35.9754C147.718 35.9754 148.646 36.253 149.404 36.8081C150.168 37.3572 150.667 38.1094 150.899 39.0644L148.75 39.6464C148.583 39.1271 148.306 38.7242 147.918 38.4376C147.53 38.1452 147.088 37.9989 146.593 37.9989C146.032 37.9989 145.569 38.1332 145.205 38.4018C144.841 38.6645 144.572 39.0286 144.399 39.4942C144.226 39.9598 144.139 40.488 144.139 41.079C144.139 41.9982 144.345 42.7414 144.757 43.3084C145.169 43.8755 145.781 44.159 146.593 44.159C147.166 44.159 147.616 44.0277 147.945 43.7651C148.279 43.5024 148.53 43.1234 148.697 42.6279L150.899 43.1204C150.601 44.1053 150.079 44.8634 149.332 45.3946C148.586 45.9199 147.673 46.1825 146.593 46.1825ZM158.215 34.8114C157.929 34.8114 157.657 34.7488 157.401 34.6234C157.144 34.4981 156.896 34.3548 156.657 34.1936C156.419 34.0265 156.195 33.8803 155.986 33.7549C155.783 33.6296 155.595 33.5669 155.422 33.5669C155.225 33.5669 155.093 33.6654 155.028 33.8624C154.962 34.0534 154.965 34.2891 155.037 34.5697H153.676C153.509 33.8534 153.55 33.2475 153.801 32.7521C154.058 32.2507 154.532 32 155.225 32C155.511 32 155.783 32.0627 156.04 32.188C156.302 32.3134 156.55 32.4596 156.783 32.6268C157.021 32.7879 157.242 32.9312 157.445 33.0565C157.654 33.1819 157.848 33.2446 158.027 33.2446C158.212 33.2446 158.341 33.149 158.412 32.958C158.49 32.7611 158.487 32.5193 158.403 32.2328H159.764C159.943 32.9431 159.905 33.552 159.648 34.0593C159.391 34.5607 158.914 34.8114 158.215 34.8114ZM156.702 46.1825C155.735 46.1825 154.891 45.9647 154.168 45.5289C153.446 45.0932 152.885 44.4933 152.485 43.7292C152.091 42.9592 151.894 42.0758 151.894 41.079C151.894 40.0642 152.097 39.1748 152.503 38.4108C152.909 37.6467 153.473 37.0498 154.195 36.6201C154.917 36.1903 155.753 35.9754 156.702 35.9754C157.675 35.9754 158.523 36.1933 159.245 36.629C159.967 37.0648 160.528 37.6676 160.928 38.4376C161.328 39.2017 161.528 40.0821 161.528 41.079C161.528 42.0818 161.325 42.9682 160.919 43.7382C160.519 44.5022 159.958 45.1021 159.236 45.5379C158.514 45.9676 157.669 46.1825 156.702 46.1825ZM156.702 44.159C157.562 44.159 158.2 43.8725 158.618 43.2995C159.036 42.7264 159.245 41.9863 159.245 41.079C159.245 40.1418 159.033 39.3957 158.609 38.8406C158.185 38.2795 157.55 37.9989 156.702 37.9989C156.123 37.9989 155.646 38.1302 155.27 38.3929C154.899 38.6496 154.625 39.0107 154.446 39.4763C154.267 39.9359 154.177 40.4701 154.177 41.079C154.177 42.0161 154.389 42.7652 154.813 43.3263C155.243 43.8814 155.872 44.159 156.702 44.159ZM167.897 46.1825C166.918 46.1825 166.059 45.9706 165.318 45.5468C164.578 45.123 163.999 44.5351 163.581 43.783C163.17 43.0309 162.964 42.1653 162.964 41.1864C162.964 40.1299 163.167 39.2136 163.573 38.4376C163.978 37.6557 164.543 37.0498 165.265 36.6201C165.987 36.1903 166.823 35.9754 167.772 35.9754C168.775 35.9754 169.625 36.2112 170.324 36.6827C171.028 37.1483 171.55 37.8079 171.89 38.6615C172.231 39.5151 172.359 40.5209 172.275 41.6789H170.136V40.8909C170.13 39.8404 169.945 39.0734 169.58 38.5899C169.216 38.1064 168.643 37.8646 167.861 37.8646C166.978 37.8646 166.321 38.1392 165.892 38.6884C165.462 39.2315 165.247 40.0284 165.247 41.079C165.247 42.0579 165.462 42.816 165.892 43.3532C166.321 43.8904 166.948 44.159 167.772 44.159C168.303 44.159 168.76 44.0426 169.142 43.8098C169.53 43.5711 169.828 43.2278 170.037 42.7802L172.168 43.4248C171.798 44.2963 171.225 44.9738 170.449 45.4573C169.679 45.9408 168.828 46.1825 167.897 46.1825ZM164.566 41.6789V40.0493H171.219V41.6789H164.566ZM178.007 46.1825C176.813 46.1825 175.843 45.9139 175.097 45.3767C174.351 44.8395 173.897 44.0844 173.736 43.1114L175.939 42.7712C176.052 43.2487 176.303 43.6248 176.69 43.8994C177.078 44.1739 177.568 44.3112 178.159 44.3112C178.678 44.3112 179.078 44.2097 179.359 44.0068C179.645 43.7979 179.788 43.5144 179.788 43.1562C179.788 42.9354 179.735 42.7593 179.627 42.6279C179.526 42.4907 179.299 42.3593 178.947 42.234C178.595 42.1086 178.054 41.9505 177.326 41.7594C176.515 41.5446 175.87 41.3147 175.392 41.07C174.915 40.8193 174.572 40.5238 174.363 40.1836C174.154 39.8434 174.049 39.4315 174.049 38.948C174.049 38.3451 174.208 37.8198 174.524 37.3722C174.84 36.9245 175.282 36.5813 175.849 36.3425C176.416 36.0978 177.084 35.9754 177.854 35.9754C178.607 35.9754 179.272 36.0918 179.851 36.3246C180.436 36.5574 180.908 36.8887 181.266 37.3184C181.624 37.7482 181.845 38.2526 181.928 38.8316L179.726 39.2256C179.672 38.8137 179.484 38.4884 179.162 38.2496C178.845 38.0109 178.422 37.8766 177.89 37.8467C177.383 37.8169 176.974 37.8945 176.664 38.0795C176.353 38.2586 176.198 38.5123 176.198 38.8406C176.198 39.0256 176.261 39.1838 176.386 39.3151C176.512 39.4464 176.762 39.5777 177.138 39.7091C177.52 39.8404 178.087 40.0015 178.839 40.1926C179.609 40.3895 180.224 40.6164 180.684 40.873C181.149 41.1237 181.484 41.4252 181.687 41.7773C181.896 42.1295 182 42.5563 182 43.0577C182 44.0307 181.645 44.7947 180.934 45.3498C180.23 45.905 179.254 46.1825 178.007 46.1825Z" fill="#4B1DF2"/>
</g>
<path d="M206 80V81H207V80H206ZM205 0V80H207V0H205ZM206 79H0V81H206V79Z" fill="#F9F9FB" mask="url(#path-1-outside-1_12_134)"/>
<defs>
<clipPath id="clip0_12_134">
<rect width="158" height="18.2385" fill="white" transform="translate(24 32)"/>
</clipPath>
</defs>
</svg>
