<svg width="530" height="1082" viewBox="0 0 530 1082" fill="none" xmlns="http://www.w3.org/2000/svg">
<rect x="1" y="1" width="528" height="1080" rx="16" fill="white"/>
<path d="M1 9C1 4.58172 4.58172 1 9 1H521C525.418 1 529 4.58172 529 9V37H1V9Z" fill="white"/>
<path d="M1 9C1 4.58172 4.58172 1 9 1H521C525.418 1 529 4.58172 529 9V37H1V9Z" stroke="#F3F4F7"/>
<path d="M11.767 16.1818V22H10.8864V17.0625H10.8523L9.46023 17.9716V17.1307L10.9119 16.1818H11.767Z" fill="#637792"/>
<rect x="1" y="37" width="528" height="36" fill="white"/>
<rect x="1" y="37" width="528" height="36" stroke="#F3F4F7"/>
<path d="M9.55966 58V57.3636L11.5284 55.3239C11.7386 55.1023 11.9119 54.9081 12.0483 54.7415C12.1866 54.5729 12.2898 54.4129 12.358 54.2614C12.4261 54.1098 12.4602 53.9489 12.4602 53.7784C12.4602 53.5852 12.4148 53.4186 12.3239 53.2784C12.233 53.1364 12.1089 53.0275 11.9517 52.9517C11.7945 52.8741 11.6174 52.8352 11.4205 52.8352C11.2121 52.8352 11.0303 52.8778 10.875 52.9631C10.7197 53.0483 10.6004 53.1686 10.517 53.3239C10.4337 53.4792 10.392 53.661 10.392 53.8693H9.55398C9.55398 53.5152 9.63542 53.2055 9.7983 52.9403C9.96117 52.6752 10.1847 52.4697 10.4688 52.3239C10.7528 52.1761 11.0758 52.1023 11.4375 52.1023C11.803 52.1023 12.125 52.1752 12.4034 52.321C12.6837 52.465 12.9025 52.6619 13.0597 52.9119C13.2169 53.16 13.2955 53.4403 13.2955 53.7528C13.2955 53.9688 13.2547 54.1799 13.1733 54.3864C13.0938 54.5928 12.9545 54.8229 12.7557 55.0767C12.5568 55.3286 12.2803 55.6345 11.9261 55.9943L10.7699 57.2045V57.2472H13.3892V58H9.55966Z" fill="#637792"/>
<rect x="1" y="73" width="528" height="36" fill="white"/>
<rect x="1" y="73" width="528" height="36" stroke="#F3F4F7"/>
<path d="M11.5852 94.0795C11.1951 94.0795 10.8466 94.0123 10.5398 93.8778C10.2348 93.7434 9.99337 93.5568 9.81534 93.3182C9.6392 93.0777 9.54451 92.7992 9.53125 92.483H10.4233C10.4347 92.6553 10.4924 92.8049 10.5966 92.9318C10.7027 93.0568 10.8409 93.1534 11.0114 93.2216C11.1818 93.2898 11.3712 93.3239 11.5795 93.3239C11.8087 93.3239 12.0114 93.2841 12.1875 93.2045C12.3655 93.125 12.5047 93.0142 12.6051 92.8722C12.7055 92.7282 12.7557 92.5625 12.7557 92.375C12.7557 92.1799 12.7055 92.0085 12.6051 91.8608C12.5066 91.7112 12.3617 91.5937 12.1705 91.5085C11.9811 91.4233 11.7519 91.3807 11.483 91.3807H10.9915V90.6648H11.483C11.6989 90.6648 11.8883 90.6259 12.0511 90.5483C12.2159 90.4706 12.3447 90.3627 12.4375 90.2244C12.5303 90.0843 12.5767 89.9205 12.5767 89.733C12.5767 89.553 12.536 89.3968 12.4545 89.2642C12.375 89.1297 12.2614 89.0246 12.1136 88.9489C11.9678 88.8731 11.7955 88.8352 11.5966 88.8352C11.4072 88.8352 11.2301 88.8703 11.0653 88.9403C10.9025 89.0085 10.7699 89.107 10.6676 89.2358C10.5653 89.3627 10.5104 89.5152 10.5028 89.6932H9.65341C9.66288 89.3788 9.75568 89.1023 9.93182 88.8636C10.1098 88.625 10.3447 88.4384 10.6364 88.304C10.928 88.1695 11.2519 88.1023 11.608 88.1023C11.9811 88.1023 12.303 88.1752 12.5739 88.321C12.8466 88.465 13.0568 88.6572 13.2045 88.8977C13.3542 89.1383 13.428 89.4015 13.4261 89.6875C13.428 90.0133 13.3371 90.2898 13.1534 90.517C12.9716 90.7443 12.7292 90.8968 12.4261 90.9744V91.0199C12.8125 91.0786 13.1117 91.232 13.3239 91.4801C13.5379 91.7282 13.6439 92.036 13.642 92.4034C13.6439 92.7235 13.5549 93.0104 13.375 93.2642C13.197 93.518 12.9536 93.7178 12.6449 93.8636C12.3362 94.0076 11.983 94.0795 11.5852 94.0795Z" fill="#637792"/>
<rect x="1" y="109" width="528" height="36" fill="white"/>
<rect x="1" y="109" width="528" height="36" stroke="#F3F4F7"/>
<path d="M9.4375 128.864V128.153L11.9517 124.182H12.5114V125.227H12.1562L10.358 128.074V128.119H13.804V128.864H9.4375ZM12.196 130V128.648L12.2017 128.324V124.182H13.0341V130H12.196Z" fill="#637792"/>
<rect x="1" y="145" width="528" height="36" fill="white"/>
<rect x="1" y="145" width="528" height="36" stroke="#F3F4F7"/>
<path d="M11.4801 166.08C11.1241 166.08 10.804 166.011 10.5199 165.875C10.2377 165.737 10.0123 165.547 9.84375 165.307C9.67519 165.066 9.58523 164.792 9.57386 164.483H10.4261C10.447 164.733 10.5578 164.938 10.7585 165.099C10.9593 165.26 11.1998 165.341 11.4801 165.341C11.7036 165.341 11.9015 165.29 12.0739 165.188C12.2481 165.083 12.3845 164.94 12.483 164.759C12.5833 164.577 12.6335 164.369 12.6335 164.136C12.6335 163.9 12.5824 163.688 12.4801 163.503C12.3778 163.317 12.2367 163.171 12.0568 163.065C11.8788 162.959 11.6742 162.905 11.4432 162.903C11.267 162.903 11.09 162.934 10.9119 162.994C10.7339 163.055 10.59 163.134 10.4801 163.233L9.67614 163.114L10.0028 160.182H13.2017V160.935H10.733L10.5483 162.562H10.5824C10.696 162.453 10.8466 162.361 11.0341 162.287C11.2235 162.213 11.4261 162.176 11.642 162.176C11.9962 162.176 12.3116 162.26 12.5881 162.429C12.8665 162.598 13.0852 162.828 13.2443 163.119C13.4053 163.409 13.4848 163.742 13.483 164.119C13.4848 164.496 13.3996 164.832 13.2273 165.128C13.0568 165.423 12.8201 165.656 12.517 165.827C12.2159 165.995 11.8703 166.08 11.4801 166.08Z" fill="#637792"/>
<rect x="1" y="181" width="528" height="36" fill="white"/>
<rect x="1" y="181" width="528" height="36" stroke="#F3F4F7"/>
<path d="M11.5909 202.08C11.3314 202.076 11.0758 202.028 10.8239 201.938C10.5739 201.847 10.3466 201.695 10.142 201.483C9.9375 201.271 9.77367 200.986 9.65057 200.628C9.52936 200.27 9.46875 199.823 9.46875 199.287C9.46875 198.779 9.51894 198.329 9.61932 197.935C9.72159 197.541 9.86837 197.208 10.0597 196.938C10.2509 196.665 10.482 196.457 10.7528 196.315C11.0237 196.173 11.3277 196.102 11.6648 196.102C12.0114 196.102 12.3191 196.17 12.5881 196.307C12.857 196.443 13.0748 196.632 13.2415 196.872C13.41 197.113 13.517 197.386 13.5625 197.693H12.696C12.6373 197.451 12.5208 197.253 12.3466 197.099C12.1723 196.946 11.9451 196.869 11.6648 196.869C11.2386 196.869 10.9063 197.055 10.6676 197.426C10.4309 197.797 10.3116 198.313 10.3097 198.974H10.3523C10.4527 198.81 10.5758 198.67 10.7216 198.554C10.8693 198.437 11.0341 198.347 11.2159 198.284C11.3996 198.22 11.5928 198.188 11.7955 198.188C12.1326 198.188 12.4375 198.27 12.7102 198.435C12.9848 198.598 13.2036 198.823 13.3665 199.111C13.5294 199.399 13.6108 199.728 13.6108 200.099C13.6108 200.471 13.5265 200.807 13.358 201.108C13.1913 201.409 12.9564 201.648 12.6534 201.824C12.3504 201.998 11.9962 202.083 11.5909 202.08ZM11.5881 201.341C11.8116 201.341 12.0114 201.286 12.1875 201.176C12.3636 201.066 12.5028 200.919 12.6051 200.733C12.7074 200.547 12.7585 200.34 12.7585 200.111C12.7585 199.887 12.7083 199.684 12.608 199.5C12.5095 199.316 12.3731 199.17 12.1989 199.062C12.0265 198.955 11.8295 198.901 11.608 198.901C11.4394 198.901 11.2831 198.933 11.1392 198.997C10.9972 199.062 10.8722 199.151 10.7642 199.264C10.6563 199.378 10.571 199.509 10.5085 199.656C10.4479 199.802 10.4176 199.956 10.4176 200.119C10.4176 200.337 10.4678 200.539 10.5682 200.724C10.6705 200.91 10.8097 201.06 10.9858 201.173C11.1638 201.285 11.3646 201.341 11.5881 201.341Z" fill="#637792"/>
<rect x="1" y="217" width="528" height="36" fill="white"/>
<rect x="1" y="217" width="528" height="36" stroke="#F3F4F7"/>
<path d="M9.75568 238L12.2955 232.977V232.935H9.35795V232.182H13.2045V232.96L10.6733 238H9.75568Z" fill="#637792"/>
<rect x="1" y="253" width="528" height="36" fill="white"/>
<rect x="1" y="253" width="528" height="36" stroke="#F3F4F7"/>
<path d="M11.5256 274.08C11.1184 274.08 10.7585 274.009 10.446 273.869C10.1354 273.729 9.89205 273.536 9.71591 273.29C9.53977 273.044 9.45265 272.763 9.45455 272.449C9.45265 272.203 9.50284 271.976 9.60511 271.77C9.70928 271.562 9.85038 271.388 10.0284 271.25C10.2064 271.11 10.4053 271.021 10.625 270.983V270.949C10.3352 270.879 10.1032 270.723 9.92898 270.483C9.75473 270.242 9.66856 269.966 9.67045 269.653C9.66856 269.356 9.74716 269.091 9.90625 268.858C10.0672 268.623 10.2879 268.438 10.5682 268.304C10.8485 268.17 11.1676 268.102 11.5256 268.102C11.8797 268.102 12.196 268.17 12.4744 268.307C12.7547 268.441 12.9754 268.626 13.1364 268.861C13.2973 269.094 13.3788 269.358 13.3807 269.653C13.3788 269.966 13.2898 270.242 13.1136 270.483C12.9375 270.723 12.7083 270.879 12.4261 270.949V270.983C12.6439 271.021 12.84 271.11 13.0142 271.25C13.1903 271.388 13.3305 271.562 13.4347 271.77C13.5407 271.976 13.5947 272.203 13.5966 272.449C13.5947 272.763 13.5057 273.044 13.3295 273.29C13.1534 273.536 12.9091 273.729 12.5966 273.869C12.286 274.009 11.929 274.08 11.5256 274.08ZM11.5256 273.361C11.7661 273.361 11.9744 273.321 12.1506 273.241C12.3267 273.16 12.4631 273.047 12.5597 272.903C12.6563 272.758 12.7055 272.587 12.7074 272.392C12.7055 272.189 12.6525 272.01 12.5483 271.855C12.446 271.7 12.3068 271.578 12.1307 271.489C11.9545 271.4 11.7528 271.355 11.5256 271.355C11.2964 271.355 11.0928 271.4 10.9148 271.489C10.7367 271.578 10.5966 271.7 10.4943 271.855C10.392 272.01 10.3419 272.189 10.3438 272.392C10.3419 272.587 10.3883 272.758 10.483 272.903C10.5795 273.047 10.7169 273.16 10.8949 273.241C11.0729 273.321 11.2831 273.361 11.5256 273.361ZM11.5256 270.653C11.7188 270.653 11.8902 270.615 12.0398 270.537C12.1894 270.459 12.3068 270.351 12.392 270.213C12.4792 270.075 12.5237 269.913 12.5256 269.727C12.5237 269.545 12.4801 269.386 12.3949 269.25C12.3116 269.114 12.1951 269.009 12.0455 268.935C11.8958 268.859 11.7225 268.821 11.5256 268.821C11.3248 268.821 11.1487 268.859 10.9972 268.935C10.8475 269.009 10.7311 269.114 10.6477 269.25C10.5644 269.386 10.5237 269.545 10.5256 269.727C10.5237 269.913 10.5653 270.075 10.6506 270.213C10.7358 270.351 10.8532 270.459 11.0028 270.537C11.1544 270.615 11.3286 270.653 11.5256 270.653Z" fill="#637792"/>
<rect x="1" y="289" width="528" height="36" fill="white"/>
<rect x="1" y="289" width="528" height="36" stroke="#F3F4F7"/>
<path d="M11.4943 304.102C11.7538 304.104 12.0095 304.152 12.2614 304.244C12.5133 304.337 12.7405 304.489 12.9432 304.699C13.1477 304.909 13.3106 305.193 13.4318 305.551C13.5549 305.907 13.6174 306.35 13.6193 306.881C13.6193 307.39 13.5682 307.844 13.4659 308.241C13.3636 308.637 13.2169 308.972 13.0256 309.244C12.8362 309.517 12.6061 309.724 12.3352 309.866C12.0644 310.009 11.7595 310.08 11.4205 310.08C11.0739 310.08 10.7661 310.011 10.4972 309.875C10.2282 309.739 10.0095 309.55 9.84091 309.31C9.67235 309.067 9.56723 308.789 9.52557 308.474H10.392C10.4489 308.724 10.5644 308.927 10.7386 309.082C10.9148 309.236 11.142 309.312 11.4205 309.312C11.8466 309.312 12.179 309.127 12.4176 308.756C12.6563 308.383 12.7765 307.862 12.7784 307.193H12.733C12.6345 307.356 12.5114 307.496 12.3636 307.614C12.2178 307.731 12.054 307.822 11.8722 307.886C11.6903 307.951 11.4962 307.983 11.2898 307.983C10.9545 307.983 10.6496 307.901 10.375 307.736C10.1004 307.571 9.88163 307.345 9.71875 307.057C9.55587 306.769 9.47443 306.44 9.47443 306.071C9.47443 305.704 9.55777 305.37 9.72443 305.071C9.89299 304.772 10.1278 304.535 10.429 304.361C10.732 304.185 11.0871 304.098 11.4943 304.102ZM11.4972 304.841C11.2756 304.841 11.0758 304.896 10.8977 305.006C10.7216 305.114 10.5824 305.26 10.4801 305.446C10.3778 305.63 10.3267 305.834 10.3267 306.06C10.3267 306.285 10.3759 306.49 10.4744 306.673C10.5748 306.855 10.7112 307 10.8835 307.108C11.0578 307.214 11.2566 307.267 11.4801 307.267C11.6468 307.267 11.8021 307.235 11.946 307.17C12.09 307.106 12.2159 307.017 12.3239 306.903C12.4318 306.788 12.5161 306.657 12.5767 306.511C12.6373 306.366 12.6676 306.212 12.6676 306.051C12.6676 305.837 12.6165 305.638 12.5142 305.455C12.4138 305.271 12.2756 305.123 12.0994 305.011C11.9233 304.898 11.7225 304.841 11.4972 304.841Z" fill="#637792"/>
<rect x="1" y="325" width="528" height="36" fill="white"/>
<rect x="1" y="325" width="528" height="36" stroke="#F3F4F7"/>
<path d="M11.767 340.182V346H10.8864V341.062H10.8523L9.46023 341.972V341.131L10.9119 340.182H11.767ZM15.3665 346.097C14.9176 346.095 14.5341 345.976 14.2159 345.741C13.8977 345.507 13.6544 345.165 13.4858 344.716C13.3172 344.267 13.233 343.726 13.233 343.094C13.233 342.463 13.3172 341.924 13.4858 341.477C13.6563 341.03 13.9006 340.689 14.2188 340.455C14.5388 340.22 14.9214 340.102 15.3665 340.102C15.8116 340.102 16.1932 340.221 16.5114 340.457C16.8295 340.692 17.0729 341.033 17.2415 341.48C17.4119 341.925 17.4972 342.463 17.4972 343.094C17.4972 343.728 17.4129 344.27 17.2443 344.719C17.0758 345.166 16.8324 345.508 16.5142 345.744C16.196 345.979 15.8134 346.097 15.3665 346.097ZM15.3665 345.338C15.7604 345.338 16.0682 345.146 16.2898 344.761C16.5133 344.377 16.625 343.821 16.625 343.094C16.625 342.611 16.5739 342.203 16.4716 341.869C16.3712 341.534 16.2263 341.28 16.0369 341.108C15.8494 340.934 15.6259 340.847 15.3665 340.847C14.9744 340.847 14.6667 341.04 14.4432 341.426C14.2197 341.812 14.107 342.368 14.1051 343.094C14.1051 343.579 14.1553 343.989 14.2557 344.324C14.358 344.657 14.5028 344.91 14.6903 345.082C14.8778 345.253 15.1032 345.338 15.3665 345.338Z" fill="#637792"/>
<rect x="1" y="361" width="528" height="36" fill="white"/>
<rect x="1" y="361" width="528" height="36" stroke="#F3F4F7"/>
<path d="M11.767 376.182V382H10.8864V377.062H10.8523L9.46023 377.972V377.131L10.9119 376.182H11.767ZM15.5483 376.182V382H14.6676V377.062H14.6335L13.2415 377.972V377.131L14.6932 376.182H15.5483Z" fill="#637792"/>
<rect x="1" y="397" width="528" height="36" fill="white"/>
<rect x="1" y="397" width="528" height="36" stroke="#F3F4F7"/>
<path d="M11.767 412.182V418H10.8864V413.062H10.8523L9.46023 413.972V413.131L10.9119 412.182H11.767ZM13.3409 418V417.364L15.3097 415.324C15.5199 415.102 15.6932 414.908 15.8295 414.741C15.9678 414.573 16.071 414.413 16.1392 414.261C16.2074 414.11 16.2415 413.949 16.2415 413.778C16.2415 413.585 16.196 413.419 16.1051 413.278C16.0142 413.136 15.8902 413.027 15.733 412.952C15.5758 412.874 15.3987 412.835 15.2017 412.835C14.9934 412.835 14.8116 412.878 14.6562 412.963C14.5009 413.048 14.3816 413.169 14.2983 413.324C14.215 413.479 14.1733 413.661 14.1733 413.869H13.3352C13.3352 413.515 13.4167 413.205 13.5795 412.94C13.7424 412.675 13.9659 412.47 14.25 412.324C14.5341 412.176 14.857 412.102 15.2188 412.102C15.5843 412.102 15.9063 412.175 16.1847 412.321C16.465 412.465 16.6837 412.662 16.8409 412.912C16.9981 413.16 17.0767 413.44 17.0767 413.753C17.0767 413.969 17.036 414.18 16.9545 414.386C16.875 414.593 16.7358 414.823 16.5369 415.077C16.3381 415.329 16.0616 415.634 15.7074 415.994L14.5511 417.205V417.247H17.1705V418H13.3409Z" fill="#637792"/>
<rect x="1" y="433" width="528" height="36" fill="white"/>
<rect x="1" y="433" width="528" height="36" stroke="#F3F4F7"/>
<path d="M11.767 448.182V454H10.8864V449.062H10.8523L9.46023 449.972V449.131L10.9119 448.182H11.767ZM15.3665 454.08C14.9763 454.08 14.6278 454.012 14.321 453.878C14.0161 453.743 13.7746 453.557 13.5966 453.318C13.4205 453.078 13.3258 452.799 13.3125 452.483H14.2045C14.2159 452.655 14.2737 452.805 14.3778 452.932C14.4839 453.057 14.6222 453.153 14.7926 453.222C14.9631 453.29 15.1525 453.324 15.3608 453.324C15.59 453.324 15.7926 453.284 15.9688 453.205C16.1468 453.125 16.286 453.014 16.3864 452.872C16.4867 452.728 16.5369 452.562 16.5369 452.375C16.5369 452.18 16.4867 452.009 16.3864 451.861C16.2879 451.711 16.143 451.594 15.9517 451.509C15.7623 451.423 15.5331 451.381 15.2642 451.381H14.7727V450.665H15.2642C15.4801 450.665 15.6695 450.626 15.8324 450.548C15.9972 450.471 16.1259 450.363 16.2188 450.224C16.3116 450.084 16.358 449.92 16.358 449.733C16.358 449.553 16.3172 449.397 16.2358 449.264C16.1563 449.13 16.0426 449.025 15.8949 448.949C15.7491 448.873 15.5767 448.835 15.3778 448.835C15.1884 448.835 15.0114 448.87 14.8466 448.94C14.6837 449.009 14.5511 449.107 14.4489 449.236C14.3466 449.363 14.2917 449.515 14.2841 449.693H13.4347C13.4441 449.379 13.5369 449.102 13.7131 448.864C13.8911 448.625 14.1259 448.438 14.4176 448.304C14.7093 448.17 15.0331 448.102 15.3892 448.102C15.7623 448.102 16.0843 448.175 16.3551 448.321C16.6278 448.465 16.8381 448.657 16.9858 448.898C17.1354 449.138 17.2093 449.402 17.2074 449.688C17.2093 450.013 17.1184 450.29 16.9347 450.517C16.7528 450.744 16.5104 450.897 16.2074 450.974V451.02C16.5938 451.079 16.893 451.232 17.1051 451.48C17.3191 451.728 17.4252 452.036 17.4233 452.403C17.4252 452.723 17.3362 453.01 17.1562 453.264C16.9782 453.518 16.7348 453.718 16.4261 453.864C16.1174 454.008 15.7642 454.08 15.3665 454.08Z" fill="#637792"/>
<rect x="1" y="469" width="528" height="36" fill="white"/>
<rect x="1" y="469" width="528" height="36" stroke="#F3F4F7"/>
<path d="M11.767 484.182V490H10.8864V485.062H10.8523L9.46023 485.972V485.131L10.9119 484.182H11.767ZM13.2188 488.864V488.153L15.733 484.182H16.2926V485.227H15.9375L14.1392 488.074V488.119H17.5852V488.864H13.2188ZM15.9773 490V488.648L15.983 488.324V484.182H16.8153V490H15.9773Z" fill="#637792"/>
<rect x="1" y="505" width="528" height="36" fill="white"/>
<rect x="1" y="505" width="528" height="36" stroke="#F3F4F7"/>
<path d="M11.767 520.182V526H10.8864V521.062H10.8523L9.46023 521.972V521.131L10.9119 520.182H11.767ZM15.2614 526.08C14.9053 526.08 14.5852 526.011 14.3011 525.875C14.0189 525.737 13.7936 525.547 13.625 525.307C13.4564 525.066 13.3665 524.792 13.3551 524.483H14.2074C14.2282 524.733 14.339 524.938 14.5398 525.099C14.7405 525.26 14.9811 525.341 15.2614 525.341C15.4848 525.341 15.6828 525.29 15.8551 525.188C16.0294 525.083 16.1657 524.94 16.2642 524.759C16.3646 524.577 16.4148 524.369 16.4148 524.136C16.4148 523.9 16.3636 523.688 16.2614 523.503C16.1591 523.317 16.018 523.171 15.8381 523.065C15.66 522.959 15.4555 522.905 15.2244 522.903C15.0483 522.903 14.8712 522.934 14.6932 522.994C14.5152 523.055 14.3712 523.134 14.2614 523.233L13.4574 523.114L13.7841 520.182H16.983V520.935H14.5142L14.3295 522.562H14.3636C14.4773 522.453 14.6278 522.361 14.8153 522.287C15.0047 522.213 15.2074 522.176 15.4233 522.176C15.7775 522.176 16.0928 522.26 16.3693 522.429C16.6477 522.598 16.8665 522.828 17.0256 523.119C17.1866 523.409 17.2661 523.742 17.2642 524.119C17.2661 524.496 17.1809 524.832 17.0085 525.128C16.8381 525.423 16.6013 525.656 16.2983 525.827C15.9972 525.995 15.6515 526.08 15.2614 526.08Z" fill="#637792"/>
<rect x="1" y="541" width="528" height="36" fill="white"/>
<rect x="1" y="541" width="528" height="36" stroke="#F3F4F7"/>
<path d="M11.767 556.182V562H10.8864V557.062H10.8523L9.46023 557.972V557.131L10.9119 556.182H11.767ZM15.3722 562.08C15.1127 562.076 14.857 562.028 14.6051 561.938C14.3551 561.847 14.1278 561.695 13.9233 561.483C13.7188 561.271 13.5549 560.986 13.4318 560.628C13.3106 560.27 13.25 559.823 13.25 559.287C13.25 558.779 13.3002 558.329 13.4006 557.935C13.5028 557.541 13.6496 557.208 13.8409 556.938C14.0322 556.665 14.2633 556.457 14.5341 556.315C14.8049 556.173 15.1089 556.102 15.446 556.102C15.7926 556.102 16.1004 556.17 16.3693 556.307C16.6383 556.443 16.8561 556.632 17.0227 556.872C17.1913 557.113 17.2983 557.386 17.3438 557.693H16.4773C16.4186 557.451 16.3021 557.253 16.1278 557.099C15.9536 556.946 15.7263 556.869 15.446 556.869C15.0199 556.869 14.6875 557.055 14.4489 557.426C14.2121 557.797 14.0928 558.313 14.0909 558.974H14.1335C14.2339 558.81 14.357 558.67 14.5028 558.554C14.6506 558.437 14.8153 558.347 14.9972 558.284C15.1809 558.22 15.3741 558.188 15.5767 558.188C15.9138 558.188 16.2188 558.27 16.4915 558.435C16.7661 558.598 16.9848 558.823 17.1477 559.111C17.3106 559.399 17.392 559.728 17.392 560.099C17.392 560.471 17.3078 560.807 17.1392 561.108C16.9725 561.409 16.7377 561.648 16.4347 561.824C16.1316 561.998 15.7775 562.083 15.3722 562.08ZM15.3693 561.341C15.5928 561.341 15.7926 561.286 15.9688 561.176C16.1449 561.066 16.2841 560.919 16.3864 560.733C16.4886 560.547 16.5398 560.34 16.5398 560.111C16.5398 559.887 16.4896 559.684 16.3892 559.5C16.2907 559.316 16.1544 559.17 15.9801 559.062C15.8078 558.955 15.6108 558.901 15.3892 558.901C15.2206 558.901 15.0644 558.933 14.9205 558.997C14.7784 559.062 14.6534 559.151 14.5455 559.264C14.4375 559.378 14.3523 559.509 14.2898 559.656C14.2292 559.802 14.1989 559.956 14.1989 560.119C14.1989 560.337 14.2491 560.539 14.3494 560.724C14.4517 560.91 14.5909 561.06 14.767 561.173C14.9451 561.285 15.1458 561.341 15.3693 561.341Z" fill="#637792"/>
<rect x="1" y="577" width="528" height="36" fill="white"/>
<rect x="1" y="577" width="528" height="36" stroke="#F3F4F7"/>
<path d="M11.767 592.182V598H10.8864V593.062H10.8523L9.46023 593.972V593.131L10.9119 592.182H11.767ZM13.5369 598L16.0767 592.977V592.935H13.1392V592.182H16.9858V592.96L14.4545 598H13.5369Z" fill="#637792"/>
<rect x="1" y="613" width="528" height="36" fill="white"/>
<rect x="1" y="613" width="528" height="36" stroke="#F3F4F7"/>
<path d="M11.767 628.182V634H10.8864V629.062H10.8523L9.46023 629.972V629.131L10.9119 628.182H11.767ZM15.3068 634.08C14.8996 634.08 14.5398 634.009 14.2273 633.869C13.9167 633.729 13.6733 633.536 13.4972 633.29C13.321 633.044 13.2339 632.763 13.2358 632.449C13.2339 632.203 13.2841 631.976 13.3864 631.77C13.4905 631.562 13.6316 631.388 13.8097 631.25C13.9877 631.11 14.1866 631.021 14.4062 630.983V630.949C14.1165 630.879 13.8845 630.723 13.7102 630.483C13.536 630.242 13.4498 629.966 13.4517 629.653C13.4498 629.356 13.5284 629.091 13.6875 628.858C13.8485 628.623 14.0691 628.438 14.3494 628.304C14.6297 628.17 14.9489 628.102 15.3068 628.102C15.661 628.102 15.9773 628.17 16.2557 628.307C16.536 628.441 16.7566 628.626 16.9176 628.861C17.0786 629.094 17.16 629.358 17.1619 629.653C17.16 629.966 17.071 630.242 16.8949 630.483C16.7188 630.723 16.4896 630.879 16.2074 630.949V630.983C16.4252 631.021 16.6212 631.11 16.7955 631.25C16.9716 631.388 17.1117 631.562 17.2159 631.77C17.322 631.976 17.3759 632.203 17.3778 632.449C17.3759 632.763 17.2869 633.044 17.1108 633.29C16.9347 633.536 16.6903 633.729 16.3778 633.869C16.0672 634.009 15.7102 634.08 15.3068 634.08ZM15.3068 633.361C15.5473 633.361 15.7557 633.321 15.9318 633.241C16.108 633.16 16.2443 633.047 16.3409 632.903C16.4375 632.758 16.4867 632.587 16.4886 632.392C16.4867 632.189 16.4337 632.01 16.3295 631.855C16.2273 631.7 16.0881 631.578 15.9119 631.489C15.7358 631.4 15.5341 631.355 15.3068 631.355C15.0777 631.355 14.8741 631.4 14.696 631.489C14.518 631.578 14.3778 631.7 14.2756 631.855C14.1733 632.01 14.1231 632.189 14.125 632.392C14.1231 632.587 14.1695 632.758 14.2642 632.903C14.3608 633.047 14.4981 633.16 14.6761 633.241C14.8542 633.321 15.0644 633.361 15.3068 633.361ZM15.3068 630.653C15.5 630.653 15.6714 630.615 15.821 630.537C15.9706 630.459 16.0881 630.351 16.1733 630.213C16.2604 630.075 16.3049 629.913 16.3068 629.727C16.3049 629.545 16.2614 629.386 16.1761 629.25C16.0928 629.114 15.9763 629.009 15.8267 628.935C15.6771 628.859 15.5038 628.821 15.3068 628.821C15.1061 628.821 14.9299 628.859 14.7784 628.935C14.6288 629.009 14.5123 629.114 14.429 629.25C14.3456 629.386 14.3049 629.545 14.3068 629.727C14.3049 629.913 14.3466 630.075 14.4318 630.213C14.517 630.351 14.6345 630.459 14.7841 630.537C14.9356 630.615 15.1098 630.653 15.3068 630.653Z" fill="#637792"/>
<rect x="1" y="649" width="528" height="36" fill="white"/>
<rect x="1" y="649" width="528" height="36" stroke="#F3F4F7"/>
<path d="M11.767 664.182V670H10.8864V665.062H10.8523L9.46023 665.972V665.131L10.9119 664.182H11.767ZM15.2756 664.102C15.535 664.104 15.7907 664.152 16.0426 664.244C16.2945 664.337 16.5218 664.489 16.7244 664.699C16.929 664.909 17.0919 665.193 17.2131 665.551C17.3362 665.907 17.3987 666.35 17.4006 666.881C17.4006 667.39 17.3494 667.844 17.2472 668.241C17.1449 668.637 16.9981 668.972 16.8068 669.244C16.6174 669.517 16.3873 669.724 16.1165 669.866C15.8456 670.009 15.5407 670.08 15.2017 670.08C14.8551 670.08 14.5473 670.011 14.2784 669.875C14.0095 669.739 13.7907 669.55 13.6222 669.31C13.4536 669.067 13.3485 668.789 13.3068 668.474H14.1733C14.2301 668.724 14.3456 668.927 14.5199 669.082C14.696 669.236 14.9233 669.312 15.2017 669.312C15.6278 669.312 15.9602 669.127 16.1989 668.756C16.4375 668.383 16.5578 667.862 16.5597 667.193H16.5142C16.4157 667.356 16.2926 667.496 16.1449 667.614C15.9991 667.731 15.8352 667.822 15.6534 667.886C15.4716 667.951 15.2775 667.983 15.071 667.983C14.7358 667.983 14.4309 667.901 14.1562 667.736C13.8816 667.571 13.6629 667.345 13.5 667.057C13.3371 666.769 13.2557 666.44 13.2557 666.071C13.2557 665.704 13.339 665.37 13.5057 665.071C13.6742 664.772 13.9091 664.535 14.2102 664.361C14.5133 664.185 14.8684 664.098 15.2756 664.102ZM15.2784 664.841C15.0568 664.841 14.857 664.896 14.679 665.006C14.5028 665.114 14.3636 665.26 14.2614 665.446C14.1591 665.63 14.108 665.834 14.108 666.06C14.108 666.285 14.1572 666.49 14.2557 666.673C14.3561 666.855 14.4924 667 14.6648 667.108C14.839 667.214 15.0379 667.267 15.2614 667.267C15.428 667.267 15.5833 667.235 15.7273 667.17C15.8712 667.106 15.9972 667.017 16.1051 666.903C16.2131 666.788 16.2973 666.657 16.358 666.511C16.4186 666.366 16.4489 666.212 16.4489 666.051C16.4489 665.837 16.3977 665.638 16.2955 665.455C16.1951 665.271 16.0568 665.123 15.8807 665.011C15.7045 664.898 15.5038 664.841 15.2784 664.841Z" fill="#637792"/>
<rect x="1" y="685" width="528" height="36" fill="white"/>
<rect x="1" y="685" width="528" height="36" stroke="#F3F4F7"/>
<path d="M9.55966 706V705.364L11.5284 703.324C11.7386 703.102 11.9119 702.908 12.0483 702.741C12.1866 702.573 12.2898 702.413 12.358 702.261C12.4261 702.11 12.4602 701.949 12.4602 701.778C12.4602 701.585 12.4148 701.419 12.3239 701.278C12.233 701.136 12.1089 701.027 11.9517 700.952C11.7945 700.874 11.6174 700.835 11.4205 700.835C11.2121 700.835 11.0303 700.878 10.875 700.963C10.7197 701.048 10.6004 701.169 10.517 701.324C10.4337 701.479 10.392 701.661 10.392 701.869H9.55398C9.55398 701.515 9.63542 701.205 9.7983 700.94C9.96117 700.675 10.1847 700.47 10.4688 700.324C10.7528 700.176 11.0758 700.102 11.4375 700.102C11.803 700.102 12.125 700.175 12.4034 700.321C12.6837 700.465 12.9025 700.662 13.0597 700.912C13.2169 701.16 13.2955 701.44 13.2955 701.753C13.2955 701.969 13.2547 702.18 13.1733 702.386C13.0938 702.593 12.9545 702.823 12.7557 703.077C12.5568 703.329 12.2803 703.634 11.9261 703.994L10.7699 705.205V705.247H13.3892V706H9.55966ZM16.4915 706.097C16.0426 706.095 15.6591 705.976 15.3409 705.741C15.0227 705.507 14.7794 705.165 14.6108 704.716C14.4422 704.267 14.358 703.726 14.358 703.094C14.358 702.463 14.4422 701.924 14.6108 701.477C14.7813 701.03 15.0256 700.689 15.3438 700.455C15.6638 700.22 16.0464 700.102 16.4915 700.102C16.9366 700.102 17.3182 700.221 17.6364 700.457C17.9545 700.692 18.1979 701.033 18.3665 701.48C18.5369 701.925 18.6222 702.463 18.6222 703.094C18.6222 703.728 18.5379 704.27 18.3693 704.719C18.2008 705.166 17.9574 705.508 17.6392 705.744C17.321 705.979 16.9384 706.097 16.4915 706.097ZM16.4915 705.338C16.8854 705.338 17.1932 705.146 17.4148 704.761C17.6383 704.377 17.75 703.821 17.75 703.094C17.75 702.611 17.6989 702.203 17.5966 701.869C17.4962 701.534 17.3513 701.28 17.1619 701.108C16.9744 700.934 16.7509 700.847 16.4915 700.847C16.0994 700.847 15.7917 701.04 15.5682 701.426C15.3447 701.812 15.232 702.368 15.2301 703.094C15.2301 703.579 15.2803 703.989 15.3807 704.324C15.483 704.657 15.6278 704.91 15.8153 705.082C16.0028 705.253 16.2282 705.338 16.4915 705.338Z" fill="#637792"/>
<rect x="1" y="721" width="528" height="36" fill="white"/>
<rect x="1" y="721" width="528" height="36" stroke="#F3F4F7"/>
<path d="M9.55966 742V741.364L11.5284 739.324C11.7386 739.102 11.9119 738.908 12.0483 738.741C12.1866 738.573 12.2898 738.413 12.358 738.261C12.4261 738.11 12.4602 737.949 12.4602 737.778C12.4602 737.585 12.4148 737.419 12.3239 737.278C12.233 737.136 12.1089 737.027 11.9517 736.952C11.7945 736.874 11.6174 736.835 11.4205 736.835C11.2121 736.835 11.0303 736.878 10.875 736.963C10.7197 737.048 10.6004 737.169 10.517 737.324C10.4337 737.479 10.392 737.661 10.392 737.869H9.55398C9.55398 737.515 9.63542 737.205 9.7983 736.94C9.96117 736.675 10.1847 736.47 10.4688 736.324C10.7528 736.176 11.0758 736.102 11.4375 736.102C11.803 736.102 12.125 736.175 12.4034 736.321C12.6837 736.465 12.9025 736.662 13.0597 736.912C13.2169 737.16 13.2955 737.44 13.2955 737.753C13.2955 737.969 13.2547 738.18 13.1733 738.386C13.0938 738.593 12.9545 738.823 12.7557 739.077C12.5568 739.329 12.2803 739.634 11.9261 739.994L10.7699 741.205V741.247H13.3892V742H9.55966ZM16.6733 736.182V742H15.7926V737.062H15.7585L14.3665 737.972V737.131L15.8182 736.182H16.6733Z" fill="#637792"/>
<rect x="1" y="757" width="528" height="36" fill="white"/>
<rect x="1" y="757" width="528" height="36" stroke="#F3F4F7"/>
<path d="M9.55966 778V777.364L11.5284 775.324C11.7386 775.102 11.9119 774.908 12.0483 774.741C12.1866 774.573 12.2898 774.413 12.358 774.261C12.4261 774.11 12.4602 773.949 12.4602 773.778C12.4602 773.585 12.4148 773.419 12.3239 773.278C12.233 773.136 12.1089 773.027 11.9517 772.952C11.7945 772.874 11.6174 772.835 11.4205 772.835C11.2121 772.835 11.0303 772.878 10.875 772.963C10.7197 773.048 10.6004 773.169 10.517 773.324C10.4337 773.479 10.392 773.661 10.392 773.869H9.55398C9.55398 773.515 9.63542 773.205 9.7983 772.94C9.96117 772.675 10.1847 772.47 10.4688 772.324C10.7528 772.176 11.0758 772.102 11.4375 772.102C11.803 772.102 12.125 772.175 12.4034 772.321C12.6837 772.465 12.9025 772.662 13.0597 772.912C13.2169 773.16 13.2955 773.44 13.2955 773.753C13.2955 773.969 13.2547 774.18 13.1733 774.386C13.0938 774.593 12.9545 774.823 12.7557 775.077C12.5568 775.329 12.2803 775.634 11.9261 775.994L10.7699 777.205V777.247H13.3892V778H9.55966ZM14.4659 778V777.364L16.4347 775.324C16.6449 775.102 16.8182 774.908 16.9545 774.741C17.0928 774.573 17.196 774.413 17.2642 774.261C17.3324 774.11 17.3665 773.949 17.3665 773.778C17.3665 773.585 17.321 773.419 17.2301 773.278C17.1392 773.136 17.0152 773.027 16.858 772.952C16.7008 772.874 16.5237 772.835 16.3267 772.835C16.1184 772.835 15.9366 772.878 15.7812 772.963C15.6259 773.048 15.5066 773.169 15.4233 773.324C15.34 773.479 15.2983 773.661 15.2983 773.869H14.4602C14.4602 773.515 14.5417 773.205 14.7045 772.94C14.8674 772.675 15.0909 772.47 15.375 772.324C15.6591 772.176 15.982 772.102 16.3438 772.102C16.7093 772.102 17.0313 772.175 17.3097 772.321C17.59 772.465 17.8087 772.662 17.9659 772.912C18.1231 773.16 18.2017 773.44 18.2017 773.753C18.2017 773.969 18.161 774.18 18.0795 774.386C18 774.593 17.8608 774.823 17.6619 775.077C17.4631 775.329 17.1866 775.634 16.8324 775.994L15.6761 777.205V777.247H18.2955V778H14.4659Z" fill="#637792"/>
<rect x="1" y="793" width="528" height="36" fill="white"/>
<rect x="1" y="793" width="528" height="36" stroke="#F3F4F7"/>
<path d="M9.55966 814V813.364L11.5284 811.324C11.7386 811.102 11.9119 810.908 12.0483 810.741C12.1866 810.573 12.2898 810.413 12.358 810.261C12.4261 810.11 12.4602 809.949 12.4602 809.778C12.4602 809.585 12.4148 809.419 12.3239 809.278C12.233 809.136 12.1089 809.027 11.9517 808.952C11.7945 808.874 11.6174 808.835 11.4205 808.835C11.2121 808.835 11.0303 808.878 10.875 808.963C10.7197 809.048 10.6004 809.169 10.517 809.324C10.4337 809.479 10.392 809.661 10.392 809.869H9.55398C9.55398 809.515 9.63542 809.205 9.7983 808.94C9.96117 808.675 10.1847 808.47 10.4688 808.324C10.7528 808.176 11.0758 808.102 11.4375 808.102C11.803 808.102 12.125 808.175 12.4034 808.321C12.6837 808.465 12.9025 808.662 13.0597 808.912C13.2169 809.16 13.2955 809.44 13.2955 809.753C13.2955 809.969 13.2547 810.18 13.1733 810.386C13.0938 810.593 12.9545 810.823 12.7557 811.077C12.5568 811.329 12.2803 811.634 11.9261 811.994L10.7699 813.205V813.247H13.3892V814H9.55966ZM16.4915 814.08C16.1013 814.08 15.7528 814.012 15.446 813.878C15.1411 813.743 14.8996 813.557 14.7216 813.318C14.5455 813.078 14.4508 812.799 14.4375 812.483H15.3295C15.3409 812.655 15.3987 812.805 15.5028 812.932C15.6089 813.057 15.7472 813.153 15.9176 813.222C16.0881 813.29 16.2775 813.324 16.4858 813.324C16.715 813.324 16.9176 813.284 17.0938 813.205C17.2718 813.125 17.411 813.014 17.5114 812.872C17.6117 812.728 17.6619 812.562 17.6619 812.375C17.6619 812.18 17.6117 812.009 17.5114 811.861C17.4129 811.711 17.268 811.594 17.0767 811.509C16.8873 811.423 16.6581 811.381 16.3892 811.381H15.8977V810.665H16.3892C16.6051 810.665 16.7945 810.626 16.9574 810.548C17.1222 810.471 17.2509 810.363 17.3438 810.224C17.4366 810.084 17.483 809.92 17.483 809.733C17.483 809.553 17.4422 809.397 17.3608 809.264C17.2813 809.13 17.1676 809.025 17.0199 808.949C16.8741 808.873 16.7017 808.835 16.5028 808.835C16.3134 808.835 16.1364 808.87 15.9716 808.94C15.8087 809.009 15.6761 809.107 15.5739 809.236C15.4716 809.363 15.4167 809.515 15.4091 809.693H14.5597C14.5691 809.379 14.6619 809.102 14.8381 808.864C15.0161 808.625 15.2509 808.438 15.5426 808.304C15.8343 808.17 16.1581 808.102 16.5142 808.102C16.8873 808.102 17.2093 808.175 17.4801 808.321C17.7528 808.465 17.9631 808.657 18.1108 808.898C18.2604 809.138 18.3343 809.402 18.3324 809.688C18.3343 810.013 18.2434 810.29 18.0597 810.517C17.8778 810.744 17.6354 810.897 17.3324 810.974V811.02C17.7188 811.079 18.018 811.232 18.2301 811.48C18.4441 811.728 18.5502 812.036 18.5483 812.403C18.5502 812.723 18.4612 813.01 18.2812 813.264C18.1032 813.518 17.8598 813.718 17.5511 813.864C17.2424 814.008 16.8892 814.08 16.4915 814.08Z" fill="#637792"/>
<rect x="1" y="829" width="528" height="36" fill="white"/>
<rect x="1" y="829" width="528" height="36" stroke="#F3F4F7"/>
<path d="M9.55966 850V849.364L11.5284 847.324C11.7386 847.102 11.9119 846.908 12.0483 846.741C12.1866 846.573 12.2898 846.413 12.358 846.261C12.4261 846.11 12.4602 845.949 12.4602 845.778C12.4602 845.585 12.4148 845.419 12.3239 845.278C12.233 845.136 12.1089 845.027 11.9517 844.952C11.7945 844.874 11.6174 844.835 11.4205 844.835C11.2121 844.835 11.0303 844.878 10.875 844.963C10.7197 845.048 10.6004 845.169 10.517 845.324C10.4337 845.479 10.392 845.661 10.392 845.869H9.55398C9.55398 845.515 9.63542 845.205 9.7983 844.94C9.96117 844.675 10.1847 844.47 10.4688 844.324C10.7528 844.176 11.0758 844.102 11.4375 844.102C11.803 844.102 12.125 844.175 12.4034 844.321C12.6837 844.465 12.9025 844.662 13.0597 844.912C13.2169 845.16 13.2955 845.44 13.2955 845.753C13.2955 845.969 13.2547 846.18 13.1733 846.386C13.0938 846.593 12.9545 846.823 12.7557 847.077C12.5568 847.329 12.2803 847.634 11.9261 847.994L10.7699 849.205V849.247H13.3892V850H9.55966ZM14.2188 848.864V848.153L16.733 844.182H17.2926V845.227H16.9375L15.1392 848.074V848.119H18.5852V848.864H14.2188ZM16.9773 850V848.648L16.983 848.324V844.182H17.8153V850H16.9773Z" fill="#637792"/>
<rect x="1" y="865" width="528" height="36" fill="white"/>
<rect x="1" y="865" width="528" height="36" stroke="#F3F4F7"/>
<path d="M9.55966 886V885.364L11.5284 883.324C11.7386 883.102 11.9119 882.908 12.0483 882.741C12.1866 882.573 12.2898 882.413 12.358 882.261C12.4261 882.11 12.4602 881.949 12.4602 881.778C12.4602 881.585 12.4148 881.419 12.3239 881.278C12.233 881.136 12.1089 881.027 11.9517 880.952C11.7945 880.874 11.6174 880.835 11.4205 880.835C11.2121 880.835 11.0303 880.878 10.875 880.963C10.7197 881.048 10.6004 881.169 10.517 881.324C10.4337 881.479 10.392 881.661 10.392 881.869H9.55398C9.55398 881.515 9.63542 881.205 9.7983 880.94C9.96117 880.675 10.1847 880.47 10.4688 880.324C10.7528 880.176 11.0758 880.102 11.4375 880.102C11.803 880.102 12.125 880.175 12.4034 880.321C12.6837 880.465 12.9025 880.662 13.0597 880.912C13.2169 881.16 13.2955 881.44 13.2955 881.753C13.2955 881.969 13.2547 882.18 13.1733 882.386C13.0938 882.593 12.9545 882.823 12.7557 883.077C12.5568 883.329 12.2803 883.634 11.9261 883.994L10.7699 885.205V885.247H13.3892V886H9.55966ZM16.3864 886.08C16.0303 886.08 15.7102 886.011 15.4261 885.875C15.1439 885.737 14.9186 885.547 14.75 885.307C14.5814 885.066 14.4915 884.792 14.4801 884.483H15.3324C15.3532 884.733 15.464 884.938 15.6648 885.099C15.8655 885.26 16.1061 885.341 16.3864 885.341C16.6098 885.341 16.8078 885.29 16.9801 885.188C17.1544 885.083 17.2907 884.94 17.3892 884.759C17.4896 884.577 17.5398 884.369 17.5398 884.136C17.5398 883.9 17.4886 883.688 17.3864 883.503C17.2841 883.317 17.143 883.171 16.9631 883.065C16.785 882.959 16.5805 882.905 16.3494 882.903C16.1733 882.903 15.9962 882.934 15.8182 882.994C15.6402 883.055 15.4962 883.134 15.3864 883.233L14.5824 883.114L14.9091 880.182H18.108V880.935H15.6392L15.4545 882.562H15.4886C15.6023 882.453 15.7528 882.361 15.9403 882.287C16.1297 882.213 16.3324 882.176 16.5483 882.176C16.9025 882.176 17.2178 882.26 17.4943 882.429C17.7727 882.598 17.9915 882.828 18.1506 883.119C18.3116 883.409 18.3911 883.742 18.3892 884.119C18.3911 884.496 18.3059 884.832 18.1335 885.128C17.9631 885.423 17.7263 885.656 17.4233 885.827C17.1222 885.995 16.7765 886.08 16.3864 886.08Z" fill="#637792"/>
<rect x="1" y="901" width="528" height="36" fill="white"/>
<rect x="1" y="901" width="528" height="36" stroke="#F3F4F7"/>
<path d="M9.55966 922V921.364L11.5284 919.324C11.7386 919.102 11.9119 918.908 12.0483 918.741C12.1866 918.573 12.2898 918.413 12.358 918.261C12.4261 918.11 12.4602 917.949 12.4602 917.778C12.4602 917.585 12.4148 917.419 12.3239 917.278C12.233 917.136 12.1089 917.027 11.9517 916.952C11.7945 916.874 11.6174 916.835 11.4205 916.835C11.2121 916.835 11.0303 916.878 10.875 916.963C10.7197 917.048 10.6004 917.169 10.517 917.324C10.4337 917.479 10.392 917.661 10.392 917.869H9.55398C9.55398 917.515 9.63542 917.205 9.7983 916.94C9.96117 916.675 10.1847 916.47 10.4688 916.324C10.7528 916.176 11.0758 916.102 11.4375 916.102C11.803 916.102 12.125 916.175 12.4034 916.321C12.6837 916.465 12.9025 916.662 13.0597 916.912C13.2169 917.16 13.2955 917.44 13.2955 917.753C13.2955 917.969 13.2547 918.18 13.1733 918.386C13.0938 918.593 12.9545 918.823 12.7557 919.077C12.5568 919.329 12.2803 919.634 11.9261 919.994L10.7699 921.205V921.247H13.3892V922H9.55966ZM16.4972 922.08C16.2377 922.076 15.982 922.028 15.7301 921.938C15.4801 921.847 15.2528 921.695 15.0483 921.483C14.8438 921.271 14.6799 920.986 14.5568 920.628C14.4356 920.27 14.375 919.823 14.375 919.287C14.375 918.779 14.4252 918.329 14.5256 917.935C14.6278 917.541 14.7746 917.208 14.9659 916.938C15.1572 916.665 15.3883 916.457 15.6591 916.315C15.9299 916.173 16.2339 916.102 16.571 916.102C16.9176 916.102 17.2254 916.17 17.4943 916.307C17.7633 916.443 17.9811 916.632 18.1477 916.872C18.3163 917.113 18.4233 917.386 18.4688 917.693H17.6023C17.5436 917.451 17.4271 917.253 17.2528 917.099C17.0786 916.946 16.8513 916.869 16.571 916.869C16.1449 916.869 15.8125 917.055 15.5739 917.426C15.3371 917.797 15.2178 918.313 15.2159 918.974H15.2585C15.3589 918.81 15.482 918.67 15.6278 918.554C15.7756 918.437 15.9403 918.347 16.1222 918.284C16.3059 918.22 16.4991 918.188 16.7017 918.188C17.0388 918.188 17.3438 918.27 17.6165 918.435C17.8911 918.598 18.1098 918.823 18.2727 919.111C18.4356 919.399 18.517 919.728 18.517 920.099C18.517 920.471 18.4328 920.807 18.2642 921.108C18.0975 921.409 17.8627 921.648 17.5597 921.824C17.2566 921.998 16.9025 922.083 16.4972 922.08ZM16.4943 921.341C16.7178 921.341 16.9176 921.286 17.0938 921.176C17.2699 921.066 17.4091 920.919 17.5114 920.733C17.6136 920.547 17.6648 920.34 17.6648 920.111C17.6648 919.887 17.6146 919.684 17.5142 919.5C17.4157 919.316 17.2794 919.17 17.1051 919.062C16.9328 918.955 16.7358 918.901 16.5142 918.901C16.3456 918.901 16.1894 918.933 16.0455 918.997C15.9034 919.062 15.7784 919.151 15.6705 919.264C15.5625 919.378 15.4773 919.509 15.4148 919.656C15.3542 919.802 15.3239 919.956 15.3239 920.119C15.3239 920.337 15.3741 920.539 15.4744 920.724C15.5767 920.91 15.7159 921.06 15.892 921.173C16.0701 921.285 16.2708 921.341 16.4943 921.341Z" fill="#637792"/>
<rect x="1" y="937" width="528" height="36" fill="white"/>
<rect x="1" y="937" width="528" height="36" stroke="#F3F4F7"/>
<path d="M9.55966 958V957.364L11.5284 955.324C11.7386 955.102 11.9119 954.908 12.0483 954.741C12.1866 954.573 12.2898 954.413 12.358 954.261C12.4261 954.11 12.4602 953.949 12.4602 953.778C12.4602 953.585 12.4148 953.419 12.3239 953.278C12.233 953.136 12.1089 953.027 11.9517 952.952C11.7945 952.874 11.6174 952.835 11.4205 952.835C11.2121 952.835 11.0303 952.878 10.875 952.963C10.7197 953.048 10.6004 953.169 10.517 953.324C10.4337 953.479 10.392 953.661 10.392 953.869H9.55398C9.55398 953.515 9.63542 953.205 9.7983 952.94C9.96117 952.675 10.1847 952.47 10.4688 952.324C10.7528 952.176 11.0758 952.102 11.4375 952.102C11.803 952.102 12.125 952.175 12.4034 952.321C12.6837 952.465 12.9025 952.662 13.0597 952.912C13.2169 953.16 13.2955 953.44 13.2955 953.753C13.2955 953.969 13.2547 954.18 13.1733 954.386C13.0938 954.593 12.9545 954.823 12.7557 955.077C12.5568 955.329 12.2803 955.634 11.9261 955.994L10.7699 957.205V957.247H13.3892V958H9.55966ZM14.6619 958L17.2017 952.977V952.935H14.2642V952.182H18.1108V952.96L15.5795 958H14.6619Z" fill="#637792"/>
<rect x="1" y="973" width="528" height="36" fill="white"/>
<rect x="1" y="973" width="528" height="36" stroke="#F3F4F7"/>
<path d="M9.55966 994V993.364L11.5284 991.324C11.7386 991.102 11.9119 990.908 12.0483 990.741C12.1866 990.573 12.2898 990.413 12.358 990.261C12.4261 990.11 12.4602 989.949 12.4602 989.778C12.4602 989.585 12.4148 989.419 12.3239 989.278C12.233 989.136 12.1089 989.027 11.9517 988.952C11.7945 988.874 11.6174 988.835 11.4205 988.835C11.2121 988.835 11.0303 988.878 10.875 988.963C10.7197 989.048 10.6004 989.169 10.517 989.324C10.4337 989.479 10.392 989.661 10.392 989.869H9.55398C9.55398 989.515 9.63542 989.205 9.7983 988.94C9.96117 988.675 10.1847 988.47 10.4688 988.324C10.7528 988.176 11.0758 988.102 11.4375 988.102C11.803 988.102 12.125 988.175 12.4034 988.321C12.6837 988.465 12.9025 988.662 13.0597 988.912C13.2169 989.16 13.2955 989.44 13.2955 989.753C13.2955 989.969 13.2547 990.18 13.1733 990.386C13.0938 990.593 12.9545 990.823 12.7557 991.077C12.5568 991.329 12.2803 991.634 11.9261 991.994L10.7699 993.205V993.247H13.3892V994H9.55966ZM16.4318 994.08C16.0246 994.08 15.6648 994.009 15.3523 993.869C15.0417 993.729 14.7983 993.536 14.6222 993.29C14.446 993.044 14.3589 992.763 14.3608 992.449C14.3589 992.203 14.4091 991.976 14.5114 991.77C14.6155 991.562 14.7566 991.388 14.9347 991.25C15.1127 991.11 15.3116 991.021 15.5312 990.983V990.949C15.2415 990.879 15.0095 990.723 14.8352 990.483C14.661 990.242 14.5748 989.966 14.5767 989.653C14.5748 989.356 14.6534 989.091 14.8125 988.858C14.9735 988.623 15.1941 988.438 15.4744 988.304C15.7547 988.17 16.0739 988.102 16.4318 988.102C16.786 988.102 17.1023 988.17 17.3807 988.307C17.661 988.441 17.8816 988.626 18.0426 988.861C18.2036 989.094 18.285 989.358 18.2869 989.653C18.285 989.966 18.196 990.242 18.0199 990.483C17.8438 990.723 17.6146 990.879 17.3324 990.949V990.983C17.5502 991.021 17.7462 991.11 17.9205 991.25C18.0966 991.388 18.2367 991.562 18.3409 991.77C18.447 991.976 18.5009 992.203 18.5028 992.449C18.5009 992.763 18.4119 993.044 18.2358 993.29C18.0597 993.536 17.8153 993.729 17.5028 993.869C17.1922 994.009 16.8352 994.08 16.4318 994.08ZM16.4318 993.361C16.6723 993.361 16.8807 993.321 17.0568 993.241C17.233 993.16 17.3693 993.047 17.4659 992.903C17.5625 992.758 17.6117 992.587 17.6136 992.392C17.6117 992.189 17.5587 992.01 17.4545 991.855C17.3523 991.7 17.2131 991.578 17.0369 991.489C16.8608 991.4 16.6591 991.355 16.4318 991.355C16.2027 991.355 15.9991 991.4 15.821 991.489C15.643 991.578 15.5028 991.7 15.4006 991.855C15.2983 992.01 15.2481 992.189 15.25 992.392C15.2481 992.587 15.2945 992.758 15.3892 992.903C15.4858 993.047 15.6231 993.16 15.8011 993.241C15.9792 993.321 16.1894 993.361 16.4318 993.361ZM16.4318 990.653C16.625 990.653 16.7964 990.615 16.946 990.537C17.0956 990.459 17.2131 990.351 17.2983 990.213C17.3854 990.075 17.4299 989.913 17.4318 989.727C17.4299 989.545 17.3864 989.386 17.3011 989.25C17.2178 989.114 17.1013 989.009 16.9517 988.935C16.8021 988.859 16.6288 988.821 16.4318 988.821C16.2311 988.821 16.0549 988.859 15.9034 988.935C15.7538 989.009 15.6373 989.114 15.554 989.25C15.4706 989.386 15.4299 989.545 15.4318 989.727C15.4299 989.913 15.4716 990.075 15.5568 990.213C15.642 990.351 15.7595 990.459 15.9091 990.537C16.0606 990.615 16.2348 990.653 16.4318 990.653Z" fill="#637792"/>
<rect x="1" y="1009" width="528" height="36" fill="white"/>
<rect x="1" y="1009" width="528" height="36" stroke="#F3F4F7"/>
<path d="M9.55966 1030V1029.36L11.5284 1027.32C11.7386 1027.1 11.9119 1026.91 12.0483 1026.74C12.1866 1026.57 12.2898 1026.41 12.358 1026.26C12.4261 1026.11 12.4602 1025.95 12.4602 1025.78C12.4602 1025.59 12.4148 1025.42 12.3239 1025.28C12.233 1025.14 12.1089 1025.03 11.9517 1024.95C11.7945 1024.87 11.6174 1024.84 11.4205 1024.84C11.2121 1024.84 11.0303 1024.88 10.875 1024.96C10.7197 1025.05 10.6004 1025.17 10.517 1025.32C10.4337 1025.48 10.392 1025.66 10.392 1025.87H9.55398C9.55398 1025.52 9.63542 1025.21 9.7983 1024.94C9.96117 1024.68 10.1847 1024.47 10.4688 1024.32C10.7528 1024.18 11.0758 1024.1 11.4375 1024.1C11.803 1024.1 12.125 1024.18 12.4034 1024.32C12.6837 1024.46 12.9025 1024.66 13.0597 1024.91C13.2169 1025.16 13.2955 1025.44 13.2955 1025.75C13.2955 1025.97 13.2547 1026.18 13.1733 1026.39C13.0938 1026.59 12.9545 1026.82 12.7557 1027.08C12.5568 1027.33 12.2803 1027.63 11.9261 1027.99L10.7699 1029.2V1029.25H13.3892V1030H9.55966ZM16.4006 1024.1C16.66 1024.1 16.9157 1024.15 17.1676 1024.24C17.4195 1024.34 17.6468 1024.49 17.8494 1024.7C18.054 1024.91 18.2169 1025.19 18.3381 1025.55C18.4612 1025.91 18.5237 1026.35 18.5256 1026.88C18.5256 1027.39 18.4744 1027.84 18.3722 1028.24C18.2699 1028.64 18.1231 1028.97 17.9318 1029.24C17.7424 1029.52 17.5123 1029.72 17.2415 1029.87C16.9706 1030.01 16.6657 1030.08 16.3267 1030.08C15.9801 1030.08 15.6723 1030.01 15.4034 1029.88C15.1345 1029.74 14.9157 1029.55 14.7472 1029.31C14.5786 1029.07 14.4735 1028.79 14.4318 1028.47H15.2983C15.3551 1028.72 15.4706 1028.93 15.6449 1029.08C15.821 1029.24 16.0483 1029.31 16.3267 1029.31C16.7528 1029.31 17.0852 1029.13 17.3239 1028.76C17.5625 1028.38 17.6828 1027.86 17.6847 1027.19H17.6392C17.5407 1027.36 17.4176 1027.5 17.2699 1027.61C17.1241 1027.73 16.9602 1027.82 16.7784 1027.89C16.5966 1027.95 16.4025 1027.98 16.196 1027.98C15.8608 1027.98 15.5559 1027.9 15.2812 1027.74C15.0066 1027.57 14.7879 1027.34 14.625 1027.06C14.4621 1026.77 14.3807 1026.44 14.3807 1026.07C14.3807 1025.7 14.464 1025.37 14.6307 1025.07C14.7992 1024.77 15.0341 1024.54 15.3352 1024.36C15.6383 1024.18 15.9934 1024.1 16.4006 1024.1ZM16.4034 1024.84C16.1818 1024.84 15.982 1024.9 15.804 1025.01C15.6278 1025.11 15.4886 1025.26 15.3864 1025.45C15.2841 1025.63 15.233 1025.83 15.233 1026.06C15.233 1026.29 15.2822 1026.49 15.3807 1026.67C15.4811 1026.86 15.6174 1027 15.7898 1027.11C15.964 1027.21 16.1629 1027.27 16.3864 1027.27C16.553 1027.27 16.7083 1027.23 16.8523 1027.17C16.9962 1027.11 17.1222 1027.02 17.2301 1026.9C17.3381 1026.79 17.4223 1026.66 17.483 1026.51C17.5436 1026.37 17.5739 1026.21 17.5739 1026.05C17.5739 1025.84 17.5227 1025.64 17.4205 1025.45C17.3201 1025.27 17.1818 1025.12 17.0057 1025.01C16.8295 1024.9 16.6288 1024.84 16.4034 1024.84Z" fill="#637792"/>
<path d="M1 1045H529V1073C529 1077.42 525.418 1081 521 1081H8.99999C4.58171 1081 1 1077.42 1 1073V1045Z" fill="white"/>
<path d="M1 1045H529V1073C529 1077.42 525.418 1081 521 1081H8.99999C4.58171 1081 1 1077.42 1 1073V1045Z" stroke="#F3F4F7"/>
<path d="M11.5852 1066.08C11.1951 1066.08 10.8466 1066.01 10.5398 1065.88C10.2348 1065.74 9.99337 1065.56 9.81534 1065.32C9.6392 1065.08 9.54451 1064.8 9.53125 1064.48H10.4233C10.4347 1064.66 10.4924 1064.8 10.5966 1064.93C10.7027 1065.06 10.8409 1065.15 11.0114 1065.22C11.1818 1065.29 11.3712 1065.32 11.5795 1065.32C11.8087 1065.32 12.0114 1065.28 12.1875 1065.2C12.3655 1065.12 12.5047 1065.01 12.6051 1064.87C12.7055 1064.73 12.7557 1064.56 12.7557 1064.38C12.7557 1064.18 12.7055 1064.01 12.6051 1063.86C12.5066 1063.71 12.3617 1063.59 12.1705 1063.51C11.9811 1063.42 11.7519 1063.38 11.483 1063.38H10.9915V1062.66H11.483C11.6989 1062.66 11.8883 1062.63 12.0511 1062.55C12.2159 1062.47 12.3447 1062.36 12.4375 1062.22C12.5303 1062.08 12.5767 1061.92 12.5767 1061.73C12.5767 1061.55 12.536 1061.4 12.4545 1061.26C12.375 1061.13 12.2614 1061.02 12.1136 1060.95C11.9678 1060.87 11.7955 1060.84 11.5966 1060.84C11.4072 1060.84 11.2301 1060.87 11.0653 1060.94C10.9025 1061.01 10.7699 1061.11 10.6676 1061.24C10.5653 1061.36 10.5104 1061.52 10.5028 1061.69H9.65341C9.66288 1061.38 9.75568 1061.1 9.93182 1060.86C10.1098 1060.62 10.3447 1060.44 10.6364 1060.3C10.928 1060.17 11.2519 1060.1 11.608 1060.1C11.9811 1060.1 12.303 1060.18 12.5739 1060.32C12.8466 1060.46 13.0568 1060.66 13.2045 1060.9C13.3542 1061.14 13.428 1061.4 13.4261 1061.69C13.428 1062.01 13.3371 1062.29 13.1534 1062.52C12.9716 1062.74 12.7292 1062.9 12.4261 1062.97V1063.02C12.8125 1063.08 13.1117 1063.23 13.3239 1063.48C13.5379 1063.73 13.6439 1064.04 13.642 1064.4C13.6439 1064.72 13.5549 1065.01 13.375 1065.26C13.197 1065.52 12.9536 1065.72 12.6449 1065.86C12.3362 1066.01 11.983 1066.08 11.5852 1066.08ZM16.7415 1066.1C16.2926 1066.09 15.9091 1065.98 15.5909 1065.74C15.2727 1065.51 15.0294 1065.16 14.8608 1064.72C14.6922 1064.27 14.608 1063.73 14.608 1063.09C14.608 1062.46 14.6922 1061.92 14.8608 1061.48C15.0313 1061.03 15.2756 1060.69 15.5938 1060.45C15.9138 1060.22 16.2964 1060.1 16.7415 1060.1C17.1866 1060.1 17.5682 1060.22 17.8864 1060.46C18.2045 1060.69 18.4479 1061.03 18.6165 1061.48C18.7869 1061.93 18.8722 1062.46 18.8722 1063.09C18.8722 1063.73 18.7879 1064.27 18.6193 1064.72C18.4508 1065.17 18.2074 1065.51 17.8892 1065.74C17.571 1065.98 17.1884 1066.1 16.7415 1066.1ZM16.7415 1065.34C17.1354 1065.34 17.4432 1065.15 17.6648 1064.76C17.8883 1064.38 18 1063.82 18 1063.09C18 1062.61 17.9489 1062.2 17.8466 1061.87C17.7462 1061.53 17.6013 1061.28 17.4119 1061.11C17.2244 1060.93 17.0009 1060.85 16.7415 1060.85C16.3494 1060.85 16.0417 1061.04 15.8182 1061.43C15.5947 1061.81 15.482 1062.37 15.4801 1063.09C15.4801 1063.58 15.5303 1063.99 15.6307 1064.32C15.733 1064.66 15.8778 1064.91 16.0653 1065.08C16.2528 1065.25 16.4782 1065.34 16.7415 1065.34Z" fill="#637792"/>
</svg>
