<svg width="794" height="1124" viewBox="0 0 794 1124" fill="none" xmlns="http://www.w3.org/2000/svg">
<path d="M0 1L794 1.00007" stroke="black"/>
<path d="M0 38.4L794 38.4001" stroke="black"/>
<path d="M0 75.8L794 75.8001" stroke="black"/>
<path d="M0 113.2L794 113.2" stroke="black"/>
<path d="M0 150.6L794 150.6" stroke="black"/>
<path d="M0 188L794 188" stroke="black"/>
<path d="M0 225.4L794 225.4" stroke="black"/>
<path d="M0 262.8L794 262.8" stroke="black"/>
<path d="M0 300.2L794 300.2" stroke="black"/>
<path d="M0 337.6L794 337.6" stroke="black"/>
<path d="M0 375L794 375" stroke="black"/>
<path d="M0 412.4L794 412.4" stroke="black"/>
<path d="M0 449.8L794 449.8" stroke="black"/>
<path d="M0 487.2L794 487.2" stroke="black"/>
<path d="M0 524.6L794 524.6" stroke="black"/>
<path d="M0 562L794 562" stroke="black"/>
<path d="M0 599.4L794 599.4" stroke="black"/>
<path d="M0 636.8L794 636.8" stroke="black"/>
<path d="M0 674.2L794 674.2" stroke="black"/>
<path d="M0 711.6L794 711.6" stroke="black"/>
<path d="M0 749L794 749" stroke="black"/>
<path d="M0 786.4L794 786.4" stroke="black"/>
<path d="M0 823.8L794 823.8" stroke="black"/>
<path d="M0 861.2L794 861.2" stroke="black"/>
<path d="M0 898.6L794 898.6" stroke="black"/>
<path d="M0 936L794 936" stroke="black"/>
<path d="M0 973.4L794 973.4" stroke="black"/>
<path d="M0 1010.8L794 1010.8" stroke="black"/>
<path d="M0 1048.2L794 1048.2" stroke="black"/>
<path d="M0 1085.6L794 1085.6" stroke="black"/>
<path d="M0 1123L794 1123" stroke="black"/>
<rect x="0.5" y="1.5" width="793" height="1121" stroke="black"/>
<path d="M11.3097 9.72727V17H10.429V10.6506H10.3864L8.6108 11.8295V10.9347L10.429 9.72727H11.3097Z" fill="black"/>
<path d="M8.75284 54.4V53.7608L11.1534 51.1329C11.4351 50.8252 11.6671 50.5577 11.8494 50.3304C12.0317 50.1008 12.1667 49.8853 12.2543 49.6841C12.3442 49.4805 12.3892 49.2674 12.3892 49.0449C12.3892 48.7892 12.3277 48.5678 12.2045 48.3808C12.0838 48.1938 11.9181 48.0494 11.7074 47.9476C11.4967 47.8458 11.2599 47.7949 10.9972 47.7949C10.7178 47.7949 10.474 47.8529 10.2656 47.9689C10.0597 48.0825 9.89986 48.2423 9.78622 48.4483C9.67495 48.6543 9.61932 48.8957 9.61932 49.1727H8.78125C8.78125 48.7466 8.8795 48.3725 9.07599 48.0506C9.27249 47.7286 9.54001 47.4776 9.87855 47.2977C10.2195 47.1178 10.6018 47.0278 11.0256 47.0278C11.4517 47.0278 11.8293 47.1178 12.1584 47.2977C12.4875 47.4776 12.7455 47.7203 12.9325 48.0257C13.1196 48.3311 13.2131 48.6708 13.2131 49.0449C13.2131 49.3124 13.1645 49.574 13.0675 49.8297C12.9728 50.083 12.8071 50.3659 12.5703 50.6784C12.3359 50.9885 12.0104 51.3673 11.5938 51.8148L9.96023 53.5619V53.6187H13.3409V54.4H8.75284Z" fill="black"/>
<path d="M11.2102 91.8994C10.7415 91.8994 10.3236 91.8189 9.95668 91.6579C9.59209 91.497 9.30208 91.2732 9.08665 90.9868C8.87358 90.698 8.75758 90.363 8.73864 89.9818H9.63352C9.65246 90.2162 9.73295 90.4186 9.875 90.5891C10.017 90.7571 10.2029 90.8873 10.4325 90.9797C10.6622 91.072 10.9167 91.1182 11.196 91.1182C11.5085 91.1182 11.7855 91.0637 12.027 90.9548C12.2685 90.8459 12.4579 90.6944 12.5952 90.5003C12.7325 90.3061 12.8011 90.0812 12.8011 89.8256C12.8011 89.558 12.7348 89.3225 12.6023 89.1189C12.4697 88.9129 12.2756 88.7519 12.0199 88.6359C11.7642 88.5199 11.4517 88.4619 11.0824 88.4619H10.5V87.6807H11.0824C11.3712 87.6807 11.6245 87.6286 11.8423 87.5244C12.0625 87.4203 12.2341 87.2735 12.3572 87.0841C12.4827 86.8947 12.5455 86.6721 12.5455 86.4165C12.5455 86.1703 12.491 85.956 12.3821 85.7737C12.2732 85.5914 12.1193 85.4494 11.9205 85.3476C11.724 85.2458 11.492 85.1949 11.2244 85.1949C10.9735 85.1949 10.7367 85.241 10.5142 85.3334C10.294 85.4233 10.1141 85.5547 9.97443 85.7275C9.83475 85.898 9.759 86.104 9.74716 86.3454H8.89489C8.90909 85.9643 9.02391 85.6305 9.23935 85.344C9.45478 85.0552 9.73651 84.8303 10.0845 84.6693C10.4349 84.5083 10.8196 84.4278 11.2386 84.4278C11.6884 84.4278 12.0743 84.519 12.3963 84.7013C12.7183 84.8812 12.9657 85.1191 13.1385 85.415C13.3113 85.711 13.3977 86.0306 13.3977 86.3739C13.3977 86.7834 13.29 87.1326 13.0746 87.4214C12.8615 87.7103 12.5715 87.9103 12.2045 88.0216V88.0784C12.6638 88.1542 13.0225 88.3495 13.2805 88.6643C13.5386 88.9768 13.6676 89.3639 13.6676 89.8256C13.6676 90.2209 13.5599 90.576 13.3445 90.8909C13.1314 91.2034 12.8402 91.4496 12.4709 91.6295C12.1016 91.8095 11.6813 91.8994 11.2102 91.8994Z" fill="black"/>
<path d="M8.58239 127.709V126.984L11.7784 121.927H12.304V123.049H11.9489L9.53409 126.87V126.927H13.8381V127.709H8.58239ZM12.0057 129.2V127.488V127.151V121.927H12.8438V129.2H12.0057Z" fill="black"/>
<path d="M11.0256 166.699C10.6089 166.699 10.2337 166.617 9.89986 166.451C9.56605 166.285 9.29853 166.058 9.0973 165.769C8.89607 165.48 8.78598 165.151 8.76705 164.782H9.61932C9.65246 165.111 9.80161 165.383 10.0668 165.599C10.3343 165.812 10.6539 165.918 11.0256 165.918C11.3239 165.918 11.589 165.848 11.821 165.709C12.0554 165.569 12.2389 165.377 12.3714 165.133C12.5064 164.887 12.5739 164.609 12.5739 164.299C12.5739 163.982 12.504 163.699 12.3643 163.45C12.227 163.199 12.0376 163.002 11.7962 162.857C11.5547 162.713 11.2789 162.639 10.9688 162.637C10.7462 162.635 10.5178 162.669 10.2834 162.74C10.049 162.809 9.85606 162.897 9.70455 163.006L8.88068 162.907L9.32102 159.327H13.0994V160.109H10.0597L9.80398 162.253H9.84659C9.99574 162.135 10.1828 162.037 10.4077 161.959C10.6326 161.881 10.867 161.841 11.1108 161.841C11.5559 161.841 11.9524 161.948 12.3004 162.161C12.6508 162.372 12.9254 162.661 13.1243 163.028C13.3255 163.395 13.4261 163.814 13.4261 164.285C13.4261 164.749 13.322 165.163 13.1136 165.528C12.9077 165.89 12.6236 166.176 12.2614 166.387C11.8991 166.595 11.4872 166.699 11.0256 166.699Z" fill="black"/>
<path d="M11.1676 204.099C10.8693 204.095 10.571 204.038 10.2727 203.929C9.97443 203.82 9.70218 203.637 9.45597 203.379C9.20975 203.118 9.01207 202.767 8.86293 202.324C8.71378 201.879 8.6392 201.32 8.6392 200.648C8.6392 200.004 8.69957 199.433 8.82031 198.936C8.94105 198.437 9.11624 198.016 9.34588 197.675C9.57552 197.332 9.85251 197.072 10.1768 196.894C10.5036 196.717 10.8717 196.628 11.2812 196.628C11.6884 196.628 12.0507 196.71 12.3679 196.873C12.6875 197.034 12.9479 197.259 13.1491 197.548C13.3504 197.836 13.4806 198.169 13.5398 198.545H12.6733C12.5928 198.219 12.4366 197.948 12.2045 197.732C11.9725 197.517 11.6648 197.409 11.2812 197.409C10.7178 197.409 10.2739 197.654 9.94957 198.144C9.6276 198.634 9.46544 199.322 9.46307 200.207H9.51989C9.65246 200.006 9.8099 199.835 9.99219 199.692C10.1768 199.548 10.3804 199.437 10.603 199.359C10.8255 199.281 11.0611 199.241 11.3097 199.241C11.7263 199.241 12.1075 199.346 12.4531 199.554C12.7988 199.76 13.0758 200.045 13.2841 200.41C13.4924 200.772 13.5966 201.188 13.5966 201.656C13.5966 202.106 13.496 202.518 13.2947 202.892C13.0935 203.264 12.8106 203.56 12.446 203.78C12.0838 203.998 11.6577 204.104 11.1676 204.099ZM11.1676 203.318C11.4659 203.318 11.7334 203.244 11.9702 203.094C12.2093 202.945 12.3975 202.745 12.5348 202.494C12.6745 202.243 12.7443 201.964 12.7443 201.656C12.7443 201.356 12.6768 201.082 12.5419 200.836C12.4093 200.587 12.2259 200.39 11.9915 200.243C11.7595 200.096 11.4943 200.023 11.196 200.023C10.9711 200.023 10.7616 200.068 10.5675 200.158C10.3733 200.245 10.2029 200.366 10.0561 200.52C9.9117 200.674 9.79806 200.85 9.7152 201.049C9.63234 201.246 9.59091 201.453 9.59091 201.67C9.59091 201.959 9.65838 202.229 9.79332 202.48C9.93063 202.731 10.1177 202.933 10.3544 203.087C10.5935 203.241 10.8646 203.318 11.1676 203.318Z" fill="black"/>
<path d="M8.98011 241.4L12.233 234.965V234.909H8.48295V234.127H13.142V234.951L9.90341 241.4H8.98011Z" fill="black"/>
<path d="M11.0824 278.899C10.5947 278.899 10.1638 278.813 9.78977 278.64C9.41809 278.465 9.12808 278.225 8.91974 277.919C8.71141 277.612 8.60843 277.261 8.6108 276.868C8.60843 276.56 8.6688 276.276 8.7919 276.016C8.91501 275.753 9.0831 275.534 9.29616 275.359C9.5116 275.181 9.75189 275.069 10.017 275.022V274.979C9.66903 274.889 9.39205 274.694 9.18608 274.393C8.98011 274.09 8.87831 273.746 8.88068 273.36C8.87831 272.99 8.97183 272.66 9.16122 272.369C9.35062 272.078 9.61103 271.848 9.94247 271.68C10.2763 271.512 10.6563 271.428 11.0824 271.428C11.5038 271.428 11.8802 271.512 12.2116 271.68C12.5431 271.848 12.8035 272.078 12.9929 272.369C13.1847 272.66 13.2817 272.99 13.2841 273.36C13.2817 273.746 13.1764 274.09 12.968 274.393C12.7621 274.694 12.4886 274.889 12.1477 274.979V275.022C12.4105 275.069 12.6473 275.181 12.858 275.359C13.0687 275.534 13.2367 275.753 13.3622 276.016C13.4877 276.276 13.5516 276.56 13.554 276.868C13.5516 277.261 13.4451 277.612 13.2344 277.919C13.026 278.225 12.736 278.465 12.3643 278.64C11.995 278.813 11.5677 278.899 11.0824 278.899ZM11.0824 278.118C11.4115 278.118 11.6955 278.065 11.9347 277.958C12.1738 277.852 12.3584 277.702 12.4886 277.507C12.6188 277.313 12.6851 277.086 12.6875 276.826C12.6851 276.551 12.6141 276.308 12.4744 276.098C12.3348 275.887 12.1442 275.721 11.9027 275.6C11.6636 275.48 11.3902 275.419 11.0824 275.419C10.7723 275.419 10.4953 275.48 10.2514 275.6C10.0099 275.721 9.81937 275.887 9.67969 276.098C9.54238 276.308 9.47491 276.551 9.47727 276.826C9.47491 277.086 9.53764 277.313 9.66548 277.507C9.79569 277.702 9.98153 277.852 10.223 277.958C10.4645 278.065 10.7509 278.118 11.0824 278.118ZM11.0824 274.666C11.3428 274.666 11.5736 274.614 11.7749 274.51C11.9785 274.406 12.1383 274.26 12.2543 274.073C12.3703 273.886 12.4295 273.667 12.4318 273.416C12.4295 273.17 12.3714 272.956 12.2578 272.774C12.1442 272.589 11.9867 272.447 11.7855 272.348C11.5843 272.246 11.3499 272.195 11.0824 272.195C10.8101 272.195 10.5722 272.246 10.3686 272.348C10.165 272.447 10.0076 272.589 9.89631 272.774C9.78504 272.956 9.73059 273.17 9.73295 273.416C9.73059 273.667 9.78622 273.886 9.89986 274.073C10.0159 274.26 10.1757 274.406 10.3793 274.51C10.5829 274.614 10.8172 274.666 11.0824 274.666Z" fill="black"/>
<path d="M11.0682 308.828C11.3665 308.83 11.6648 308.887 11.9631 308.998C12.2614 309.11 12.5336 309.294 12.7798 309.552C13.026 309.808 13.2237 310.157 13.3729 310.6C13.522 311.043 13.5966 311.598 13.5966 312.265C13.5966 312.912 13.535 313.486 13.4119 313.988C13.2912 314.487 13.116 314.909 12.8864 315.252C12.6591 315.595 12.3821 315.856 12.0554 316.033C11.7311 316.211 11.3641 316.299 10.9545 316.299C10.5473 316.299 10.1839 316.219 9.86435 316.058C9.54711 315.895 9.2867 315.668 9.0831 315.38C8.88187 315.088 8.75284 314.751 8.69602 314.368H9.5625C9.64062 314.701 9.79569 314.977 10.0277 315.195C10.2621 315.41 10.571 315.518 10.9545 315.518C11.5156 315.518 11.9583 315.273 12.2827 314.783C12.6094 314.293 12.7727 313.601 12.7727 312.706H12.7159C12.5833 312.905 12.4259 313.076 12.2436 313.221C12.0613 313.365 11.8589 313.476 11.6364 313.554C11.4138 313.633 11.1771 313.672 10.9261 313.672C10.5095 313.672 10.1271 313.569 9.77912 313.363C9.43348 313.154 9.15649 312.869 8.94815 312.507C8.74219 312.142 8.6392 311.726 8.6392 311.257C8.6392 310.812 8.73864 310.405 8.9375 310.035C9.13873 309.664 9.42045 309.368 9.78267 309.147C10.1473 308.927 10.5758 308.821 11.0682 308.828ZM11.0682 309.609C10.7699 309.609 10.5012 309.684 10.2621 309.833C10.0253 309.98 9.83712 310.178 9.69744 310.429C9.56013 310.678 9.49148 310.954 9.49148 311.257C9.49148 311.56 9.55777 311.836 9.69034 312.084C9.82528 312.33 10.0088 312.527 10.2408 312.674C10.4751 312.818 10.7415 312.89 11.0398 312.89C11.2647 312.89 11.4742 312.847 11.6683 312.759C11.8625 312.669 12.0317 312.547 12.1761 312.393C12.3229 312.237 12.4377 312.061 12.5206 311.864C12.6035 311.665 12.6449 311.458 12.6449 311.243C12.6449 310.959 12.5762 310.692 12.4389 310.444C12.304 310.195 12.117 309.994 11.8778 309.84C11.6411 309.686 11.3712 309.609 11.0682 309.609Z" fill="black"/>
<path d="M11.3097 346.327V353.6H10.429V347.251H10.3864L8.6108 348.43V347.535L10.429 346.327H11.3097ZM15.7734 353.699C15.2384 353.699 14.7827 353.554 14.4062 353.263C14.0298 352.969 13.7422 352.544 13.5433 351.988C13.3445 351.429 13.245 350.754 13.245 349.964C13.245 349.178 13.3445 348.506 13.5433 347.95C13.7446 347.391 14.0334 346.965 14.4098 346.672C14.7886 346.376 15.2431 346.228 15.7734 346.228C16.3037 346.228 16.7571 346.376 17.1335 346.672C17.5123 346.965 17.8011 347.391 18 347.95C18.2012 348.506 18.3018 349.178 18.3018 349.964C18.3018 350.754 18.2024 351.429 18.0036 351.988C17.8047 352.544 17.517 352.969 17.1406 353.263C16.7642 353.554 16.3085 353.699 15.7734 353.699ZM15.7734 352.918C16.3037 352.918 16.7157 352.662 17.0092 352.151C17.3028 351.64 17.4496 350.911 17.4496 349.964C17.4496 349.334 17.3821 348.798 17.2472 348.355C17.1146 347.912 16.9228 347.575 16.6719 347.343C16.4233 347.111 16.1238 346.995 15.7734 346.995C15.2479 346.995 14.8371 347.254 14.5412 347.773C14.2453 348.289 14.0973 349.019 14.0973 349.964C14.0973 350.593 14.1636 351.128 14.2962 351.569C14.4287 352.009 14.6193 352.344 14.8679 352.574C15.1188 352.803 15.4207 352.918 15.7734 352.918Z" fill="black"/>
<path d="M11.3097 383.727V391H10.429V384.651H10.3864L8.6108 385.83V384.935L10.429 383.727H11.3097ZM15.9581 383.727V391H15.0774V384.651H15.0348L13.2592 385.83V384.935L15.0774 383.727H15.9581Z" fill="black"/>
<path d="M11.3097 421.127V428.4H10.429V422.051H10.3864L8.6108 423.23V422.335L10.429 421.127H11.3097ZM13.4013 428.4V427.761L15.8018 425.133C16.0836 424.825 16.3156 424.558 16.4979 424.33C16.6802 424.101 16.8151 423.885 16.9027 423.684C16.9927 423.48 17.0376 423.267 17.0376 423.045C17.0376 422.789 16.9761 422.568 16.853 422.381C16.7322 422.194 16.5665 422.049 16.3558 421.948C16.1451 421.846 15.9084 421.795 15.6456 421.795C15.3662 421.795 15.1224 421.853 14.9141 421.969C14.7081 422.082 14.5483 422.242 14.4347 422.448C14.3234 422.654 14.2678 422.896 14.2678 423.173H13.4297C13.4297 422.747 13.5279 422.373 13.7244 422.051C13.9209 421.729 14.1884 421.478 14.527 421.298C14.8679 421.118 15.2502 421.028 15.674 421.028C16.1001 421.028 16.4777 421.118 16.8068 421.298C17.1359 421.478 17.3939 421.72 17.581 422.026C17.768 422.331 17.8615 422.671 17.8615 423.045C17.8615 423.312 17.813 423.574 17.7159 423.83C17.6212 424.083 17.4555 424.366 17.2188 424.678C16.9844 424.989 16.6589 425.367 16.2422 425.815L14.6087 427.562V427.619H17.9893V428.4H13.4013Z" fill="black"/>
<path d="M11.3097 458.527V465.8H10.429V459.451H10.3864L8.6108 460.63V459.735L10.429 458.527H11.3097ZM15.8587 465.899C15.3899 465.899 14.9721 465.819 14.6051 465.658C14.2405 465.497 13.9505 465.273 13.7351 464.987C13.522 464.698 13.406 464.363 13.3871 463.982H14.282C14.3009 464.216 14.3814 464.419 14.5234 464.589C14.6655 464.757 14.8513 464.887 15.081 464.98C15.3106 465.072 15.5651 465.118 15.8445 465.118C16.157 465.118 16.4339 465.064 16.6754 464.955C16.9169 464.846 17.1063 464.694 17.2436 464.5C17.3809 464.306 17.4496 464.081 17.4496 463.826C17.4496 463.558 17.3833 463.322 17.2507 463.119C17.1181 462.913 16.924 462.752 16.6683 462.636C16.4126 462.52 16.1001 462.462 15.7308 462.462H15.1484V461.681H15.7308C16.0196 461.681 16.273 461.629 16.4908 461.524C16.7109 461.42 16.8826 461.273 17.0057 461.084C17.1312 460.895 17.1939 460.672 17.1939 460.416C17.1939 460.17 17.1394 459.956 17.0305 459.774C16.9216 459.591 16.7678 459.449 16.5689 459.348C16.3724 459.246 16.1404 459.195 15.8729 459.195C15.6219 459.195 15.3852 459.241 15.1626 459.333C14.9425 459.423 14.7625 459.555 14.6229 459.728C14.4832 459.898 14.4074 460.104 14.3956 460.345H13.5433C13.5575 459.964 13.6723 459.63 13.8878 459.344C14.1032 459.055 14.3849 458.83 14.733 458.669C15.0833 458.508 15.468 458.428 15.8871 458.428C16.3369 458.428 16.7228 458.519 17.0447 458.701C17.3667 458.881 17.6141 459.119 17.7869 459.415C17.9598 459.711 18.0462 460.031 18.0462 460.374C18.0462 460.783 17.9384 461.133 17.723 461.421C17.5099 461.71 17.2199 461.91 16.853 462.022V462.078C17.3123 462.154 17.6709 462.349 17.929 462.664C18.187 462.977 18.3161 463.364 18.3161 463.826C18.3161 464.221 18.2083 464.576 17.9929 464.891C17.7798 465.203 17.4886 465.45 17.1193 465.63C16.75 465.809 16.3298 465.899 15.8587 465.899Z" fill="black"/>
<path d="M11.3097 495.927V503.2H10.429V496.851H10.3864L8.6108 498.029V497.135L10.429 495.927H11.3097ZM13.2308 501.708V500.984L16.4268 495.927H16.9524V497.049H16.5973L14.1825 500.87V500.927H18.4865V501.708H13.2308ZM16.6541 503.2V501.488V501.151V495.927H17.4922V503.2H16.6541Z" fill="black"/>
<path d="M11.3097 533.327V540.6H10.429V534.251H10.3864L8.6108 535.43V534.535L10.429 533.327H11.3097ZM15.674 540.699C15.2573 540.699 14.8821 540.617 14.5483 540.451C14.2145 540.285 13.947 540.058 13.7457 539.769C13.5445 539.48 13.4344 539.151 13.4155 538.782H14.2678C14.3009 539.111 14.45 539.383 14.7152 539.599C14.9827 539.812 15.3023 539.918 15.674 539.918C15.9723 539.918 16.2375 539.848 16.4695 539.709C16.7038 539.569 16.8873 539.377 17.0199 539.133C17.1548 538.887 17.2223 538.609 17.2223 538.299C17.2223 537.982 17.1525 537.699 17.0128 537.45C16.8755 537.199 16.6861 537.001 16.4446 536.857C16.2031 536.713 15.9273 536.639 15.6172 536.637C15.3946 536.635 15.1662 536.669 14.9318 536.74C14.6974 536.809 14.5045 536.897 14.353 537.006L13.5291 536.907L13.9695 533.327H17.7479V534.108H14.7081L14.4524 536.253H14.495C14.6442 536.135 14.8312 536.037 15.0561 535.959C15.281 535.881 15.5154 535.841 15.7592 535.841C16.2043 535.841 16.6009 535.948 16.9489 536.161C17.2992 536.372 17.5739 536.661 17.7727 537.028C17.974 537.394 18.0746 537.814 18.0746 538.285C18.0746 538.749 17.9704 539.163 17.7621 539.528C17.5561 539.89 17.272 540.176 16.9098 540.387C16.5476 540.595 16.1357 540.699 15.674 540.699Z" fill="black"/>
<path d="M11.3097 570.727V578H10.429V571.651H10.3864L8.6108 572.83V571.935L10.429 570.727H11.3097ZM15.8161 578.099C15.5178 578.095 15.2195 578.038 14.9212 577.929C14.6229 577.82 14.3506 577.637 14.1044 577.379C13.8582 577.118 13.6605 576.767 13.5114 576.324C13.3622 575.879 13.2876 575.32 13.2876 574.648C13.2876 574.004 13.348 573.433 13.4688 572.936C13.5895 572.437 13.7647 572.016 13.9943 571.675C14.224 571.332 14.5009 571.072 14.8253 570.894C15.152 570.717 15.5201 570.628 15.9297 570.628C16.3369 570.628 16.6991 570.71 17.0163 570.873C17.3359 571.034 17.5964 571.259 17.7976 571.548C17.9988 571.836 18.129 572.169 18.1882 572.545H17.3217C17.2412 572.219 17.085 571.948 16.853 571.732C16.621 571.517 16.3132 571.409 15.9297 571.409C15.3662 571.409 14.9223 571.654 14.598 572.144C14.276 572.634 14.1139 573.322 14.1115 574.207H14.1683C14.3009 574.006 14.4583 573.835 14.6406 573.692C14.8253 573.548 15.0289 573.437 15.2514 573.359C15.474 573.281 15.7095 573.241 15.9581 573.241C16.3748 573.241 16.7559 573.346 17.1016 573.554C17.4472 573.76 17.7242 574.045 17.9325 574.41C18.1409 574.772 18.245 575.188 18.245 575.656C18.245 576.106 18.1444 576.518 17.9432 576.892C17.742 577.264 17.459 577.56 17.0945 577.78C16.7322 577.998 16.3061 578.104 15.8161 578.099ZM15.8161 577.318C16.1143 577.318 16.3819 577.244 16.6186 577.094C16.8577 576.945 17.0459 576.745 17.1832 576.494C17.3229 576.243 17.3928 575.964 17.3928 575.656C17.3928 575.356 17.3253 575.082 17.1903 574.836C17.0578 574.587 16.8743 574.39 16.6399 574.243C16.4079 574.096 16.1428 574.023 15.8445 574.023C15.6196 574.023 15.41 574.068 15.2159 574.158C15.0218 574.245 14.8513 574.366 14.7045 574.52C14.5601 574.674 14.4465 574.85 14.3636 575.049C14.2808 575.246 14.2393 575.453 14.2393 575.67C14.2393 575.959 14.3068 576.229 14.4418 576.48C14.5791 576.731 14.7661 576.933 15.0028 577.087C15.242 577.241 15.513 577.318 15.8161 577.318Z" fill="black"/>
<path d="M11.3097 608.127V615.4H10.429V609.051H10.3864L8.6108 610.23V609.335L10.429 608.127H11.3097ZM13.6286 615.4L16.8814 608.965V608.909H13.1314V608.127H17.7905V608.951L14.5518 615.4H13.6286Z" fill="black"/>
<path d="M11.3097 645.527V652.8H10.429V646.451H10.3864L8.6108 647.63V646.735L10.429 645.527H11.3097ZM15.7308 652.899C15.2431 652.899 14.8123 652.813 14.4382 652.64C14.0665 652.465 13.7765 652.225 13.5682 651.919C13.3598 651.612 13.2569 651.261 13.2592 650.868C13.2569 650.56 13.3172 650.276 13.4403 650.016C13.5634 649.753 13.7315 649.534 13.9446 649.359C14.16 649.181 14.4003 649.069 14.6655 649.022V648.979C14.3175 648.889 14.0405 648.694 13.8345 648.393C13.6286 648.09 13.5268 647.746 13.5291 647.36C13.5268 646.99 13.6203 646.66 13.8097 646.369C13.9991 646.078 14.2595 645.848 14.5909 645.68C14.9247 645.512 15.3047 645.428 15.7308 645.428C16.1522 645.428 16.5286 645.512 16.8601 645.68C17.1915 645.848 17.4519 646.078 17.6413 646.369C17.8331 646.66 17.9302 646.99 17.9325 647.36C17.9302 647.746 17.8248 648.09 17.6165 648.393C17.4105 648.694 17.1371 648.889 16.7962 648.979V649.022C17.0589 649.069 17.2957 649.181 17.5064 649.359C17.7171 649.534 17.8852 649.753 18.0107 650.016C18.1361 650.276 18.2 650.56 18.2024 650.868C18.2 651.261 18.0935 651.612 17.8828 651.919C17.6745 652.225 17.3845 652.465 17.0128 652.64C16.6435 652.813 16.2161 652.899 15.7308 652.899ZM15.7308 652.118C16.0599 652.118 16.344 652.065 16.5831 651.958C16.8222 651.852 17.0069 651.702 17.1371 651.507C17.2673 651.313 17.3336 651.086 17.3359 650.826C17.3336 650.551 17.2625 650.308 17.1229 650.098C16.9832 649.887 16.7926 649.721 16.5511 649.6C16.312 649.48 16.0386 649.419 15.7308 649.419C15.4207 649.419 15.1437 649.48 14.8999 649.6C14.6584 649.721 14.4678 649.887 14.3281 650.098C14.1908 650.308 14.1233 650.551 14.1257 650.826C14.1233 651.086 14.1861 651.313 14.3139 651.507C14.4441 651.702 14.63 651.852 14.8714 651.958C15.1129 652.065 15.3994 652.118 15.7308 652.118ZM15.7308 648.667C15.9912 648.667 16.2221 648.614 16.4233 648.51C16.6269 648.406 16.7867 648.261 16.9027 648.073C17.0187 647.886 17.0779 647.667 17.0803 647.417C17.0779 647.17 17.0199 646.956 16.9062 646.774C16.7926 646.589 16.6352 646.447 16.4339 646.348C16.2327 646.246 15.9983 646.195 15.7308 646.195C15.4586 646.195 15.2206 646.246 15.017 646.348C14.8134 646.447 14.656 646.589 14.5447 646.774C14.4335 646.956 14.379 647.17 14.3814 647.417C14.379 647.667 14.4347 647.886 14.5483 648.073C14.6643 648.261 14.8241 648.406 15.0277 648.51C15.2313 648.614 15.4657 648.667 15.7308 648.667Z" fill="black"/>
<path d="M11.3097 682.927V690.2H10.429V683.851H10.3864L8.6108 685.03V684.135L10.429 682.927H11.3097ZM15.7166 682.828C16.0149 682.83 16.3132 682.887 16.6115 682.998C16.9098 683.11 17.1821 683.294 17.4283 683.552C17.6745 683.808 17.8722 684.157 18.0213 684.6C18.1705 685.043 18.245 685.598 18.245 686.265C18.245 686.912 18.1835 687.486 18.0604 687.988C17.9396 688.487 17.7644 688.909 17.5348 689.252C17.3075 689.595 17.0305 689.856 16.7038 690.033C16.3795 690.211 16.0125 690.3 15.603 690.3C15.1958 690.3 14.8324 690.219 14.5128 690.058C14.1955 689.895 13.9351 689.669 13.7315 689.38C13.5303 689.089 13.4013 688.751 13.3445 688.368H14.2109C14.2891 688.701 14.4441 688.977 14.6761 689.195C14.9105 689.411 15.2195 689.518 15.603 689.518C16.1641 689.518 16.6068 689.273 16.9311 688.783C17.2578 688.293 17.4212 687.601 17.4212 686.706H17.3643C17.2318 686.905 17.0743 687.076 16.892 687.221C16.7098 687.365 16.5073 687.476 16.2848 687.554C16.0623 687.633 15.8255 687.672 15.5746 687.672C15.1579 687.672 14.7756 687.569 14.4276 687.363C14.0819 687.154 13.8049 686.869 13.5966 686.507C13.3906 686.142 13.2876 685.726 13.2876 685.257C13.2876 684.812 13.3871 684.405 13.5859 684.035C13.7872 683.664 14.0689 683.368 14.4311 683.148C14.7957 682.927 15.2242 682.821 15.7166 682.828ZM15.7166 683.609C15.4183 683.609 15.1496 683.684 14.9105 683.833C14.6738 683.98 14.4856 684.179 14.3459 684.429C14.2086 684.678 14.1399 684.954 14.1399 685.257C14.1399 685.56 14.2062 685.836 14.3388 686.084C14.4737 686.331 14.6572 686.527 14.8892 686.674C15.1236 686.818 15.3899 686.89 15.6882 686.89C15.9131 686.89 16.1226 686.847 16.3168 686.759C16.5109 686.669 16.6802 686.547 16.8246 686.393C16.9714 686.237 17.0862 686.061 17.169 685.864C17.2519 685.665 17.2933 685.458 17.2933 685.243C17.2933 684.959 17.2247 684.692 17.0874 684.444C16.9524 684.195 16.7654 683.994 16.5263 683.84C16.2895 683.686 16.0196 683.609 15.7166 683.609Z" fill="black"/>
<path d="M8.75284 727.6V726.961L11.1534 724.333C11.4351 724.025 11.6671 723.758 11.8494 723.53C12.0317 723.301 12.1667 723.085 12.2543 722.884C12.3442 722.681 12.3892 722.468 12.3892 722.245C12.3892 721.989 12.3277 721.768 12.2045 721.581C12.0838 721.394 11.9181 721.249 11.7074 721.148C11.4967 721.046 11.2599 720.995 10.9972 720.995C10.7178 720.995 10.474 721.053 10.2656 721.169C10.0597 721.283 9.89986 721.442 9.78622 721.648C9.67495 721.854 9.61932 722.096 9.61932 722.373H8.78125C8.78125 721.947 8.8795 721.573 9.07599 721.251C9.27249 720.929 9.54001 720.678 9.87855 720.498C10.2195 720.318 10.6018 720.228 11.0256 720.228C11.4517 720.228 11.8293 720.318 12.1584 720.498C12.4875 720.678 12.7455 720.92 12.9325 721.226C13.1196 721.531 13.2131 721.871 13.2131 722.245C13.2131 722.513 13.1645 722.774 13.0675 723.03C12.9728 723.283 12.8071 723.566 12.5703 723.879C12.3359 724.189 12.0104 724.567 11.5938 725.015L9.96023 726.762V726.819H13.3409V727.6H8.75284ZM17.1797 727.7C16.6446 727.7 16.1889 727.554 15.8125 727.263C15.4361 726.969 15.1484 726.544 14.9496 725.988C14.7507 725.429 14.6513 724.754 14.6513 723.964C14.6513 723.178 14.7507 722.507 14.9496 721.95C15.1508 721.392 15.4396 720.965 15.8161 720.672C16.1948 720.376 16.6494 720.228 17.1797 720.228C17.71 720.228 18.1634 720.376 18.5398 720.672C18.9186 720.965 19.2074 721.392 19.4062 721.95C19.6075 722.507 19.7081 723.178 19.7081 723.964C19.7081 724.754 19.6087 725.429 19.4098 725.988C19.2109 726.544 18.9233 726.969 18.5469 727.263C18.1705 727.554 17.7147 727.7 17.1797 727.7ZM17.1797 726.918C17.71 726.918 18.1219 726.663 18.4155 726.151C18.709 725.64 18.8558 724.911 18.8558 723.964C18.8558 723.334 18.7884 722.798 18.6534 722.355C18.5208 721.912 18.3291 721.575 18.0781 721.343C17.8295 721.111 17.5301 720.995 17.1797 720.995C16.6541 720.995 16.2434 721.254 15.9474 721.773C15.6515 722.289 15.5036 723.019 15.5036 723.964C15.5036 724.593 15.5698 725.129 15.7024 725.569C15.835 726.009 16.0256 726.344 16.2741 726.574C16.5251 726.803 16.8269 726.918 17.1797 726.918Z" fill="black"/>
<path d="M8.75284 765V764.361L11.1534 761.733C11.4351 761.425 11.6671 761.158 11.8494 760.931C12.0317 760.701 12.1667 760.485 12.2543 760.284C12.3442 760.081 12.3892 759.868 12.3892 759.645C12.3892 759.389 12.3277 759.168 12.2045 758.981C12.0838 758.794 11.9181 758.65 11.7074 758.548C11.4967 758.446 11.2599 758.395 10.9972 758.395C10.7178 758.395 10.474 758.453 10.2656 758.569C10.0597 758.683 9.89986 758.842 9.78622 759.048C9.67495 759.254 9.61932 759.496 9.61932 759.773H8.78125C8.78125 759.347 8.8795 758.973 9.07599 758.651C9.27249 758.329 9.54001 758.078 9.87855 757.898C10.2195 757.718 10.6018 757.628 11.0256 757.628C11.4517 757.628 11.8293 757.718 12.1584 757.898C12.4875 758.078 12.7455 758.32 12.9325 758.626C13.1196 758.931 13.2131 759.271 13.2131 759.645C13.2131 759.913 13.1645 760.174 13.0675 760.43C12.9728 760.683 12.8071 760.966 12.5703 761.279C12.3359 761.589 12.0104 761.967 11.5938 762.415L9.96023 764.162V764.219H13.3409V765H8.75284ZM17.3643 757.727V765H16.4837V758.651H16.4411L14.6655 759.83V758.935L16.4837 757.727H17.3643Z" fill="black"/>
<path d="M8.75284 802.4V801.761L11.1534 799.133C11.4351 798.825 11.6671 798.558 11.8494 798.331C12.0317 798.101 12.1667 797.885 12.2543 797.684C12.3442 797.481 12.3892 797.268 12.3892 797.045C12.3892 796.789 12.3277 796.568 12.2045 796.381C12.0838 796.194 11.9181 796.05 11.7074 795.948C11.4967 795.846 11.2599 795.795 10.9972 795.795C10.7178 795.795 10.474 795.853 10.2656 795.969C10.0597 796.083 9.89986 796.242 9.78622 796.448C9.67495 796.654 9.61932 796.896 9.61932 797.173H8.78125C8.78125 796.747 8.8795 796.373 9.07599 796.051C9.27249 795.729 9.54001 795.478 9.87855 795.298C10.2195 795.118 10.6018 795.028 11.0256 795.028C11.4517 795.028 11.8293 795.118 12.1584 795.298C12.4875 795.478 12.7455 795.72 12.9325 796.026C13.1196 796.331 13.2131 796.671 13.2131 797.045C13.2131 797.313 13.1645 797.574 13.0675 797.83C12.9728 798.083 12.8071 798.366 12.5703 798.679C12.3359 798.989 12.0104 799.367 11.5938 799.815L9.96023 801.562V801.619H13.3409V802.4H8.75284ZM14.8075 802.4V801.761L17.2081 799.133C17.4898 798.825 17.7218 798.558 17.9041 798.331C18.0864 798.101 18.2214 797.885 18.3089 797.684C18.3989 797.481 18.4439 797.268 18.4439 797.045C18.4439 796.789 18.3823 796.568 18.2592 796.381C18.1385 796.194 17.9728 796.05 17.7621 795.948C17.5514 795.846 17.3146 795.795 17.0518 795.795C16.7725 795.795 16.5286 795.853 16.3203 795.969C16.1143 796.083 15.9545 796.242 15.8409 796.448C15.7296 796.654 15.674 796.896 15.674 797.173H14.8359C14.8359 796.747 14.9342 796.373 15.1307 796.051C15.3272 795.729 15.5947 795.478 15.9332 795.298C16.2741 795.118 16.6565 795.028 17.0803 795.028C17.5064 795.028 17.884 795.118 18.2131 795.298C18.5421 795.478 18.8002 795.72 18.9872 796.026C19.1742 796.331 19.2678 796.671 19.2678 797.045C19.2678 797.313 19.2192 797.574 19.1222 797.83C19.0275 798.083 18.8617 798.366 18.625 798.679C18.3906 798.989 18.0651 799.367 17.6484 799.815L16.0149 801.562V801.619H19.3956V802.4H14.8075Z" fill="black"/>
<path d="M8.75284 839.8V839.161L11.1534 836.533C11.4351 836.225 11.6671 835.958 11.8494 835.731C12.0317 835.501 12.1667 835.285 12.2543 835.084C12.3442 834.881 12.3892 834.668 12.3892 834.445C12.3892 834.189 12.3277 833.968 12.2045 833.781C12.0838 833.594 11.9181 833.45 11.7074 833.348C11.4967 833.246 11.2599 833.195 10.9972 833.195C10.7178 833.195 10.474 833.253 10.2656 833.369C10.0597 833.483 9.89986 833.643 9.78622 833.848C9.67495 834.054 9.61932 834.296 9.61932 834.573H8.78125C8.78125 834.147 8.8795 833.773 9.07599 833.451C9.27249 833.129 9.54001 832.878 9.87855 832.698C10.2195 832.518 10.6018 832.428 11.0256 832.428C11.4517 832.428 11.8293 832.518 12.1584 832.698C12.4875 832.878 12.7455 833.12 12.9325 833.426C13.1196 833.731 13.2131 834.071 13.2131 834.445C13.2131 834.713 13.1645 834.974 13.0675 835.23C12.9728 835.483 12.8071 835.766 12.5703 836.079C12.3359 836.389 12.0104 836.768 11.5938 837.215L9.96023 838.962V839.019H13.3409V839.8H8.75284ZM17.2649 839.9C16.7962 839.9 16.3783 839.819 16.0114 839.658C15.6468 839.497 15.3568 839.273 15.1413 838.987C14.9283 838.698 14.8123 838.363 14.7933 837.982H15.6882C15.7071 838.216 15.7876 838.419 15.9297 838.589C16.0717 838.757 16.2576 838.888 16.4872 838.98C16.7169 839.072 16.9714 839.118 17.2507 839.118C17.5632 839.118 17.8402 839.064 18.0817 838.955C18.3232 838.846 18.5125 838.695 18.6499 838.5C18.7872 838.306 18.8558 838.081 18.8558 837.826C18.8558 837.558 18.7895 837.323 18.657 837.119C18.5244 836.913 18.3303 836.752 18.0746 836.636C17.8189 836.52 17.5064 836.462 17.1371 836.462H16.5547V835.681H17.1371C17.4259 835.681 17.6792 835.629 17.897 835.525C18.1172 835.42 18.2888 835.274 18.4119 835.084C18.5374 834.895 18.6001 834.672 18.6001 834.417C18.6001 834.17 18.5457 833.956 18.4368 833.774C18.3279 833.592 18.174 833.45 17.9751 833.348C17.7786 833.246 17.5466 833.195 17.2791 833.195C17.0282 833.195 16.7914 833.241 16.5689 833.334C16.3487 833.424 16.1688 833.555 16.0291 833.728C15.8894 833.898 15.8137 834.104 15.8018 834.346H14.9496C14.9638 833.964 15.0786 833.631 15.294 833.344C15.5095 833.055 15.7912 832.83 16.1392 832.669C16.4896 832.509 16.8743 832.428 17.2933 832.428C17.7431 832.428 18.129 832.519 18.451 832.701C18.773 832.881 19.0204 833.119 19.1932 833.415C19.366 833.711 19.4524 834.031 19.4524 834.374C19.4524 834.784 19.3447 835.133 19.1293 835.422C18.9162 835.71 18.6262 835.91 18.2592 836.022V836.079C18.7185 836.154 19.0772 836.35 19.3352 836.665C19.5933 836.977 19.7223 837.364 19.7223 837.826C19.7223 838.221 19.6146 838.576 19.3991 838.891C19.1861 839.204 18.8949 839.45 18.5256 839.63C18.1563 839.81 17.736 839.9 17.2649 839.9Z" fill="black"/>
<path d="M8.75284 877.2V876.561L11.1534 873.933C11.4351 873.625 11.6671 873.358 11.8494 873.131C12.0317 872.901 12.1667 872.686 12.2543 872.484C12.3442 872.281 12.3892 872.068 12.3892 871.845C12.3892 871.589 12.3277 871.368 12.2045 871.181C12.0838 870.994 11.9181 870.85 11.7074 870.748C11.4967 870.646 11.2599 870.595 10.9972 870.595C10.7178 870.595 10.474 870.653 10.2656 870.769C10.0597 870.883 9.89986 871.043 9.78622 871.248C9.67495 871.454 9.61932 871.696 9.61932 871.973H8.78125C8.78125 871.547 8.8795 871.173 9.07599 870.851C9.27249 870.529 9.54001 870.278 9.87855 870.098C10.2195 869.918 10.6018 869.828 11.0256 869.828C11.4517 869.828 11.8293 869.918 12.1584 870.098C12.4875 870.278 12.7455 870.521 12.9325 870.826C13.1196 871.131 13.2131 871.471 13.2131 871.845C13.2131 872.113 13.1645 872.374 13.0675 872.63C12.9728 872.883 12.8071 873.166 12.5703 873.479C12.3359 873.789 12.0104 874.168 11.5938 874.615L9.96023 876.362V876.419H13.3409V877.2H8.75284ZM14.4808 875.709V874.984L17.6768 869.927H18.2024V871.05H17.8473L15.4325 874.871V874.927H19.7365V875.709H14.4808ZM17.9041 877.2V875.489V875.151V869.927H18.7422V877.2H17.9041Z" fill="black"/>
<path d="M8.75284 914.6V913.961L11.1534 911.333C11.4351 911.025 11.6671 910.758 11.8494 910.531C12.0317 910.301 12.1667 910.086 12.2543 909.884C12.3442 909.681 12.3892 909.468 12.3892 909.245C12.3892 908.989 12.3277 908.768 12.2045 908.581C12.0838 908.394 11.9181 908.25 11.7074 908.148C11.4967 908.046 11.2599 907.995 10.9972 907.995C10.7178 907.995 10.474 908.053 10.2656 908.169C10.0597 908.283 9.89986 908.443 9.78622 908.649C9.67495 908.854 9.61932 909.096 9.61932 909.373H8.78125C8.78125 908.947 8.8795 908.573 9.07599 908.251C9.27249 907.929 9.54001 907.678 9.87855 907.498C10.2195 907.318 10.6018 907.228 11.0256 907.228C11.4517 907.228 11.8293 907.318 12.1584 907.498C12.4875 907.678 12.7455 907.921 12.9325 908.226C13.1196 908.531 13.2131 908.871 13.2131 909.245C13.2131 909.513 13.1645 909.774 13.0675 910.03C12.9728 910.283 12.8071 910.566 12.5703 910.879C12.3359 911.189 12.0104 911.568 11.5938 912.015L9.96023 913.762V913.819H13.3409V914.6H8.75284ZM17.0803 914.7C16.6636 914.7 16.2884 914.617 15.9545 914.451C15.6207 914.285 15.3532 914.058 15.152 913.769C14.9508 913.48 14.8407 913.151 14.8217 912.782H15.674C15.7071 913.111 15.8563 913.383 16.1214 913.599C16.389 913.812 16.7086 913.918 17.0803 913.918C17.3786 913.918 17.6437 913.849 17.8757 913.709C18.1101 913.569 18.2936 913.377 18.4261 913.134C18.5611 912.887 18.6286 912.609 18.6286 912.299C18.6286 911.982 18.5587 911.699 18.419 911.45C18.2817 911.199 18.0923 911.002 17.8509 910.857C17.6094 910.713 17.3336 910.64 17.0234 910.637C16.8009 910.635 16.5724 910.669 16.3381 910.74C16.1037 910.809 15.9107 910.898 15.7592 911.006L14.9354 910.907L15.3757 907.327H19.1541V908.109H16.1143L15.8587 910.254H15.9013C16.0504 910.135 16.2375 910.037 16.4624 909.959C16.6873 909.881 16.9216 909.842 17.1655 909.842C17.6106 909.842 18.0071 909.948 18.3551 910.161C18.7055 910.372 18.9801 910.661 19.179 911.028C19.3802 911.395 19.4808 911.814 19.4808 912.285C19.4808 912.749 19.3767 913.163 19.1683 913.528C18.9624 913.89 18.6783 914.176 18.3161 914.387C17.9538 914.595 17.5419 914.7 17.0803 914.7Z" fill="black"/>
<path d="M8.75284 952V951.361L11.1534 948.733C11.4351 948.425 11.6671 948.158 11.8494 947.931C12.0317 947.701 12.1667 947.486 12.2543 947.284C12.3442 947.081 12.3892 946.868 12.3892 946.645C12.3892 946.389 12.3277 946.168 12.2045 945.981C12.0838 945.794 11.9181 945.65 11.7074 945.548C11.4967 945.446 11.2599 945.395 10.9972 945.395C10.7178 945.395 10.474 945.453 10.2656 945.569C10.0597 945.683 9.89986 945.843 9.78622 946.049C9.67495 946.255 9.61932 946.496 9.61932 946.773H8.78125C8.78125 946.347 8.8795 945.973 9.07599 945.651C9.27249 945.329 9.54001 945.078 9.87855 944.898C10.2195 944.718 10.6018 944.628 11.0256 944.628C11.4517 944.628 11.8293 944.718 12.1584 944.898C12.4875 945.078 12.7455 945.321 12.9325 945.626C13.1196 945.931 13.2131 946.271 13.2131 946.645C13.2131 946.913 13.1645 947.174 13.0675 947.43C12.9728 947.683 12.8071 947.966 12.5703 948.279C12.3359 948.589 12.0104 948.968 11.5938 949.415L9.96023 951.162V951.219H13.3409V952H8.75284ZM17.2223 952.1C16.924 952.095 16.6257 952.038 16.3274 951.929C16.0291 951.82 15.7569 951.637 15.5107 951.379C15.2644 951.118 15.0668 950.767 14.9176 950.324C14.7685 949.879 14.6939 949.32 14.6939 948.648C14.6939 948.004 14.7543 947.433 14.875 946.936C14.9957 946.437 15.1709 946.017 15.4006 945.676C15.6302 945.332 15.9072 945.072 16.2315 944.894C16.5582 944.717 16.9264 944.628 17.3359 944.628C17.7431 944.628 18.1054 944.71 18.4226 944.873C18.7422 945.034 19.0026 945.259 19.2038 945.548C19.4051 945.837 19.5353 946.169 19.5945 946.546H18.728C18.6475 946.219 18.4912 945.948 18.2592 945.732C18.0272 945.517 17.7195 945.409 17.3359 945.409C16.7725 945.409 16.3286 945.654 16.0043 946.144C15.6823 946.634 15.5201 947.322 15.5178 948.208H15.5746C15.7071 948.006 15.8646 947.835 16.0469 947.693C16.2315 947.548 16.4351 947.437 16.6577 947.359C16.8802 947.281 17.1158 947.242 17.3643 947.242C17.781 947.242 18.1622 947.346 18.5078 947.554C18.8535 947.76 19.1304 948.045 19.3388 948.41C19.5471 948.772 19.6513 949.188 19.6513 949.656C19.6513 950.106 19.5507 950.518 19.3494 950.892C19.1482 951.264 18.8653 951.56 18.5007 951.78C18.1385 951.998 17.7124 952.104 17.2223 952.1ZM17.2223 951.318C17.5206 951.318 17.7881 951.244 18.0249 951.095C18.264 950.946 18.4522 950.746 18.5895 950.495C18.7292 950.244 18.799 949.964 18.799 949.656C18.799 949.356 18.7315 949.082 18.5966 948.836C18.464 948.588 18.2805 948.39 18.0462 948.243C17.8142 948.096 17.549 948.023 17.2507 948.023C17.0258 948.023 16.8163 948.068 16.6222 948.158C16.428 948.246 16.2576 948.366 16.1108 948.52C15.9664 948.674 15.8527 948.85 15.7699 949.049C15.687 949.246 15.6456 949.453 15.6456 949.671C15.6456 949.96 15.7131 950.229 15.848 950.48C15.9853 950.731 16.1723 950.934 16.4091 951.088C16.6482 951.241 16.9193 951.318 17.2223 951.318Z" fill="black"/>
<path d="M8.75284 989.4V988.761L11.1534 986.133C11.4351 985.825 11.6671 985.558 11.8494 985.331C12.0317 985.101 12.1667 984.886 12.2543 984.684C12.3442 984.481 12.3892 984.268 12.3892 984.045C12.3892 983.789 12.3277 983.568 12.2045 983.381C12.0838 983.194 11.9181 983.05 11.7074 982.948C11.4967 982.846 11.2599 982.795 10.9972 982.795C10.7178 982.795 10.474 982.853 10.2656 982.969C10.0597 983.083 9.89986 983.243 9.78622 983.449C9.67495 983.655 9.61932 983.896 9.61932 984.173H8.78125C8.78125 983.747 8.8795 983.373 9.07599 983.051C9.27249 982.729 9.54001 982.478 9.87855 982.298C10.2195 982.118 10.6018 982.028 11.0256 982.028C11.4517 982.028 11.8293 982.118 12.1584 982.298C12.4875 982.478 12.7455 982.721 12.9325 983.026C13.1196 983.331 13.2131 983.671 13.2131 984.045C13.2131 984.313 13.1645 984.574 13.0675 984.83C12.9728 985.083 12.8071 985.366 12.5703 985.679C12.3359 985.989 12.0104 986.368 11.5938 986.815L9.96023 988.562V988.619H13.3409V989.4H8.75284ZM15.0348 989.4L18.2876 982.966V982.909H14.5376V982.128H19.1967V982.951L15.9581 989.4H15.0348Z" fill="black"/>
<path d="M8.75284 1026.8V1026.16L11.1534 1023.53C11.4351 1023.23 11.6671 1022.96 11.8494 1022.73C12.0317 1022.5 12.1667 1022.29 12.2543 1022.08C12.3442 1021.88 12.3892 1021.67 12.3892 1021.45C12.3892 1021.19 12.3277 1020.97 12.2045 1020.78C12.0838 1020.59 11.9181 1020.45 11.7074 1020.35C11.4967 1020.25 11.2599 1020.2 10.9972 1020.2C10.7178 1020.2 10.474 1020.25 10.2656 1020.37C10.0597 1020.48 9.89986 1020.64 9.78622 1020.85C9.67495 1021.05 9.61932 1021.3 9.61932 1021.57H8.78125C8.78125 1021.15 8.8795 1020.77 9.07599 1020.45C9.27249 1020.13 9.54001 1019.88 9.87855 1019.7C10.2195 1019.52 10.6018 1019.43 11.0256 1019.43C11.4517 1019.43 11.8293 1019.52 12.1584 1019.7C12.4875 1019.88 12.7455 1020.12 12.9325 1020.43C13.1196 1020.73 13.2131 1021.07 13.2131 1021.45C13.2131 1021.71 13.1645 1021.97 13.0675 1022.23C12.9728 1022.48 12.8071 1022.77 12.5703 1023.08C12.3359 1023.39 12.0104 1023.77 11.5938 1024.22L9.96023 1025.96V1026.02H13.3409V1026.8H8.75284ZM17.1371 1026.9C16.6494 1026.9 16.2185 1026.81 15.8445 1026.64C15.4728 1026.47 15.1828 1026.23 14.9744 1025.92C14.7661 1025.61 14.6631 1025.26 14.6655 1024.87C14.6631 1024.56 14.7235 1024.28 14.8466 1024.02C14.9697 1023.75 15.1378 1023.53 15.3509 1023.36C15.5663 1023.18 15.8066 1023.07 16.0717 1023.02V1022.98C15.7237 1022.89 15.4467 1022.69 15.2408 1022.39C15.0348 1022.09 14.933 1021.75 14.9354 1021.36C14.933 1020.99 15.0265 1020.66 15.2159 1020.37C15.4053 1020.08 15.6657 1019.85 15.9972 1019.68C16.331 1019.51 16.7109 1019.43 17.1371 1019.43C17.5585 1019.43 17.9349 1019.51 18.2663 1019.68C18.5978 1019.85 18.8582 1020.08 19.0476 1020.37C19.2393 1020.66 19.3364 1020.99 19.3388 1021.36C19.3364 1021.75 19.2311 1022.09 19.0227 1022.39C18.8168 1022.69 18.5433 1022.89 18.2024 1022.98V1023.02C18.4652 1023.07 18.7019 1023.18 18.9126 1023.36C19.1233 1023.53 19.2914 1023.75 19.4169 1024.02C19.5424 1024.28 19.6063 1024.56 19.6087 1024.87C19.6063 1025.26 19.4998 1025.61 19.2891 1025.92C19.0807 1026.23 18.7907 1026.47 18.419 1026.64C18.0497 1026.81 17.6224 1026.9 17.1371 1026.9ZM17.1371 1026.12C17.4661 1026.12 17.7502 1026.07 17.9893 1025.96C18.2285 1025.85 18.4131 1025.7 18.5433 1025.51C18.6735 1025.31 18.7398 1025.09 18.7422 1024.83C18.7398 1024.55 18.6688 1024.31 18.5291 1024.1C18.3894 1023.89 18.1989 1023.72 17.9574 1023.6C17.7183 1023.48 17.4448 1023.42 17.1371 1023.42C16.8269 1023.42 16.55 1023.48 16.3061 1023.6C16.0646 1023.72 15.8741 1023.89 15.7344 1024.1C15.5971 1024.31 15.5296 1024.55 15.532 1024.83C15.5296 1025.09 15.5923 1025.31 15.7202 1025.51C15.8504 1025.7 16.0362 1025.85 16.2777 1025.96C16.5192 1026.07 16.8056 1026.12 17.1371 1026.12ZM17.1371 1022.67C17.3975 1022.67 17.6283 1022.61 17.8295 1022.51C18.0331 1022.41 18.1929 1022.26 18.3089 1022.07C18.425 1021.89 18.4841 1021.67 18.4865 1021.42C18.4841 1021.17 18.4261 1020.96 18.3125 1020.77C18.1989 1020.59 18.0414 1020.45 17.8402 1020.35C17.639 1020.25 17.4046 1020.2 17.1371 1020.2C16.8648 1020.2 16.6269 1020.25 16.4233 1020.35C16.2197 1020.45 16.0623 1020.59 15.951 1020.77C15.8397 1020.96 15.7853 1021.17 15.7876 1021.42C15.7853 1021.67 15.8409 1021.89 15.9545 1022.07C16.0705 1022.26 16.2304 1022.41 16.4339 1022.51C16.6375 1022.61 16.8719 1022.67 17.1371 1022.67Z" fill="black"/>
<path d="M8.75284 1064.2V1063.56L11.1534 1060.93C11.4351 1060.63 11.6671 1060.36 11.8494 1060.13C12.0317 1059.9 12.1667 1059.69 12.2543 1059.48C12.3442 1059.28 12.3892 1059.07 12.3892 1058.85C12.3892 1058.59 12.3277 1058.37 12.2045 1058.18C12.0838 1057.99 11.9181 1057.85 11.7074 1057.75C11.4967 1057.65 11.2599 1057.6 10.9972 1057.6C10.7178 1057.6 10.474 1057.65 10.2656 1057.77C10.0597 1057.88 9.89986 1058.04 9.78622 1058.25C9.67495 1058.45 9.61932 1058.7 9.61932 1058.97H8.78125C8.78125 1058.55 8.8795 1058.17 9.07599 1057.85C9.27249 1057.53 9.54001 1057.28 9.87855 1057.1C10.2195 1056.92 10.6018 1056.83 11.0256 1056.83C11.4517 1056.83 11.8293 1056.92 12.1584 1057.1C12.4875 1057.28 12.7455 1057.52 12.9325 1057.83C13.1196 1058.13 13.2131 1058.47 13.2131 1058.85C13.2131 1059.11 13.1645 1059.37 13.0675 1059.63C12.9728 1059.88 12.8071 1060.17 12.5703 1060.48C12.3359 1060.79 12.0104 1061.17 11.5938 1061.62L9.96023 1063.36V1063.42H13.3409V1064.2H8.75284ZM17.1229 1056.83C17.4212 1056.83 17.7195 1056.89 18.0178 1057C18.3161 1057.11 18.5883 1057.29 18.8345 1057.55C19.0807 1057.81 19.2784 1058.16 19.4276 1058.6C19.5767 1059.04 19.6513 1059.6 19.6513 1060.27C19.6513 1060.91 19.5897 1061.49 19.4666 1061.99C19.3459 1062.49 19.1707 1062.91 18.9411 1063.25C18.7138 1063.6 18.4368 1063.86 18.1101 1064.03C17.7857 1064.21 17.4188 1064.3 17.0092 1064.3C16.602 1064.3 16.2386 1064.22 15.919 1064.06C15.6018 1063.89 15.3414 1063.67 15.1378 1063.38C14.9366 1063.09 14.8075 1062.75 14.7507 1062.37H15.6172C15.6953 1062.7 15.8504 1062.98 16.0824 1063.2C16.3168 1063.41 16.6257 1063.52 17.0092 1063.52C17.5703 1063.52 18.013 1063.27 18.3374 1062.78C18.6641 1062.29 18.8274 1061.6 18.8274 1060.71H18.7706C18.638 1060.9 18.4806 1061.08 18.2983 1061.22C18.116 1061.37 17.9136 1061.48 17.6911 1061.55C17.4685 1061.63 17.2318 1061.67 16.9808 1061.67C16.5642 1061.67 16.1818 1061.57 15.8338 1061.36C15.4882 1061.15 15.2112 1060.87 15.0028 1060.51C14.7969 1060.14 14.6939 1059.73 14.6939 1059.26C14.6939 1058.81 14.7933 1058.4 14.9922 1058.04C15.1934 1057.66 15.4751 1057.37 15.8374 1057.15C16.2019 1056.93 16.6304 1056.82 17.1229 1056.83ZM17.1229 1057.61C16.8246 1057.61 16.5559 1057.68 16.3168 1057.83C16.08 1057.98 15.8918 1058.18 15.7521 1058.43C15.6148 1058.68 15.5462 1058.95 15.5462 1059.26C15.5462 1059.56 15.6125 1059.84 15.745 1060.08C15.88 1060.33 16.0634 1060.53 16.2955 1060.67C16.5298 1060.82 16.7962 1060.89 17.0945 1060.89C17.3194 1060.89 17.5289 1060.85 17.723 1060.76C17.9171 1060.67 18.0864 1060.55 18.2308 1060.39C18.3776 1060.24 18.4924 1060.06 18.5753 1059.86C18.6581 1059.67 18.6996 1059.46 18.6996 1059.24C18.6996 1058.96 18.6309 1058.69 18.4936 1058.44C18.3587 1058.2 18.1716 1057.99 17.9325 1057.84C17.6958 1057.69 17.4259 1057.61 17.1229 1057.61Z" fill="black"/>
<path d="M11.2102 1101.7C10.7415 1101.7 10.3236 1101.62 9.95668 1101.46C9.59209 1101.3 9.30208 1101.07 9.08665 1100.79C8.87358 1100.5 8.75758 1100.16 8.73864 1099.78H9.63352C9.65246 1100.02 9.73295 1100.22 9.875 1100.39C10.017 1100.56 10.2029 1100.69 10.4325 1100.78C10.6622 1100.87 10.9167 1100.92 11.196 1100.92C11.5085 1100.92 11.7855 1100.86 12.027 1100.76C12.2685 1100.65 12.4579 1100.49 12.5952 1100.3C12.7325 1100.11 12.8011 1099.88 12.8011 1099.63C12.8011 1099.36 12.7348 1099.12 12.6023 1098.92C12.4697 1098.71 12.2756 1098.55 12.0199 1098.44C11.7642 1098.32 11.4517 1098.26 11.0824 1098.26H10.5V1097.48H11.0824C11.3712 1097.48 11.6245 1097.43 11.8423 1097.32C12.0625 1097.22 12.2341 1097.07 12.3572 1096.88C12.4827 1096.7 12.5455 1096.47 12.5455 1096.22C12.5455 1095.97 12.491 1095.76 12.3821 1095.57C12.2732 1095.39 12.1193 1095.25 11.9205 1095.15C11.724 1095.05 11.492 1095 11.2244 1095C10.9735 1095 10.7367 1095.04 10.5142 1095.13C10.294 1095.22 10.1141 1095.36 9.97443 1095.53C9.83475 1095.7 9.759 1095.9 9.74716 1096.15H8.89489C8.90909 1095.76 9.02391 1095.43 9.23935 1095.14C9.45478 1094.86 9.73651 1094.63 10.0845 1094.47C10.4349 1094.31 10.8196 1094.23 11.2386 1094.23C11.6884 1094.23 12.0743 1094.32 12.3963 1094.5C12.7183 1094.68 12.9657 1094.92 13.1385 1095.22C13.3113 1095.51 13.3977 1095.83 13.3977 1096.17C13.3977 1096.58 13.29 1096.93 13.0746 1097.22C12.8615 1097.51 12.5715 1097.71 12.2045 1097.82V1097.88C12.6638 1097.95 13.0225 1098.15 13.2805 1098.46C13.5386 1098.78 13.6676 1099.16 13.6676 1099.63C13.6676 1100.02 13.5599 1100.38 13.3445 1100.69C13.1314 1101 12.8402 1101.25 12.4709 1101.43C12.1016 1101.61 11.6813 1101.7 11.2102 1101.7ZM17.4922 1101.7C16.9571 1101.7 16.5014 1101.55 16.125 1101.26C15.7486 1100.97 15.4609 1100.54 15.2621 1099.99C15.0632 1099.43 14.9638 1098.75 14.9638 1097.96C14.9638 1097.18 15.0632 1096.51 15.2621 1095.95C15.4633 1095.39 15.7521 1094.97 16.1286 1094.67C16.5073 1094.38 16.9619 1094.23 17.4922 1094.23C18.0225 1094.23 18.4759 1094.38 18.8523 1094.67C19.2311 1094.97 19.5199 1095.39 19.7188 1095.95C19.92 1096.51 20.0206 1097.18 20.0206 1097.96C20.0206 1098.75 19.9212 1099.43 19.7223 1099.99C19.5234 1100.54 19.2358 1100.97 18.8594 1101.26C18.483 1101.55 18.0272 1101.7 17.4922 1101.7ZM17.4922 1100.92C18.0225 1100.92 18.4344 1100.66 18.728 1100.15C19.0215 1099.64 19.1683 1098.91 19.1683 1097.96C19.1683 1097.33 19.1009 1096.8 18.9659 1096.36C18.8333 1095.91 18.6416 1095.58 18.3906 1095.34C18.142 1095.11 17.8426 1095 17.4922 1095C16.9666 1095 16.5559 1095.25 16.2599 1095.77C15.964 1096.29 15.8161 1097.02 15.8161 1097.96C15.8161 1098.59 15.8823 1099.13 16.0149 1099.57C16.1475 1100.01 16.3381 1100.34 16.5866 1100.57C16.8376 1100.8 17.1394 1100.92 17.4922 1100.92Z" fill="black"/>
</svg>