<svg width="156" height="18" viewBox="0 0 156 18" fill="none" xmlns="http://www.w3.org/2000/svg">
<g id="Horizontal">
<path id="Vector" d="M4.21263 14.0236C3.35254 14.0236 2.625 13.7997 2.03001 13.352C1.43502 12.9043 0.981412 12.3004 0.669188 11.5405C0.356965 10.7806 0.200853 9.92342 0.200853 8.96908C0.200853 8.00884 0.356965 7.1517 0.669188 6.39765C0.981412 5.63771 1.44386 5.03977 2.05652 4.60384C2.66919 4.1679 3.42029 3.94994 4.30983 3.94994C5.17581 3.94994 5.91513 4.17085 6.5278 4.61268C7.14046 5.0545 7.60585 5.65539 7.92397 6.41533C8.24797 7.17527 8.40998 8.02652 8.40998 8.96908C8.40998 9.92342 8.24503 10.7835 7.91513 11.5493C7.59113 12.3093 7.1169 12.9131 6.49245 13.3608C5.8739 13.8027 5.11396 14.0236 4.21263 14.0236ZM0.032959 18V4.21503H0.960793V11.567H1.04916V18H0.032959ZM4.15078 13.0516C4.85181 13.0516 5.43502 12.8719 5.90041 12.5125C6.37169 12.1532 6.72515 11.6672 6.96079 11.0545C7.20232 10.4359 7.32309 9.7408 7.32309 8.96908C7.32309 8.20325 7.20527 7.51695 6.96963 6.91017C6.73988 6.29751 6.38936 5.81444 5.91808 5.46098C5.45269 5.10163 4.8577 4.92195 4.1331 4.92195C3.43207 4.92195 2.84592 5.09574 2.37464 5.44331C1.90336 5.78499 1.54989 6.26216 1.31425 6.87483C1.07861 7.48749 0.960793 8.18558 0.960793 8.96908C0.960793 9.74669 1.07567 10.4448 1.30542 11.0633C1.54106 11.676 1.89452 12.162 2.3658 12.5214C2.84297 12.8748 3.43796 13.0516 4.15078 13.0516ZM14.2683 14.0236C13.3198 14.0236 12.5157 13.8085 11.8559 13.3785C11.1961 12.9485 10.6925 12.3535 10.3449 11.5935C9.99731 10.8336 9.82353 9.95877 9.82353 8.96908C9.82353 7.9735 10.0003 7.09868 10.3537 6.34463C10.7072 5.58469 11.2138 4.99559 11.8736 4.57733C12.5393 4.15907 13.3375 3.94994 14.2683 3.94994C15.2167 3.94994 16.0209 4.16496 16.6807 4.595C17.3463 5.01916 17.85 5.60826 18.1917 6.36231C18.5393 7.11636 18.7131 7.98528 18.7131 8.96908C18.7131 9.97644 18.5393 10.8601 18.1917 11.62C17.8441 12.3741 17.3375 12.9632 16.6718 13.3873C16.0061 13.8115 15.205 14.0236 14.2683 14.0236ZM14.2683 13.0339C15.3935 13.0339 16.2329 12.6569 16.7867 11.9028C17.3463 11.1488 17.6262 10.1708 17.6262 8.96908C17.6262 7.74375 17.3463 6.76584 16.7867 6.03536C16.2271 5.30487 15.3876 4.93963 14.2683 4.93963C13.5084 4.93963 12.881 5.11341 12.3861 5.46098C11.8913 5.80266 11.5201 6.27689 11.2727 6.88366C11.0312 7.48454 10.9104 8.17968 10.9104 8.96908C10.9104 10.1944 11.1932 11.1782 11.7587 11.9205C12.3302 12.6627 13.1667 13.0339 14.2683 13.0339ZM20.6572 13.7585V4.21503H21.5851V6.50369L21.3553 6.20325C21.4614 5.93226 21.5939 5.68189 21.753 5.45215C21.9179 5.2165 22.0858 5.02505 22.2567 4.87777C22.51 4.64213 22.8075 4.4654 23.1491 4.34758C23.4908 4.22387 23.8354 4.15318 24.183 4.1355C24.5306 4.11194 24.8458 4.13845 25.1285 4.21503V5.17821C24.7515 5.08985 24.3509 5.07218 23.9268 5.12519C23.5026 5.17821 23.105 5.36083 22.7338 5.67306C22.4098 5.95583 22.1742 6.28572 22.0269 6.66275C21.8796 7.03388 21.7854 7.42563 21.7441 7.83801C21.7029 8.24449 21.6823 8.64213 21.6823 9.03094V13.7585H20.6572ZM31.8647 13.7585C31.3581 13.8704 30.8574 13.9116 30.3625 13.8822C29.8677 13.8586 29.4259 13.7496 29.0371 13.5552C28.6541 13.3549 28.3655 13.0486 28.1711 12.6362C28.012 12.3004 27.9237 11.9617 27.906 11.62C27.8883 11.2784 27.8795 10.8866 27.8795 10.4448V1.56408H28.9045V10.4271C28.9045 10.8277 28.9075 11.1605 28.9133 11.4256C28.9251 11.6848 28.987 11.9234 29.0989 12.1414C29.311 12.5479 29.6468 12.7953 30.1063 12.8837C30.5658 12.9661 31.1519 12.9514 31.8647 12.8395V13.7585ZM25.741 5.14287V4.21503H31.8647V5.14287H25.741ZM36.4446 14.0236C35.7083 14.0236 35.0956 13.894 34.6066 13.6348C34.1236 13.3756 33.7613 13.0339 33.5198 12.6097C33.2782 12.1797 33.1575 11.7143 33.1575 11.2136C33.1575 10.6716 33.2694 10.218 33.4932 9.85273C33.723 9.48749 34.0264 9.19294 34.4034 8.96908C34.7863 8.74522 35.2075 8.57733 35.667 8.4654C36.1913 8.34758 36.7569 8.24743 37.3636 8.16496C37.9704 8.07659 38.5477 8.00001 39.0956 7.93521C39.6493 7.87041 40.1 7.81444 40.4476 7.76731L40.0765 7.98823C40.1 6.9573 39.9056 6.19147 39.4932 5.69073C39.0868 5.1841 38.3681 4.93079 37.3371 4.93079C36.6125 4.93079 36.0146 5.09574 35.5433 5.42564C35.0779 5.74964 34.751 6.25332 34.5625 6.93668L33.5198 6.64508C33.7377 5.7791 34.1766 5.11341 34.8364 4.64802C35.4962 4.18263 36.3415 3.94994 37.3725 3.94994C38.2502 3.94994 38.9866 4.12078 39.5816 4.46246C40.1825 4.80413 40.6007 5.28425 40.8364 5.90281C40.9365 6.15612 41.0043 6.45362 41.0396 6.7953C41.075 7.13108 41.0926 7.46982 41.0926 7.8115V13.7585H40.1648V11.2489L40.5094 11.3373C40.2208 12.1974 39.7171 12.8601 38.9984 13.3255C38.2797 13.7909 37.4284 14.0236 36.4446 14.0236ZM36.4977 13.0869C37.1457 13.0869 37.7142 12.972 38.2031 12.7423C38.6921 12.5066 39.0868 12.1797 39.3872 11.7614C39.6935 11.3373 39.8879 10.8395 39.9704 10.268C40.0293 9.94993 40.0617 9.60531 40.0676 9.23418C40.0735 8.86304 40.0765 8.58911 40.0765 8.41238L40.5183 8.69515C40.1354 8.74228 39.6759 8.79235 39.1398 8.84537C38.6096 8.89839 38.0676 8.96319 37.5139 9.03977C36.9601 9.11635 36.4594 9.21356 36.0117 9.33138C35.7348 9.40796 35.455 9.51989 35.1722 9.66716C34.8953 9.80855 34.6626 10.0059 34.4741 10.2592C34.2915 10.5125 34.2002 10.8336 34.2002 11.2224C34.2002 11.5111 34.2709 11.7997 34.4122 12.0884C34.5595 12.377 34.801 12.6156 35.1368 12.8041C35.4726 12.9926 35.9262 13.0869 36.4977 13.0869ZM43.5639 13.7585V0.768791H44.5801V13.7585H43.5639ZM51.4674 14.0236C50.5778 14.0236 49.815 13.8027 49.1787 13.3608C48.5425 12.9131 48.0506 12.3093 47.703 11.5493C47.3614 10.7894 47.1905 9.93226 47.1905 8.97791C47.1905 8.02357 47.3614 7.16643 47.703 6.40649C48.0506 5.64655 48.5425 5.04861 49.1787 4.61268C49.815 4.17085 50.5749 3.94994 51.4585 3.94994C52.3599 3.94994 53.1169 4.16791 53.7295 4.60384C54.3422 5.03977 54.8046 5.63771 55.1169 6.39765C55.435 7.15759 55.594 8.01768 55.594 8.97791C55.594 9.92637 55.435 10.7835 55.1169 11.5493C54.8046 12.3093 54.3422 12.9131 53.7295 13.3608C53.1169 13.8027 52.3628 14.0236 51.4674 14.0236ZM51.6618 12.5832C52.3039 12.5832 52.8312 12.43 53.2435 12.1237C53.6559 11.8115 53.9593 11.3844 54.1537 10.8424C54.354 10.2946 54.4541 9.67305 54.4541 8.97791C54.4541 8.27099 54.354 7.64949 54.1537 7.11341C53.9593 6.57144 53.6588 6.15023 53.2524 5.84979C52.8459 5.54346 52.3304 5.39029 51.706 5.39029C51.058 5.39029 50.5219 5.54935 50.0977 5.86746C49.6795 6.18558 49.3672 6.61562 49.1611 7.15759C48.9608 7.69957 48.8606 8.30634 48.8606 8.97791C48.8606 9.65538 48.9637 10.268 49.1699 10.8159C49.3761 11.3579 49.6854 11.7879 50.0977 12.106C50.516 12.4242 51.0373 12.5832 51.6618 12.5832ZM54.4541 13.7585V6.73344H54.2774V1.03389H55.8591V13.7585H54.4541ZM61.0477 14.0236C60.3349 14.0236 59.737 13.894 59.2539 13.6348C58.7767 13.3697 58.4144 13.0221 58.167 12.5921C57.9255 12.162 57.8047 11.6907 57.8047 11.1782C57.8047 10.6775 57.899 10.2445 58.0875 9.87924C58.2819 9.50811 58.5529 9.20177 58.9004 8.96024C59.248 8.71282 59.6633 8.51842 60.1464 8.37703C60.6 8.25332 61.1066 8.14728 61.6663 8.05892C62.2318 7.96466 62.8032 7.87924 63.3806 7.80266C63.9579 7.72607 64.4969 7.65244 64.9976 7.58175L64.4321 7.9087C64.4498 7.06039 64.2789 6.433 63.9196 6.02652C63.5661 5.62004 62.9535 5.4168 62.0816 5.4168C61.5043 5.4168 60.9976 5.54935 60.5617 5.81444C60.1317 6.07365 59.8283 6.4978 59.6516 7.0869L58.1582 6.63624C58.3879 5.79971 58.8327 5.14287 59.4925 4.6657C60.1523 4.18852 61.0212 3.94994 62.0993 3.94994C62.9652 3.94994 63.7075 4.10605 64.3261 4.41827C64.9505 4.72461 65.3982 5.18999 65.6692 5.81444C65.8047 6.10899 65.8901 6.43005 65.9255 6.77762C65.9608 7.1193 65.9785 7.47865 65.9785 7.85568V13.7585H64.5823V11.4698L64.9093 11.6819C64.5499 12.4536 64.0462 13.0368 63.3982 13.4315C62.7561 13.8262 61.9726 14.0236 61.0477 14.0236ZM61.2863 12.7069C61.8518 12.7069 62.3408 12.6068 62.7532 12.4065C63.1714 12.2003 63.5072 11.9323 63.7605 11.6024C64.0138 11.2666 64.1788 10.9013 64.2554 10.5066C64.3437 10.2121 64.3909 9.88513 64.3968 9.52578C64.4085 9.16054 64.4144 8.88071 64.4144 8.68631L64.9623 8.9249C64.4498 8.99559 63.9461 9.06334 63.4513 9.12814C62.9564 9.19294 62.4881 9.26363 62.0462 9.34021C61.6044 9.4109 61.2068 9.49632 60.8533 9.59647C60.5941 9.67895 60.3496 9.78498 60.1199 9.91459C59.896 10.0442 59.7134 10.2121 59.572 10.4183C59.4365 10.6186 59.3688 10.8689 59.3688 11.1694C59.3688 11.4286 59.4336 11.676 59.5632 11.9116C59.6987 12.1473 59.9049 12.3387 60.1817 12.486C60.4645 12.6333 60.8327 12.7069 61.2863 12.7069ZM71.8813 14.0147C70.7443 14.0147 69.8106 13.7673 69.0801 13.2725C68.3555 12.7717 67.9108 12.0736 67.7458 11.1782L69.354 10.9219C69.4837 11.4404 69.7812 11.8527 70.2465 12.1591C70.7119 12.4595 71.2892 12.6097 71.9785 12.6097C72.6324 12.6097 73.1449 12.4742 73.516 12.2032C73.8872 11.9323 74.0727 11.5641 74.0727 11.0987C74.0727 10.8277 74.0109 10.6097 73.8872 10.4448C73.7635 10.2739 73.5072 10.1149 73.1184 9.96761C72.7355 9.82033 72.1552 9.6436 71.3776 9.43741C70.5352 9.21356 69.8725 8.98086 69.3894 8.73933C68.9063 8.4978 68.5617 8.21797 68.3555 7.89986C68.1493 7.58174 68.0462 7.19588 68.0462 6.74228C68.0462 6.18263 68.1994 5.69368 68.5057 5.27541C68.8121 4.85126 69.2392 4.52431 69.787 4.29456C70.3408 4.06481 70.9829 3.94994 71.7134 3.94994C72.438 3.94994 73.086 4.06481 73.6574 4.29456C74.2289 4.52431 74.6884 4.85126 75.0359 5.27541C75.3894 5.69368 75.5985 6.18263 75.6633 6.74228L74.0551 7.03388C73.9785 6.52136 73.7311 6.11783 73.3128 5.82328C72.9004 5.52873 72.3673 5.37262 71.7134 5.35494C71.0948 5.33138 70.5912 5.44036 70.2024 5.68189C69.8194 5.92343 69.628 6.25038 69.628 6.66275C69.628 6.8925 69.6987 7.08985 69.8401 7.25479C69.9873 7.41974 70.2554 7.57586 70.6442 7.72313C71.0389 7.87041 71.6103 8.0383 72.3585 8.22681C73.2009 8.43889 73.8636 8.67158 74.3467 8.9249C74.8356 9.17232 75.1832 9.46687 75.3894 9.80855C75.5956 10.1443 75.6987 10.5597 75.6987 11.0545C75.6987 11.9735 75.3599 12.6981 74.6825 13.2283C74.005 13.7526 73.0713 14.0147 71.8813 14.0147Z" fill="#1C1F24"/>
<path id="Vector_2" d="M78.2707 13.7319V4.18851H80.1529V6.51251L79.9231 6.21207C80.0409 5.89395 80.1971 5.6053 80.3915 5.34609C80.5917 5.081 80.8303 4.86303 81.1072 4.69219C81.3429 4.53313 81.6021 4.40942 81.8848 4.32106C82.1735 4.2268 82.468 4.17084 82.7685 4.15316C83.0689 4.1296 83.3605 4.14138 83.6433 4.18851V6.17672C83.3605 6.09425 83.0336 6.06774 82.6624 6.0972C82.2972 6.12665 81.9673 6.22974 81.6728 6.40647C81.3782 6.56553 81.1367 6.76877 80.9482 7.01619C80.7655 7.26362 80.63 7.54638 80.5417 7.8645C80.4533 8.17672 80.4091 8.51545 80.4091 8.8807V13.7319H78.2707ZM89.4957 13.997C88.5296 13.997 87.6813 13.7879 86.9508 13.3697C86.2203 12.9514 85.6489 12.3711 85.2365 11.6289C84.83 10.8866 84.6268 10.0324 84.6268 9.06627C84.6268 8.02356 84.8271 7.11929 85.2277 6.35345C85.6283 5.58173 86.185 4.98379 86.8978 4.55964C87.6106 4.13549 88.4353 3.92341 89.372 3.92341C90.3617 3.92341 91.2012 4.15611 91.8904 4.6215C92.5856 5.08099 93.101 5.73195 93.4368 6.57437C93.7726 7.41678 93.8993 8.40942 93.8168 9.55227H91.7048V8.77466C91.699 7.73784 91.5163 6.98085 91.157 6.50367C90.7976 6.0265 90.2321 5.78792 89.4604 5.78792C88.5885 5.78792 87.9405 6.05891 87.5163 6.60088C87.0922 7.13696 86.8801 7.92341 86.8801 8.96023C86.8801 9.92635 87.0922 10.6745 87.5163 11.2047C87.9405 11.7349 88.559 12 89.372 12C89.8963 12 90.347 11.8851 90.724 11.6554C91.1069 11.4197 91.4015 11.081 91.6076 10.6392L93.7107 11.2754C93.3455 12.1355 92.78 12.8041 92.0141 13.2813C91.2542 13.7585 90.4147 13.997 89.4957 13.997ZM86.2085 9.55227V7.94403H92.7741V9.55227H86.2085ZM99.6146 13.997C98.7369 13.997 97.971 13.7761 97.3171 13.3343C96.6632 12.8925 96.1566 12.2916 95.7973 11.5317C95.4379 10.7717 95.2582 9.91457 95.2582 8.96023C95.2582 7.9941 95.4379 7.13401 95.7973 6.37996C96.1625 5.62002 96.678 5.02209 97.3437 4.58615C98.0093 4.14433 98.7928 3.92341 99.6942 3.92341C100.601 3.92341 101.361 4.14433 101.974 4.58615C102.593 5.02209 103.061 5.62002 103.379 6.37996C103.697 7.1399 103.856 7.99999 103.856 8.96023C103.856 9.90868 103.697 10.7658 103.379 11.5317C103.061 12.2916 102.587 12.8925 101.956 13.3343C101.326 13.7761 100.545 13.997 99.6146 13.997ZM99.9416 12.0884C100.513 12.0884 100.973 11.9588 101.32 11.6995C101.674 11.4345 101.93 11.0663 102.089 10.595C102.254 10.1237 102.336 9.57878 102.336 8.96023C102.336 8.33578 102.254 7.79086 102.089 7.32547C101.93 6.85419 101.679 6.48895 101.338 6.22974C100.996 5.96465 100.554 5.8321 100.012 5.8321C99.4409 5.8321 98.9696 5.97348 98.5984 6.25625C98.2273 6.53313 97.9534 6.91015 97.7766 7.38733C97.5999 7.85861 97.5115 8.38291 97.5115 8.96023C97.5115 9.54344 97.597 10.0736 97.7678 10.5508C97.9445 11.0221 98.2126 11.3962 98.5719 11.673C98.9313 11.9499 99.3878 12.0884 99.9416 12.0884ZM102.336 13.7319V7.03387H102.071V1.00736H104.218V13.7319H102.336ZM109.365 13.997C108.675 13.997 108.092 13.8674 107.615 13.6082C107.138 13.3431 106.776 12.9926 106.528 12.5567C106.287 12.1208 106.166 11.6406 106.166 11.1163C106.166 10.6568 106.242 10.2445 106.396 9.87923C106.549 9.50809 106.784 9.18998 107.102 8.92488C107.421 8.65389 107.833 8.43298 108.34 8.26214C108.723 8.13843 109.17 8.0265 109.683 7.92635C110.201 7.82621 110.761 7.7349 111.362 7.65242C111.968 7.56406 112.602 7.4698 113.262 7.36965L112.502 7.80264C112.507 7.14285 112.36 6.65684 112.06 6.34462C111.759 6.03239 111.253 5.87628 110.54 5.87628C110.11 5.87628 109.695 5.97643 109.294 6.17672C108.893 6.37702 108.614 6.72164 108.454 7.2106L106.51 6.60088C106.746 5.79381 107.194 5.1458 107.854 4.65684C108.519 4.16789 109.415 3.92341 110.54 3.92341C111.388 3.92341 112.133 4.06185 112.776 4.33873C113.424 4.61561 113.904 5.06921 114.216 5.69955C114.387 6.03534 114.49 6.37996 114.525 6.73342C114.561 7.08099 114.578 7.46096 114.578 7.87333V13.7319H112.714V11.6642L113.023 12C112.593 12.6892 112.089 13.1959 111.512 13.5199C110.94 13.838 110.225 13.997 109.365 13.997ZM109.789 12.3004C110.272 12.3004 110.684 12.215 111.026 12.0442C111.368 11.8733 111.639 11.6642 111.839 11.4168C112.045 11.1694 112.183 10.9367 112.254 10.7187C112.366 10.4477 112.428 10.1384 112.44 9.79086C112.457 9.4374 112.466 9.15168 112.466 8.93372L113.12 9.12812C112.478 9.22827 111.927 9.31663 111.468 9.39322C111.008 9.4698 110.614 9.54344 110.284 9.61413C109.954 9.67893 109.662 9.75257 109.409 9.83504C109.161 9.92341 108.952 10.0265 108.781 10.1443C108.611 10.2621 108.478 10.3976 108.384 10.5508C108.295 10.704 108.251 10.8836 108.251 11.0898C108.251 11.3255 108.31 11.5346 108.428 11.7172C108.546 11.8939 108.717 12.0353 108.94 12.1414C109.17 12.2474 109.453 12.3004 109.789 12.3004ZM120.714 18C120.478 18 120.257 17.9676 120.051 17.9028C119.851 17.8439 119.665 17.7702 119.494 17.6819L119.963 16.4182C120.204 16.5007 120.393 16.542 120.528 16.542C120.705 16.542 120.84 16.4889 120.935 16.3829C121.035 16.2828 121.085 16.1767 121.085 16.0648C121.085 15.835 120.967 15.6671 120.731 15.5611C120.502 15.4551 120.234 15.3579 119.927 15.2695L120.555 13.458L121.845 13.4492L121.491 14.4742C121.833 14.6392 122.098 14.8571 122.287 15.1281C122.475 15.3991 122.569 15.7261 122.569 16.109C122.569 16.6686 122.384 17.1222 122.013 17.4698C121.647 17.8232 121.214 18 120.714 18ZM121.023 13.997C120.039 13.997 119.2 13.7791 118.505 13.3431C117.809 12.9013 117.276 12.3004 116.905 11.5405C116.54 10.7805 116.354 9.92046 116.348 8.96023C116.354 7.98232 116.546 7.11634 116.923 6.36229C117.306 5.60235 117.848 5.00736 118.549 4.57731C119.25 4.14138 120.083 3.92341 121.05 3.92341C122.133 3.92341 123.05 4.19735 123.798 4.74521C124.552 5.28718 125.044 6.02945 125.273 6.97201L123.153 7.54638C122.988 7.03386 122.714 6.63622 122.331 6.35345C121.948 6.06479 121.512 5.92046 121.023 5.92046C120.469 5.92046 120.013 6.05301 119.653 6.31811C119.294 6.57731 119.029 6.93666 118.858 7.39616C118.687 7.85566 118.602 8.37702 118.602 8.96023C118.602 9.86744 118.805 10.6009 119.212 11.1605C119.618 11.7202 120.222 12 121.023 12C121.589 12 122.033 11.8704 122.357 11.6112C122.687 11.352 122.935 10.9779 123.1 10.4889L125.273 10.975C124.979 11.947 124.463 12.6951 123.727 13.2194C122.991 13.7378 122.089 13.997 121.023 13.997ZM132.494 2.77466C132.211 2.77466 131.943 2.71281 131.69 2.5891C131.436 2.46539 131.192 2.324 130.956 2.16495C130.72 2 130.5 1.85567 130.293 1.73196C130.093 1.60824 129.907 1.54639 129.737 1.54639C129.542 1.54639 129.413 1.64359 129.348 1.83799C129.283 2.02651 129.286 2.2592 129.357 2.53608H128.014C127.849 1.82916 127.89 1.23122 128.137 0.742267C128.391 0.247422 128.859 0 129.542 0C129.825 0 130.093 0.0618548 130.346 0.185566C130.606 0.309277 130.85 0.453608 131.08 0.618556C131.315 0.777614 131.533 0.918998 131.734 1.04271C131.94 1.16642 132.131 1.22828 132.308 1.22828C132.491 1.22828 132.617 1.13402 132.688 0.945508C132.765 0.751104 132.762 0.512518 132.679 0.22975H134.022C134.199 0.93078 134.161 1.53166 133.907 2.0324C133.654 2.52724 133.183 2.77466 132.494 2.77466ZM131 13.997C130.046 13.997 129.212 13.782 128.5 13.352C127.787 12.9219 127.233 12.3299 126.838 11.5758C126.449 10.8159 126.255 9.94403 126.255 8.96023C126.255 7.95876 126.455 7.08099 126.856 6.32694C127.257 5.5729 127.813 4.98379 128.526 4.55964C129.239 4.13549 130.064 3.92341 131 3.92341C131.96 3.92341 132.797 4.13843 133.51 4.56848C134.223 4.99852 134.776 5.59351 135.171 6.35345C135.566 7.1075 135.763 7.97643 135.763 8.96023C135.763 9.94992 135.563 10.8247 135.162 11.5847C134.768 12.3387 134.214 12.9308 133.501 13.3608C132.788 13.785 131.955 13.997 131 13.997ZM131 12C131.849 12 132.479 11.7172 132.891 11.1517C133.304 10.5861 133.51 9.85566 133.51 8.96023C133.51 8.03534 133.301 7.29896 132.882 6.7511C132.464 6.19734 131.837 5.92046 131 5.92046C130.429 5.92046 129.958 6.05007 129.586 6.30927C129.221 6.56258 128.95 6.91899 128.773 7.37849C128.597 7.8321 128.508 8.35934 128.508 8.96023C128.508 9.88512 128.717 10.6244 129.136 11.1782C129.56 11.7261 130.181 12 131 12ZM142.049 13.997C141.083 13.997 140.234 13.7879 139.504 13.3697C138.773 12.9514 138.202 12.3711 137.79 11.6289C137.383 10.8866 137.18 10.0324 137.18 9.06627C137.18 8.02356 137.38 7.11929 137.781 6.35345C138.181 5.58173 138.738 4.98379 139.451 4.55964C140.164 4.13549 140.988 3.92341 141.925 3.92341C142.915 3.92341 143.754 4.15611 144.444 4.6215C145.139 5.08099 145.654 5.73195 145.99 6.57437C146.326 7.41678 146.452 8.40942 146.37 9.55227H144.258V8.77466C144.252 7.73784 144.069 6.98085 143.71 6.50367C143.351 6.0265 142.785 5.78792 142.013 5.78792C141.142 5.78792 140.494 6.05891 140.069 6.60088C139.645 7.13696 139.433 7.92341 139.433 8.96023C139.433 9.92635 139.645 10.6745 140.069 11.2047C140.494 11.7349 141.112 12 141.925 12C142.449 12 142.9 11.8851 143.277 11.6554C143.66 11.4197 143.955 11.081 144.161 10.6392L146.264 11.2754C145.899 12.1355 145.333 12.8041 144.567 13.2813C143.807 13.7585 142.968 13.997 142.049 13.997ZM138.762 9.55227V7.94403H145.327V9.55227H138.762ZM152.026 13.997C150.848 13.997 149.891 13.7319 149.155 13.2018C148.418 12.6716 147.97 11.9263 147.811 10.9661L149.985 10.6303C150.097 11.1016 150.344 11.4727 150.727 11.7437C151.11 12.0147 151.593 12.1502 152.176 12.1502C152.689 12.1502 153.084 12.0501 153.36 11.8498C153.643 11.6436 153.785 11.3638 153.785 11.0103C153.785 10.7923 153.732 10.6185 153.626 10.4889C153.525 10.3535 153.302 10.2238 152.954 10.1001C152.606 9.97643 152.073 9.82031 151.355 9.6318C150.554 9.41972 149.917 9.19292 149.446 8.95139C148.975 8.70397 148.636 8.41236 148.43 8.07657C148.224 7.74079 148.121 7.33431 148.121 6.85714C148.121 6.26214 148.277 5.74373 148.589 5.30191C148.901 4.86008 149.337 4.52135 149.897 4.28571C150.456 4.04418 151.116 3.92341 151.876 3.92341C152.618 3.92341 153.275 4.03829 153.846 4.26804C154.424 4.49779 154.889 4.82474 155.243 5.24889C155.596 5.67304 155.814 6.17083 155.897 6.74226L153.723 7.13107C153.67 6.72459 153.484 6.40353 153.166 6.16789C152.854 5.93225 152.436 5.7997 151.911 5.77024C151.411 5.74079 151.007 5.81737 150.701 5.99999C150.395 6.17672 150.241 6.42709 150.241 6.7511C150.241 6.93372 150.303 7.08983 150.427 7.21943C150.551 7.34903 150.798 7.47864 151.169 7.60824C151.546 7.73784 152.106 7.8969 152.848 8.08541C153.608 8.27982 154.215 8.50367 154.668 8.75699C155.128 9.00441 155.458 9.30191 155.658 9.64948C155.864 9.99705 155.967 10.4183 155.967 10.9131C155.967 11.8733 155.617 12.6274 154.916 13.1752C154.221 13.7231 153.257 13.997 152.026 13.997Z" fill="#4B1DF2"/>
</g>
</svg>
