<svg width="241" height="69" viewBox="0 0 241 69" fill="none" xmlns="http://www.w3.org/2000/svg">
<mask id="path-1-outside-1_1231_3020" maskUnits="userSpaceOnUse" x="0" y="0" width="241" height="69" fill="black">
<rect fill="white" width="241" height="69"/>
<path d="M0 0H240V68H0V0Z"/>
</mask>
<path d="M0 0H240V68H0V0Z" fill="white"/>
<g clip-path="url(#clip0_1231_3020)">
<path d="M73.5634 42.0475L71.8876 41.4892L71.8817 41.5H69.3817L69.3759 41.4892L67.7001 42.0475C67.5501 42.0975 67.3992 42.1383 67.2476 42.17C67.5759 42.6717 68.0067 43.0875 68.5059 43.3958C69.1334 43.7833 69.8667 44 70.6326 44C72.0067 44 73.2759 43.3033 74.0167 42.17C73.8651 42.1383 73.7134 42.0975 73.5642 42.0475H73.5634Z" fill="url(#paint0_radial_1231_3020)"/>
<path d="M74.0159 25.8292C73.8642 25.8608 73.7125 25.9017 73.5634 25.9517L71.8875 26.5108L71.8817 26.5H69.3817L67.2984 30.6667L66.49 32.2833L65.8034 33.6567L65.6317 34L65.8034 34.3433L66.49 35.7167L67.2984 37.3333L63.965 35.6667C63.44 34.6175 63.44 33.3825 63.965 32.3333L64.4192 31.4258L64.8034 30.6567L65.6317 29L65.875 28.5142L66.2234 27.8158L67.0134 26.2358C67.0842 26.095 67.1617 25.9592 67.2467 25.8292C67.9884 24.6967 69.2575 24 70.6317 24C71.3975 24 72.1309 24.2167 72.7584 24.6042C73.2567 24.9125 73.6875 25.3275 74.0167 25.8292H74.0159Z" fill="url(#paint1_linear_1231_3020)"/>
<path d="M65.4916 25.8525C64.7733 26.0225 64.1016 26.3875 63.56 26.9292C62.5883 27.9008 62.1841 29.2908 62.4608 30.6158C62.5908 30.5308 62.7266 30.4533 62.8675 30.3825L64.4475 29.5925L64.4441 29.5808L65.3275 28.6967L66.2116 27.8133L66.2233 27.8167L67.0133 26.2367C67.0841 26.0958 67.1616 25.96 67.2466 25.83C66.66 25.7075 66.0608 25.7183 65.4908 25.8525H65.4916Z" fill="url(#paint2_radial_1231_3020)"/>
<path d="M77.7034 41.0708C77.1617 41.6125 76.4901 41.9775 75.7717 42.1475C75.2017 42.2817 74.6026 42.2925 74.0159 42.17C73.8642 42.1383 73.7126 42.0975 73.5634 42.0475L71.8876 41.4892L71.1467 41.2425L70.6567 41.0625L72.3892 40.485L73.2059 40.2125L74.1676 39.8917L75.0401 40.1825L75.0517 40.1867L76.8192 38.4192L76.8159 38.4075L76.5251 37.535L76.4609 37.3425L76.1017 36.265L75.4609 34.3425L75.3459 33.9992L74.7742 32.2825L74.2892 30.8275L74.1676 30.4633L73.8042 30.3425L72.3492 29.8575L70.6326 29.2858L70.9759 29.1708L72.8984 28.53L73.9759 28.1708L74.1684 28.1067C75.2809 28.4775 76.1542 29.3508 76.5251 30.4633L76.8459 31.4258L77.1184 32.2425L77.8759 34.515L78.1226 35.2558L78.6817 36.9317C78.7317 37.0817 78.7726 37.2325 78.8042 37.3842C79.0809 38.7092 78.6767 40.0992 77.7051 41.0708H77.7034Z" fill="url(#paint3_linear_1231_3020)"/>
<path d="M78.8025 30.615C78.7709 30.7675 78.73 30.9183 78.68 31.0683L78.1208 32.7442L78.1317 32.75V35.25L78.1208 35.2558L78.68 36.9317C78.73 37.0817 78.7709 37.2325 78.8025 37.3842C79.3042 37.0558 79.72 36.625 80.0275 36.1258C80.415 35.4983 80.6317 34.765 80.6317 33.9992C80.6317 32.625 79.935 31.3558 78.8025 30.6142V30.615Z" fill="url(#paint4_linear_1231_3020)"/>
<path d="M70.2883 38.8283L67.2883 39.8283L65.6316 39L65.1458 38.7567L64.4474 38.4083L62.8674 37.6175C62.7266 37.5475 62.5908 37.4692 62.4608 37.3842C61.3283 36.6433 60.6316 35.3742 60.6316 34C60.6316 33.2342 60.8483 32.5008 61.2358 31.8733C61.5441 31.375 61.9591 30.9442 62.4608 30.615C62.5908 30.53 62.7266 30.4525 62.8674 30.3817L64.4474 29.5917L65.1458 29.2425L65.6316 29L64.8033 30.6567L64.4191 31.4258L63.9649 32.3333L63.1316 32.75V35.25L67.2983 37.3333L68.9149 38.1417L70.2883 38.8283Z" fill="url(#paint5_linear_1231_3020)"/>
<path d="M78.8024 30.615C78.7708 30.7675 78.7299 30.9183 78.6799 31.0683L78.1208 32.7442L77.8741 33.485L77.7024 34L77.1166 32.2425L76.8441 31.4258L76.5233 30.4642L76.8141 29.5917L76.8174 29.58L75.9341 28.6958L75.0499 27.8125L75.0383 27.8158L74.1658 28.1067L73.9733 28.1708L72.8958 28.53L70.9733 29.1708L70.6299 29.2858L68.9133 29.8575L67.4583 30.3425L68.8724 27.5142L71.1449 26.7567L71.8858 26.51L73.5616 25.9508C73.7116 25.9008 73.8624 25.86 74.0141 25.8283C75.3391 25.5517 76.7291 25.9558 77.7008 26.9275C78.2416 27.4692 78.6074 28.1408 78.7766 28.8592C78.9116 29.4292 78.9224 30.0283 78.7999 30.6142L78.8024 30.615Z" fill="url(#paint6_linear_1231_3020)"/>
<path d="M76.524 37.5358C76.1532 38.6483 75.2799 39.5217 74.1674 39.8925L73.2057 40.2133L72.389 40.4858L70.6565 41.0633L70.1165 41.2433L69.3757 41.49L67.6999 42.0483C67.5499 42.0983 67.399 42.1392 67.2474 42.1708C65.9224 42.4483 64.5324 42.0433 63.5607 41.0717C63.0199 40.53 62.654 39.8583 62.4849 39.1408C62.3499 38.5708 62.339 37.9717 62.4615 37.385C62.5915 37.47 62.7274 37.5483 62.8682 37.6183L64.4482 38.4092L64.4449 38.4208L66.2124 40.1883L66.224 40.1842L67.0965 39.8933L67.289 39.8292L70.289 38.8292L70.6324 38.7142L72.349 38.1417L73.804 37.6567L74.1674 37.535L74.289 37.1717L74.774 35.7167L75.3457 34L75.4607 34.3433L76.1015 36.2658L76.4607 37.3433L76.5249 37.5358H76.524Z" fill="url(#paint7_linear_1231_3020)"/>
<path d="M86.8774 39L90.7591 31.2358C91.4441 29.8658 92.8449 29 94.3774 29C95.9099 29 97.3099 29.8658 97.9958 31.2358L101.877 39H99.3774L95.6274 31.5H93.1274L89.3774 39H86.8774Z" fill="#1C1F24"/>
<path d="M121.877 39L125.759 31.2358C126.444 29.8658 127.845 29 129.377 29C130.91 29 132.31 29.8658 132.996 31.2358L136.877 39H134.377L130.627 31.5H128.127L124.377 39H121.877Z" fill="#1C1F24"/>
<path d="M164.368 39L168.25 31.2358C168.935 29.8658 170.336 29 171.868 29C173.401 29 174.801 29.8658 175.487 31.2358L179.368 39H176.868L173.118 31.5H170.618L166.868 39H164.368Z" fill="#4B1DF2"/>
<path d="M104.377 29L108.259 36.7642C108.944 38.1342 110.345 39 111.877 39C113.41 39 114.81 38.1342 115.496 36.7642L119.377 29H116.877L113.127 36.5H110.627L106.877 29H104.377Z" fill="#1C1F24"/>
<path d="M141.895 29V34.955C141.895 37.1892 143.706 39 145.94 39H151.895V36.5H144.395V29H141.895Z" fill="#1C1F24"/>
<path d="M159.386 29H156.886V39H159.386V29Z" fill="#4B1DF2"/>
</g>
<path d="M240 68V69H241V68H240ZM239 0V68H241V0H239ZM240 67H0V69H240V67Z" fill="#F9F9FB" mask="url(#path-1-outside-1_1231_3020)"/>
<defs>
<radialGradient id="paint0_radial_1231_3020" cx="0" cy="0" r="1" gradientUnits="userSpaceOnUse" gradientTransform="translate(70.6317 41.3266) scale(4.60333 2.4858)">
<stop stop-color="#15005F"/>
<stop offset="1" stop-color="#4B1DF2"/>
</radialGradient>
<linearGradient id="paint1_linear_1231_3020" x1="70.2434" y1="32.24" x2="67.3567" y2="28.7558" gradientUnits="userSpaceOnUse">
<stop stop-color="#15005F"/>
<stop offset="1" stop-color="#4B1DF2"/>
</linearGradient>
<radialGradient id="paint2_radial_1231_3020" cx="0" cy="0" r="1" gradientUnits="userSpaceOnUse" gradientTransform="translate(65.5575 29.0667) scale(4.37)">
<stop stop-color="#15005F"/>
<stop offset="1" stop-color="#4B1DF2"/>
</radialGradient>
<linearGradient id="paint3_linear_1231_3020" x1="70.5517" y1="34.8025" x2="76.6401" y2="35.4008" gradientUnits="userSpaceOnUse">
<stop stop-color="#15005F"/>
<stop offset="1" stop-color="#4B1DF2"/>
</linearGradient>
<linearGradient id="paint4_linear_1231_3020" x1="78.1208" y1="34" x2="80.6317" y2="34" gradientUnits="userSpaceOnUse">
<stop stop-color="#15005F"/>
<stop offset="1" stop-color="#4B1DF2"/>
</linearGradient>
<linearGradient id="paint5_linear_1231_3020" x1="60.6316" y1="34.4142" x2="70.2883" y2="34.4142" gradientUnits="userSpaceOnUse">
<stop stop-color="#4B1DF2"/>
<stop offset="1" stop-color="#15005F"/>
</linearGradient>
<linearGradient id="paint6_linear_1231_3020" x1="72.7424" y1="31.6433" x2="74.6074" y2="28.6167" gradientUnits="userSpaceOnUse">
<stop stop-color="#15005F"/>
<stop offset="1" stop-color="#4B1DF2"/>
</linearGradient>
<linearGradient id="paint7_linear_1231_3020" x1="69.2949" y1="36.1408" x2="69.6465" y2="40.2583" gradientUnits="userSpaceOnUse">
<stop stop-color="#15005F"/>
<stop offset="1" stop-color="#4B1DF2"/>
</linearGradient>
<clipPath id="clip0_1231_3020">
<rect width="118.737" height="20" fill="white" transform="translate(60.6316 24)"/>
</clipPath>
</defs>
</svg>
